<svg width="22" height="22" viewBox="0 0 22 22" fill="none" xmlns="http://www.w3.org/2000/svg">
<path d="M11.086 17.9484C10.8053 17.9482 10.5297 17.8742 10.2866 17.7339L5.51997 14.9839C5.15187 14.7707 4.88336 14.4202 4.77337 14.0093C4.66338 13.5984 4.7209 13.1606 4.93331 12.7921L5.62081 11.6004C5.98427 11.0946 6.45993 10.6799 7.01052 10.3887C7.56111 10.0975 8.17166 9.93775 8.79431 9.92202C8.82542 9.91659 8.85495 9.90438 8.88082 9.88627C8.90669 9.86816 8.92826 9.84458 8.944 9.8172C8.95974 9.78982 8.96927 9.75932 8.97192 9.72785C8.97457 9.69639 8.97026 9.66472 8.95931 9.6351C8.66102 9.08766 8.4937 8.47853 8.47048 7.85554C8.44725 7.23254 8.56877 6.61264 8.82547 6.04452L9.51297 4.85285C9.72632 4.48521 10.0766 4.217 10.4871 4.10689C10.8977 3.99678 11.3351 4.05372 11.7038 4.26527L16.4705 7.01527C16.8386 7.22842 17.1071 7.57891 17.2171 7.98982C17.3271 8.40072 17.2695 8.83847 17.0571 9.20702L16.3696 10.3987C16.0061 10.9049 15.5302 11.32 14.9792 11.6114C14.4283 11.9027 13.8173 12.0625 13.1943 12.078C13.1632 12.0832 13.1335 12.0952 13.1076 12.1132C13.0816 12.1311 13.06 12.1546 13.0442 12.182C13.0284 12.2094 13.0189 12.2399 13.0163 12.2713C13.0137 12.3028 13.0182 12.3345 13.0293 12.364C13.3277 12.9116 13.4951 13.5209 13.5184 14.144C13.5416 14.7672 13.42 15.3873 13.1631 15.9555L12.4756 17.1472C12.3347 17.3909 12.1321 17.5933 11.8881 17.7339C11.6442 17.8746 11.3675 17.9485 11.086 17.9484ZM10.9026 5.42668C10.8623 5.42661 10.8227 5.43716 10.7878 5.45727C10.7529 5.47739 10.7239 5.50636 10.7037 5.54127L10.0162 6.73293C9.87756 7.11959 9.8246 7.53177 9.861 7.94092C9.89741 8.35007 10.0223 8.74642 10.2271 9.10252C10.32 9.32796 10.3599 9.57173 10.3438 9.81504C10.3276 10.0584 10.2558 10.2947 10.1338 10.5059C10.0118 10.717 9.84301 10.8973 9.64033 11.0329C9.43765 11.1685 9.20653 11.2557 8.96481 11.2879C8.55418 11.2887 8.14863 11.3787 7.77622 11.5517C7.40381 11.7247 7.07341 11.9765 6.80789 12.2898L6.12039 13.4814C6.10525 13.5075 6.0954 13.5363 6.0914 13.5661C6.0874 13.596 6.08933 13.6264 6.09708 13.6555C6.10483 13.6846 6.11824 13.7119 6.13656 13.7358C6.15487 13.7598 6.17772 13.7798 6.20381 13.7949L10.9705 16.5449C11.0232 16.5747 11.0856 16.5825 11.144 16.5667C11.2025 16.5509 11.2524 16.5128 11.2831 16.4606L11.9706 15.2689C12.1092 14.8823 12.1622 14.4701 12.1258 14.061C12.0894 13.6518 11.9645 13.2555 11.7597 12.8994C11.6666 12.674 11.6265 12.4302 11.6425 12.1869C11.6586 11.9436 11.7304 11.7072 11.8525 11.496C11.9745 11.2849 12.1434 11.1046 12.3462 10.9692C12.549 10.8337 12.7802 10.7468 13.022 10.7149C13.4326 10.7135 13.8381 10.6232 14.2104 10.4501C14.5828 10.2769 14.9132 10.0252 15.1789 9.7121L15.8664 8.52043C15.8815 8.49438 15.8914 8.4656 15.8954 8.43573C15.8994 8.40586 15.8974 8.3755 15.8897 8.34638C15.882 8.31727 15.8685 8.28996 15.8502 8.26603C15.8319 8.2421 15.8091 8.22202 15.783 8.20693L11.0163 5.45693C10.9816 5.43725 10.9425 5.42683 10.9026 5.42668Z" fill="white"/>
<path d="M20.1668 11.6875C19.9845 11.6875 19.8096 11.6151 19.6807 11.4861C19.5517 11.3572 19.4793 11.1823 19.4793 11C19.4794 9.3229 18.9822 7.68344 18.0505 6.28896C17.1188 4.89448 15.7945 3.80761 14.2451 3.1658C12.6956 2.524 10.9907 2.35608 9.34581 2.68329C7.70095 3.0105 6.19007 3.81814 5.00423 5.00407C4.71998 5.28872 4.45595 5.59288 4.21407 5.91432C4.10466 6.06019 3.9418 6.15662 3.76129 6.18241C3.58079 6.2082 3.39743 6.16122 3.25157 6.05182C3.1057 5.94242 3.00926 5.77955 2.98348 5.59905C2.95769 5.41854 3.00466 5.23519 3.11407 5.08932C3.39541 4.71759 3.70167 4.36539 4.03073 4.03515C5.4086 2.65671 7.16428 1.71781 9.07576 1.33719C10.9872 0.95658 12.9687 1.15134 14.7695 1.89686C16.5702 2.64237 18.1095 3.90515 19.1926 5.52549C20.2757 7.14584 20.854 9.05098 20.8543 11C20.8543 11.1823 20.7819 11.3572 20.653 11.4861C20.524 11.6151 20.3492 11.6875 20.1668 11.6875Z" fill="white"/>
<path d="M10.9948 20.8542C9.70066 20.8544 8.41915 20.5997 7.22348 20.1046C6.02781 19.6094 4.9414 18.8836 4.02631 17.9685C3.11121 17.0534 2.38537 15.967 1.89024 14.7713C1.39511 13.5756 1.14038 12.2941 1.14063 11C1.14063 10.8177 1.21306 10.6428 1.34199 10.5139C1.47092 10.3849 1.64579 10.3125 1.82813 10.3125C2.01046 10.3125 2.18533 10.3849 2.31426 10.5139C2.44319 10.6428 2.51563 10.8177 2.51563 11C2.51553 12.6771 3.01277 14.3165 3.94447 15.711C4.87617 17.1055 6.20047 18.1924 7.74989 18.8342C9.29931 19.476 11.0043 19.6439 12.6491 19.3167C14.294 18.9895 15.8049 18.1818 16.9907 16.9959C17.2748 16.7117 17.5386 16.4079 17.78 16.0866C17.893 15.9511 18.0537 15.8641 18.2289 15.8437C18.4042 15.8233 18.5806 15.8709 18.7217 15.9768C18.8628 16.0826 18.958 16.2386 18.9874 16.4126C19.0169 16.5865 18.9784 16.7652 18.88 16.9116C18.599 17.2839 18.2927 17.6364 17.9633 17.9667C17.0503 18.8847 15.9643 19.6126 14.7682 20.1082C13.5721 20.6038 12.2895 20.8574 10.9948 20.8542Z" fill="white"/>
<path d="M18.7808 19.4654C18.5984 19.4654 18.4235 19.393 18.2946 19.2641C18.1657 19.1351 18.0933 18.9603 18.0933 18.7779V16.8731H16.1875C16.0052 16.8731 15.8303 16.8007 15.7014 16.6717C15.5724 16.5428 15.5 16.3679 15.5 16.1856C15.5 16.0033 15.5724 15.8284 15.7014 15.6995C15.8303 15.5705 16.0052 15.4981 16.1875 15.4981H18.7808C18.9631 15.4981 19.138 15.5705 19.2669 15.6995C19.3958 15.8284 19.4683 16.0033 19.4683 16.1856V18.7779C19.4683 18.9603 19.3958 19.1351 19.2669 19.2641C19.138 19.393 18.9631 19.4654 18.7808 19.4654Z" fill="white"/>
<path d="M5.81108 6.50194H3.21875C3.03641 6.50194 2.86155 6.42951 2.73261 6.30058C2.60368 6.17164 2.53125 5.99678 2.53125 5.81444V3.22211C2.53125 3.03977 2.60368 2.8649 2.73261 2.73597C2.86155 2.60704 3.03641 2.53461 3.21875 2.53461C3.40109 2.53461 3.57595 2.60704 3.70489 2.73597C3.83382 2.8649 3.90625 3.03977 3.90625 3.22211V5.12694H5.81108C5.99342 5.12694 6.16829 5.19937 6.29722 5.3283C6.42615 5.45724 6.49858 5.6321 6.49858 5.81444C6.49858 5.99678 6.42615 6.17164 6.29722 6.30058C6.16829 6.42951 5.99342 6.50194 5.81108 6.50194Z" fill="white"/>
</svg>
