<svg width="48" height="48" viewBox="0 0 48 48" fill="none" xmlns="http://www.w3.org/2000/svg">
<path d="M43.1124 21.4806L40.3923 18.3214C39.8722 17.7216 39.4522 16.6018 39.4522 15.802V12.4029C39.4522 10.2834 37.7121 8.54386 35.592 8.54386H32.1918C31.4117 8.54386 30.2716 8.12397 29.6716 7.6041L26.5114 4.88478C25.1313 3.70507 22.8712 3.70507 21.4711 4.88478L18.3309 7.62409C17.7309 8.12397 16.5908 8.54386 15.8107 8.54386H12.3505C10.2304 8.54386 8.49028 10.2834 8.49028 12.4029V15.822C8.49028 16.6018 8.07025 17.7216 7.57022 18.3214L4.87005 21.5006C3.70998 22.8803 3.70998 25.1197 4.87005 26.4994L7.57022 29.6786C8.07025 30.2784 8.49028 31.3981 8.49028 32.178V35.5971C8.49028 37.7166 10.2304 39.4561 12.3505 39.4561H15.8107C16.5908 39.4561 17.7309 39.876 18.3309 40.3959L21.4911 43.1152C22.8712 44.2949 25.1313 44.2949 26.5314 43.1152L29.6916 40.3959C30.2916 39.876 31.4117 39.4561 32.2118 39.4561H35.612C37.7321 39.4561 39.4722 37.7166 39.4722 35.5971V32.198C39.4722 31.4181 39.8922 30.2784 40.4123 29.6786L43.1324 26.5194C44.2925 25.1397 44.2925 22.8603 43.1124 21.4806ZM33.3518 24L31.0117 31.1182C30.7117 32.2979 29.4516 33.2577 28.1715 33.2577H24.4713C23.8312 33.2577 22.9312 33.0377 22.5312 32.6378L19.591 30.3384C19.531 31.6181 18.9509 32.158 17.5308 32.158H16.5708C15.0907 32.158 14.4907 31.5781 14.4907 30.1785V20.6208C14.4907 19.2212 15.0907 18.6413 16.5708 18.6413H17.5508C19.0309 18.6413 19.631 19.2212 19.631 20.6208V21.3407L23.5112 15.5821C23.9112 14.9623 24.9313 14.5224 25.7914 14.8623C26.7314 15.1822 27.3314 16.2219 27.1314 17.1417L26.6514 20.2609C26.6114 20.5409 26.6714 20.8008 26.8514 21.0007C27.0114 21.1807 27.2514 21.3007 27.5115 21.3007H31.4117C32.1717 21.3007 32.8118 21.6006 33.1918 22.1405C33.5318 22.6603 33.5918 23.3202 33.3518 24Z" fill="#3D3F7F"/>
</svg>
