<svg width="32" height="32" viewBox="0 0 32 32" fill="none" xmlns="http://www.w3.org/2000/svg">
<g clip-path="url(#clip0_32155_2559)">
<path d="M16.0525 11.1641C16.4929 11.1641 16.8496 10.8071 16.8496 10.3669C16.8496 9.92676 16.4929 9.56982 16.0525 9.56982C12.5308 9.56982 9.67578 12.4248 9.67578 15.9468C9.67578 19.4685 12.5308 22.3235 16.0525 22.3235C19.5745 22.3235 22.4294 19.4685 22.4294 15.9468C22.4294 15.5063 22.0725 15.1497 21.6323 15.1497C21.1921 15.1497 20.8352 15.5063 20.8352 15.9468C20.8352 18.5881 18.6941 20.7295 16.0525 20.7295C13.4111 20.7295 11.2698 18.5881 11.2698 15.9468C11.2698 13.3052 13.4111 11.1641 16.0525 11.1641Z" fill="white"/>
<path d="M31.2624 11.2122C31.124 10.7939 30.6728 10.5671 30.2543 10.7056C29.8456 10.8408 29.6181 11.2759 29.7399 11.6887C32.1237 19.2798 27.9025 27.3659 20.3115 29.7497C12.7207 32.1335 4.63451 27.9123 2.25072 20.3213C-0.133309 12.7302 4.08812 4.64405 11.6789 2.26026C14.489 1.37794 17.5017 1.37794 20.3115 2.26026C20.7334 2.38746 21.1784 2.14869 21.3056 1.72682C21.4309 1.31129 21.2011 0.872082 20.7883 0.737805C12.3593 -1.90672 3.38231 2.78248 0.737784 11.2117C-1.90674 19.6406 2.7827 28.6176 11.2116 31.2622C19.6408 33.9067 28.6176 29.2175 31.2622 20.7883C32.2402 17.6711 32.2402 14.3293 31.2624 11.2122Z" fill="white"/>
<path d="M17.5681 5.69482C17.5722 5.24097 17.2236 4.86157 16.771 4.82764C16.5329 4.80737 16.2947 4.78711 16.0503 4.78711C9.88696 4.78711 4.89062 9.78344 4.89062 15.9468C4.89062 22.1098 9.88696 27.1062 16.0503 27.1062C22.2134 27.1062 27.2097 22.1098 27.2097 15.9468C27.2097 15.6584 27.1921 15.3703 27.1567 15.0842C27.093 14.6467 26.6867 14.3437 26.2492 14.4075C25.8117 14.4709 25.5088 14.8774 25.5722 15.3149C25.5747 15.3315 25.5776 15.3479 25.581 15.3645C25.5984 15.5576 25.6154 15.749 25.6154 15.9463C25.6157 21.2292 21.3332 25.5117 16.0505 25.5122C10.7676 25.5124 6.48511 21.2297 6.48486 15.947C6.48462 10.6643 10.7668 6.38159 16.0498 6.38135H16.05C16.2478 6.38135 16.4394 6.39844 16.6321 6.41553L16.7815 6.42798C17.198 6.4458 17.55 6.12256 17.5676 5.70605C17.5679 5.70215 17.5679 5.69849 17.5681 5.69482Z" fill="white"/>
<path d="M20.8356 7.17846V10.0368L15.4894 15.383C15.1728 15.6889 15.164 16.1936 15.4699 16.5102C15.7758 16.8269 16.2805 16.8357 16.5971 16.5298C16.6037 16.5234 16.6103 16.5168 16.6166 16.5102L21.9628 11.164H24.8212C25.0326 11.164 25.2353 11.0801 25.3849 10.9304L30.1674 6.1477C30.4787 5.83642 30.4787 5.33178 30.1674 5.0205C30.018 4.87109 29.8153 4.7871 29.6039 4.7871H27.2126V2.39575C27.2126 1.95557 26.8556 1.59863 26.4152 1.59888C26.204 1.59888 26.0014 1.68286 25.852 1.83228L21.0693 6.61498C20.9196 6.76439 20.8356 6.96703 20.8356 7.17846ZM22.4299 7.50853L25.6183 4.32006V5.58422C25.6183 6.02441 25.9753 6.38134 26.4154 6.38134H27.6796L24.4911 9.56981H22.4299V7.50853Z" fill="white"/>
</g>
<defs>
<clipPath id="clip0_32155_2559">
<rect width="32" height="32" fill="white"/>
</clipPath>
</defs>
</svg>
