<svg width="22" height="22" viewBox="0 0 22 22" fill="none" xmlns="http://www.w3.org/2000/svg">
<path d="M16.1562 20.625C14.8294 20.625 13.75 19.5456 13.75 18.2187V9.1898C12.4678 8.37236 11.6875 6.96642 11.6875 5.42711C11.6875 3.74274 12.6211 2.21924 14.124 1.44992C14.3378 1.3413 14.5922 1.35024 14.7964 1.47536C15.0006 1.60117 15.125 1.82255 15.125 2.06249V5.03455L16.1562 5.44705L17.1875 5.03455V2.06249C17.1875 1.82255 17.3119 1.60117 17.5161 1.47536C17.7203 1.35024 17.9747 1.3413 18.1885 1.44992C19.6914 2.21992 20.625 3.74274 20.625 5.4278C20.625 6.96642 19.8447 8.37236 18.5625 9.19049V18.2187C18.5625 19.5456 17.4831 20.625 16.1562 20.625ZM13.75 3.48286C13.3121 4.02255 13.0625 4.70317 13.0625 5.42711C13.0625 6.59174 13.7094 7.64705 14.751 8.18055C14.9806 8.29811 15.125 8.53461 15.125 8.79242V18.2187C15.125 18.7873 15.5877 19.25 16.1562 19.25C16.7248 19.25 17.1875 18.7873 17.1875 18.2187V8.79242C17.1875 8.53461 17.3319 8.29811 17.5615 8.18055C18.6031 7.64705 19.25 6.59242 19.25 5.4278C19.25 4.70386 19.0004 4.02324 18.5625 3.48355V5.49999C18.5625 5.78117 18.3913 6.03349 18.1307 6.13867L16.412 6.82617C16.2477 6.89217 16.0655 6.89217 15.9012 6.82617L14.1824 6.13867C13.9212 6.03349 13.75 5.78117 13.75 5.49999V3.48286Z" fill="white"/>
<path d="M11.7384 20.625H10.2623C9.548 20.625 8.94575 20.0674 8.89144 19.3559L8.80481 18.2318C8.33319 18.0888 7.87669 17.8991 7.44012 17.6653L6.5835 18.3989C6.04106 18.8643 5.22156 18.832 4.71694 18.3281L3.67194 17.2824C3.16731 16.7778 3.13569 15.9576 3.60044 15.4151L4.334 14.5592C4.10025 14.1226 3.9105 13.6661 3.7675 13.1945L2.64412 13.1086C1.93256 13.0549 1.375 12.4527 1.375 11.7384V10.2616C1.375 9.54731 1.93256 8.94506 2.64481 8.89075L3.76819 8.80481C3.91119 8.3325 4.10094 7.876 4.33469 7.44012L3.60044 6.58281C3.13569 6.04106 3.16731 5.22156 3.67263 4.71556L4.71625 3.67125C5.22156 3.16594 6.04175 3.135 6.5835 3.59975L7.44012 4.33331C7.87669 4.09956 8.33319 3.90981 8.80481 3.76681L8.89144 2.64275C8.94575 1.93256 9.548 1.375 10.2616 1.375H11C11.3795 1.375 11.6875 1.68231 11.6875 2.0625C11.6875 2.44269 11.3795 2.75 11 2.75H10.2616L10.1379 4.35944C10.1145 4.65919 9.89931 4.90875 9.60713 4.97613C8.94231 5.12944 8.30981 5.39138 7.7275 5.75644C7.47381 5.91663 7.1445 5.89256 6.91556 5.69525L5.68837 4.64406L4.64475 5.68906L5.69594 6.91556C5.89187 7.14381 5.91594 7.47312 5.75644 7.7275C5.39206 8.3105 5.12944 8.943 4.97613 9.60713C4.90875 9.9 4.6585 10.1152 4.35875 10.1379L2.75 10.2616V11.7384L4.35875 11.8621C4.6585 11.8848 4.90875 12.1007 4.97613 12.3929C5.12944 13.0577 5.39138 13.6902 5.75644 14.2725C5.91594 14.5269 5.89119 14.8562 5.69594 15.0844L4.64475 16.3109L5.68906 17.3559L6.91556 16.3047C7.1445 16.1081 7.47381 16.0841 7.7275 16.2436C8.3105 16.6079 8.943 16.8706 9.60713 17.0239C9.9 17.0919 10.1152 17.3415 10.1379 17.6406L10.2616 19.25H11.7377C11.7666 18.8719 12.0959 18.5893 12.4761 18.6175C12.8549 18.6464 13.1381 18.9771 13.1086 19.3559C13.0542 20.0674 12.452 20.625 11.7384 20.625Z" fill="white"/>
<path d="M6.1875 11C6.1875 8.63915 7.87462 6.64334 10.1991 6.25421C10.5724 6.18752 10.9285 6.44396 10.9904 6.81865C11.0529 7.19334 10.8006 7.5474 10.4259 7.60996C8.767 7.8884 7.5625 9.31427 7.5625 11C7.5625 13.374 9.92062 15.0295 12.1461 14.2423C12.5022 14.1151 12.8968 14.3021 13.024 14.6603C13.1505 15.0185 12.9635 15.411 12.6053 15.5375C9.47512 16.6451 6.1875 14.311 6.1875 11Z" fill="white"/>
</svg>
