<svg width="46" height="52" viewBox="0 0 46 52" fill="none" xmlns="http://www.w3.org/2000/svg">
<g clip-path="url(#clip0_32155_3770)">
<path d="M26.099 52C32.9554 52 39.368 49.5549 44.2299 45.1109L46 43.3323L37.5978 34.8899L35.8276 37.1095C33.1749 39.5545 29.8588 40.8872 26.099 40.8872C17.6969 40.8872 11.5036 34.8899 11.5036 26.0017C11.5036 17.1135 17.4724 11.3366 26.099 11.3366C29.8588 11.3366 33.1749 12.4488 35.8276 15.1143L37.5978 16.6676L45.5562 8.67105L43.7861 6.89242C38.6999 2.66878 32.7311 0.00328912 26.0942 0.00328912C11.0599 -0.217202 0 10.6701 0 25.9968C0.00487649 40.4463 11.2842 52 26.099 52Z" fill="black"/>
<path d="M16.4297 26.002C16.4297 31.0469 20.4104 34.9395 25.0547 34.9395C29.9233 34.9395 33.6797 30.8144 33.6797 26.002C33.6797 20.9569 29.6989 17.0645 25.0547 17.0645C20.4104 17.0645 16.4297 20.962 16.4297 26.002Z" fill="#F9B600"/>
</g>
<defs>
<clipPath id="clip0_32155_3770">
<rect width="46" height="52" fill="white"/>
</clipPath>
</defs>
</svg>
