<svg width="20" height="20" viewBox="0 0 20 20" fill="none" xmlns="http://www.w3.org/2000/svg">
<path d="M18.207 0.603516L18.4492 0.613281C18.6929 0.628192 18.9231 0.731674 19.0957 0.904297C19.2469 1.05554 19.3449 1.25105 19.377 1.46094L19.3867 1.55078C19.4568 2.73395 19.3442 5.73872 16.8516 8.23047V8.23145L11.9307 13.1523C11.6751 13.4012 11.5222 13.7376 11.5029 14.0938C11.4837 14.4498 11.599 14.8003 11.8262 15.0752L11.835 15.085C11.9609 15.2305 12.1155 15.3485 12.2891 15.4316C12.4626 15.5148 12.6514 15.5615 12.8438 15.5684C13.0359 15.5752 13.2273 15.5421 13.4062 15.4717C13.5853 15.4012 13.7488 15.2953 13.8848 15.1592L13.8838 15.1582L16.2002 12.8428V14.9688C16.2005 15.1003 16.1751 15.2309 16.125 15.3525C16.0874 15.4438 16.0359 15.5284 15.9736 15.6045L15.9072 15.6777L12.4756 19.1074L12.4746 19.1084C12.3824 19.2009 12.273 19.2742 12.1523 19.3242C12.0315 19.3743 11.9013 19.4006 11.7705 19.4004H11.7695C11.6609 19.4003 11.5532 19.382 11.4502 19.3477H11.4482C11.2722 19.2894 11.1159 19.1824 10.9971 19.04C10.8784 18.8978 10.8012 18.7254 10.7754 18.542H10.7764L10.2393 14.6924L10.2109 14.4932L5.50586 9.78809L5.30664 9.75977L1.45898 9.22266H1.45801C1.27483 9.19635 1.10221 9.12037 0.959961 9.00195C0.817131 8.88299 0.710246 8.72612 0.651367 8.5498C0.592499 8.3735 0.584268 8.18383 0.626953 8.00293C0.659002 7.86738 0.718399 7.74022 0.801758 7.62988L0.893555 7.52539L4.32324 4.09277H4.32422C4.41679 3.99982 4.52717 3.92601 4.64844 3.87598C4.76977 3.82595 4.90001 3.80009 5.03125 3.80078H7.15625L4.8418 6.11621C4.5795 6.37897 4.43242 6.73518 4.43262 7.10645C4.43295 7.47788 4.58087 7.83427 4.84375 8.09668C5.10659 8.35903 5.46262 8.50615 5.83398 8.50586C6.0179 8.5057 6.20026 8.46995 6.37012 8.39941C6.53987 8.32892 6.69336 8.22478 6.82324 8.09473L6.82422 8.0957L11.7695 3.14648L11.7686 3.14551C14.105 0.809167 16.8946 0.566822 18.207 0.603516ZM4.41016 12.7441C4.4364 12.7432 4.46271 12.7477 4.4873 12.7568C4.51186 12.766 4.53451 12.78 4.55371 12.7979C4.57292 12.8158 4.5887 12.8374 4.59961 12.8613C4.61051 12.8852 4.61626 12.9112 4.61719 12.9375C4.61811 12.9638 4.61369 12.99 4.60449 13.0146C4.59529 13.0392 4.58137 13.0619 4.56348 13.0811C4.55447 13.0907 4.54485 13.0998 4.53418 13.1074L4.5 13.127C3.695 13.494 2.11318 14.605 1.83984 17.5078L1.77148 18.2295L2.49316 18.1611C5.39364 17.888 6.50796 16.3084 6.87402 15.501C6.88491 15.4771 6.90075 15.4554 6.91992 15.4375C6.93911 15.4196 6.96176 15.4057 6.98633 15.3965C7.01094 15.3873 7.0372 15.3829 7.06348 15.3838C7.08976 15.3847 7.11574 15.3905 7.13965 15.4014C7.16355 15.4123 7.18521 15.428 7.20312 15.4473C7.22099 15.4665 7.23496 15.4891 7.24414 15.5137C7.25333 15.5383 7.25776 15.5646 7.25684 15.5908C7.25637 15.604 7.25402 15.6171 7.25098 15.6299L7.23828 15.667C7.04327 16.093 6.61201 16.8215 5.75586 17.4434C4.90544 18.061 3.59722 18.6016 1.59863 18.6016C1.54575 18.6014 1.49541 18.5804 1.45801 18.543C1.42061 18.5056 1.39953 18.4552 1.39941 18.4023C1.39941 16.4038 1.93994 15.0955 2.55762 14.2451C3.1793 13.3893 3.9069 12.9568 4.33301 12.7617L4.33398 12.7627C4.35787 12.7518 4.38391 12.7451 4.41016 12.7441Z" stroke="white" stroke-width="1.2"/>
</svg>
