<svg width="20" height="20" viewBox="0 0 20 20" fill="none" xmlns="http://www.w3.org/2000/svg">
<path d="M9.57194 0.810791C6.66229 0.810791 4.28874 3.19247 4.28874 6.10211C4.28874 7.88075 5.17874 9.45664 6.5332 10.4152C3.37398 11.6811 1.13281 14.77 1.13281 18.3742C1.13765 18.592 1.22757 18.7993 1.38332 18.9516C1.53907 19.1039 1.74828 19.1893 1.96615 19.1893C2.18401 19.1893 2.39322 19.1039 2.54897 18.9516C2.70472 18.7993 2.79465 18.592 2.79948 18.3742C2.79948 14.5492 5.8836 11.4667 9.70866 11.4667C11.0439 11.4667 12.2833 11.8473 13.3382 12.5002C13.4316 12.5582 13.5356 12.5972 13.6441 12.615C13.7526 12.6328 13.8635 12.629 13.9706 12.6038C14.0776 12.5787 14.1786 12.5327 14.2679 12.4684C14.3571 12.4042 14.4328 12.323 14.4906 12.2295C14.5484 12.1359 14.5872 12.0319 14.6047 11.9233C14.6222 11.8148 14.6182 11.7038 14.5928 11.5968C14.5674 11.4898 14.5211 11.3889 14.4567 11.2998C14.3922 11.2107 14.3108 11.1353 14.2171 11.0777C13.7418 10.7835 13.2257 10.5532 12.6937 10.3551C14.0044 9.39156 14.8633 7.84526 14.8633 6.10211C14.8633 3.19247 12.4816 0.810791 9.57194 0.810791ZM9.57194 2.47902C11.5809 2.47902 13.1966 4.09319 13.1966 6.10211C13.1966 8.11102 11.5809 9.71866 9.57194 9.71866C7.56303 9.71866 5.9554 8.11102 5.9554 6.10211C5.95541 4.09319 7.56303 2.47902 9.57194 2.47902ZM18.0062 12.4807C17.8707 12.4846 17.7383 12.5214 17.6203 12.5881C17.5023 12.6547 17.4024 12.7492 17.3291 12.8632L14.4564 17.1682L12.6546 15.9621C12.5633 15.9007 12.4607 15.8579 12.3527 15.8362C12.2448 15.8145 12.1336 15.8143 12.0256 15.8356C11.9176 15.857 11.8149 15.8995 11.7233 15.9606C11.6318 16.0217 11.5531 16.1003 11.492 16.1918C11.4309 16.2834 11.3884 16.386 11.367 16.494C11.3456 16.602 11.3458 16.7133 11.3675 16.8212C11.3891 16.9292 11.4319 17.0317 11.4933 17.1231C11.5547 17.2145 11.6335 17.2929 11.7253 17.3537L14.2301 19.0204C14.3214 19.0809 14.4237 19.1229 14.5312 19.1439C14.6386 19.1649 14.7492 19.1644 14.8565 19.1427C14.9638 19.1209 15.0658 19.0782 15.1566 19.017C15.2474 18.9559 15.3253 18.8774 15.3857 18.7861L18.7207 13.7845C18.8077 13.6574 18.8577 13.5087 18.8654 13.3549C18.873 13.2011 18.8378 13.0482 18.7638 12.9131C18.6898 12.7781 18.5798 12.6662 18.4461 12.5899C18.3124 12.5136 18.1601 12.4758 18.0062 12.4807Z" fill="white"/>
</svg>
