<svg width="48" height="48" viewBox="0 0 48 48" fill="none" xmlns="http://www.w3.org/2000/svg">
<path d="M42.5547 37.1957L39.2533 37.9829C38.8919 38.0652 38.561 38.2489 38.2988 38.5127C38.0367 38.7765 37.8539 39.1097 37.7716 39.4737L37.0734 42.4379C36.6915 44.0496 34.6513 44.5532 33.5908 43.2844L27.612 36.3491C27.5006 36.2201 27.4238 36.0646 27.3887 35.8974C27.3537 35.7301 27.3615 35.5566 27.4115 35.3932C27.4616 35.2299 27.5521 35.0821 27.6746 34.9639C27.7971 34.8456 27.9476 34.7608 28.1117 34.7175C31.6618 33.8476 34.839 31.8473 37.1716 29.0135C37.2578 28.9023 37.3664 28.8106 37.4902 28.7444C37.614 28.6783 37.7502 28.6392 37.89 28.6296C38.0298 28.6201 38.17 28.6403 38.3015 28.689C38.433 28.7378 38.5528 28.8139 38.6532 28.9124L43.0937 33.3872C44.6124 34.9176 44.0756 36.8328 42.5547 37.1957Z" fill="white"/>
<path d="M5.44569 37.1955L8.74496 37.9827C9.10633 38.065 9.4372 38.2487 9.69938 38.5125C9.96155 38.7764 10.1443 39.1095 10.2266 39.4735L10.9248 42.4377C11.3067 44.0495 13.3469 44.553 14.4074 43.2842L20.3862 36.3489C20.4976 36.2199 20.5744 36.0644 20.6095 35.8972C20.6446 35.7299 20.6367 35.5564 20.5867 35.3931C20.5367 35.2297 20.4461 35.0819 20.3236 34.9637C20.2011 34.8454 20.0507 34.7606 19.8866 34.7173C16.3364 33.8474 13.1592 31.8471 10.8266 29.0134C10.7404 28.9021 10.6318 28.8104 10.508 28.7443C10.3843 28.6781 10.248 28.639 10.1082 28.6294C9.96846 28.6199 9.82824 28.6401 9.69674 28.6889C9.56523 28.7376 9.44539 28.8137 9.34503 28.9122L4.90454 33.387C3.38583 34.9174 3.9248 36.8327 5.44569 37.1955Z" fill="white"/>
<path d="M24.0648 3.99964C22.2256 3.99819 20.4041 4.36218 18.7046 5.07078C17.0052 5.77938 15.461 6.81869 14.1605 8.12925C12.86 9.4398 11.8286 10.9959 11.1254 12.7085C10.4223 14.4211 10.0611 16.2566 10.0625 18.11C10.0625 21.0324 10.9222 23.7128 12.4039 25.9513C13.4884 27.5812 14.899 28.9645 16.5453 30.0127C18.1916 31.0609 20.0371 31.7507 21.9634 32.0379C22.6442 32.1588 23.3447 32.2182 24.0648 32.2182C24.7849 32.2182 25.4831 32.1588 26.1639 32.0379C28.0907 31.751 29.9366 31.0613 31.5833 30.0131C33.2299 28.9649 34.6409 27.5814 35.7257 25.9513C37.2617 23.6299 38.0768 20.9001 38.067 18.11C38.0685 16.2566 37.7073 14.4211 37.0041 12.7085C36.3009 10.9959 35.2696 9.4398 33.9691 8.12925C32.6686 6.81869 31.1244 5.77938 29.4249 5.07078C27.7254 4.36218 25.904 3.99819 24.0648 3.99964ZM30.1854 17.6658L28.5271 19.337C28.379 19.5013 28.271 19.6982 28.2115 19.9119C28.152 20.1257 28.1428 20.3504 28.1845 20.5684L28.6645 22.6441C29.0442 24.2779 28.1845 24.9222 26.7443 24.0558L24.7456 22.8662C24.5424 22.7571 24.3157 22.7 24.0855 22.7C23.8553 22.7 23.6286 22.7571 23.4254 22.8662L21.4245 24.0536C19.9843 24.9024 19.1246 24.2779 19.5043 22.6463L19.9843 20.5684C20.0196 20.3505 20.0074 20.1276 19.9487 19.9149C19.8899 19.7023 19.7859 19.5051 19.6439 19.337L17.9419 17.6658C16.9644 16.6763 17.2829 15.6912 18.6445 15.4669L20.783 15.1063C20.9797 15.0607 21.1648 14.9744 21.3267 14.8529C21.4886 14.7314 21.6237 14.5773 21.7234 14.4005L22.9039 12.0212C23.5454 10.7327 24.5841 10.7327 25.2256 12.0212L26.4039 14.4005C26.5056 14.5794 26.6437 14.7346 26.8092 14.8559C26.9747 14.9772 27.1638 15.0618 27.364 15.1041L29.5046 15.4691C30.8444 15.689 31.1652 16.6785 30.1854 17.6658Z" fill="white"/>
</svg>
