<svg width="60" height="60" viewBox="0 0 60 60" fill="none" xmlns="http://www.w3.org/2000/svg">
<path d="M43.5563 37.8237H40.1444C40.0262 37.8237 39.9094 37.7979 39.8023 37.748C39.6952 37.6981 39.6002 37.6255 39.5241 37.5351C38.1852 35.8877 36.5657 34.49 34.7403 33.4064L34.3228 33.1737C30.8273 31.2326 26.8633 29.0321 26.4457 23.9094C26.4231 23.5073 26.2804 23.1212 26.0359 22.8012C25.7915 22.4812 25.4566 22.2418 25.0746 22.1142L24.8744 22.0534C24.6062 21.9667 24.3223 21.9392 24.0424 21.973C23.7625 22.0067 23.4933 22.1009 23.2534 22.2489C23.0135 22.397 22.8087 22.5954 22.653 22.8305C22.4974 23.0655 22.3946 23.3315 22.3519 23.6102C21.7576 27.3529 21.9968 32.2324 26.5057 34.2156C26.6757 34.2905 26.8148 34.4216 26.8997 34.5868C26.9847 34.752 27.0103 34.9414 26.9723 35.1233C26.9343 35.3051 26.835 35.4684 26.6911 35.5858C26.5471 35.7032 26.3672 35.7677 26.1814 35.7683H22.3155C22.1004 35.7683 21.8942 35.6829 21.7421 35.5308C21.5901 35.3788 21.5046 35.1725 21.5046 34.9575C21.5046 34.7424 21.5901 34.5362 21.7421 34.3842C21.8942 34.2321 22.1004 34.1467 22.3155 34.1467H23.4506C20.9476 31.8586 19.9957 28.1353 20.7538 23.3515C20.8331 22.8432 21.0214 22.3581 21.3058 21.9294C21.5902 21.5007 21.9639 21.1386 22.4014 20.8679C22.8389 20.5972 23.3297 20.4243 23.8402 20.361C24.3508 20.2978 24.869 20.3457 25.3592 20.5015L25.5571 20.5624C26.2487 20.7848 26.8576 21.2099 27.3048 21.7826C27.752 22.3552 28.0168 23.049 28.0649 23.774C28.4144 28.0315 31.6682 29.8396 35.1141 31.7532L35.5349 31.9875C37.4261 33.0938 39.112 34.5186 40.5182 36.1988H43.5563C43.7713 36.1988 43.9775 36.2843 44.1296 36.4363C44.2817 36.5884 44.3671 36.7946 44.3671 37.0096C44.3671 37.2247 44.2817 37.4309 44.1296 37.583C43.9775 37.735 43.7713 37.8205 43.5563 37.8205V37.8237Z" fill="white"/>
<path d="M38.7187 58.1781H19.6233C19.4083 58.1781 19.202 58.0926 19.05 57.9406C18.8979 57.7885 18.8125 57.5823 18.8125 57.3672C18.8125 57.1522 18.8979 56.946 19.05 56.7939C19.202 56.6419 19.4083 56.5564 19.6233 56.5564H38.7187C39.7555 56.5566 40.7861 56.3978 41.7747 56.0854L43.3152 55.5989C43.4168 55.5669 43.5237 55.5553 43.6297 55.5647C43.7358 55.574 43.839 55.6042 43.9334 55.6534C44.0278 55.7027 44.1116 55.77 44.18 55.8516C44.2484 55.9333 44.3 56.0276 44.332 56.1291C44.3639 56.2307 44.3755 56.3376 44.3662 56.4437C44.3568 56.5497 44.3266 56.6529 44.2774 56.7473C44.2282 56.8418 44.1608 56.9255 44.0792 56.9939C43.9976 57.0623 43.9033 57.114 43.8017 57.1459L42.2611 57.6324C41.1152 57.9943 39.9205 58.1783 38.7187 58.1781Z" fill="white"/>
<path d="M51.5262 59.0013H45.2019C44.5517 59.0004 43.9285 58.7417 43.4688 58.2819C43.0091 57.8221 42.7506 57.1987 42.75 56.5486V36.6099C42.7506 35.9598 43.0091 35.3364 43.4688 34.8766C43.9285 34.4168 44.5517 34.1581 45.2019 34.1572H51.5262C52.1765 34.1579 52.8 34.4165 53.2598 34.8763C53.7197 35.3361 53.9783 35.9596 53.9789 36.6099V56.5486C53.9783 57.1989 53.7197 57.8224 53.2598 58.2822C52.8 58.742 52.1765 59.0006 51.5262 59.0013ZM45.2019 35.7788C44.9817 35.7793 44.7706 35.867 44.615 36.0228C44.4594 36.1786 44.3718 36.3897 44.3716 36.6099V56.5486C44.3718 56.7688 44.4594 56.9799 44.615 57.1357C44.7706 57.2915 44.9817 57.3792 45.2019 57.3797H51.5262C51.7466 57.3794 51.9578 57.2918 52.1136 57.136C52.2695 56.9802 52.3571 56.7689 52.3573 56.5486V36.6099C52.3571 36.3896 52.2695 36.1783 52.1136 36.0225C51.9578 35.8667 51.7466 35.7791 51.5262 35.7788H45.2019Z" fill="white"/>
<path d="M21.9005 41.3791H12.8932C11.9449 41.3649 11.0402 40.9782 10.3746 40.3026C9.70903 39.6269 9.33594 38.7166 9.33594 37.7682C9.33594 36.8198 9.70903 35.9094 10.3746 35.2338C11.0402 34.5581 11.9449 34.1714 12.8932 34.1572H21.9013C22.8496 34.1714 23.7543 34.5581 24.4198 35.2338C25.0854 35.9094 25.4585 36.8198 25.4585 37.7682C25.4585 38.7166 25.0854 39.6269 24.4198 40.3026C23.7543 40.9782 22.8488 41.3649 21.9005 41.3791ZM12.8932 35.7788C12.3725 35.7894 11.8768 36.0036 11.5123 36.3755C11.1478 36.7474 10.9436 37.2474 10.9436 37.7682C10.9436 38.2889 11.1478 38.7889 11.5123 39.1609C11.8768 39.5328 12.3725 39.747 12.8932 39.7575H21.9013C22.4219 39.747 22.9177 39.5328 23.2822 39.1609C23.6467 38.7889 23.8509 38.2889 23.8509 37.7682C23.8509 37.2474 23.6467 36.7474 23.2822 36.3755C22.9177 36.0036 22.4219 35.7894 21.9013 35.7788H12.8932Z" fill="white"/>
<path d="M22.8812 46.9791H14.1666C13.2183 46.9649 12.3136 46.5782 11.6481 45.9026C10.9825 45.227 10.6094 44.3166 10.6094 43.3682C10.6094 42.4198 10.9825 41.5094 11.6481 40.8338C12.3136 40.1581 13.2183 39.7715 14.1666 39.7572H22.8812C23.36 39.7501 23.8354 39.8382 24.2797 40.0164C24.7241 40.1947 25.1286 40.4595 25.4697 40.7955C25.8108 41.1315 26.0817 41.532 26.2666 41.9737C26.4515 42.4154 26.5467 42.8894 26.5467 43.3682C26.5467 43.847 26.4515 44.321 26.2666 44.7627C26.0817 45.2043 25.8108 45.6048 25.4697 45.9409C25.1286 46.2769 24.7241 46.5417 24.2797 46.72C23.8354 46.8982 23.36 46.9863 22.8812 46.9791ZM14.1666 41.3789C13.646 41.3894 13.1502 41.6036 12.7857 41.9755C12.4212 42.3474 12.217 42.8474 12.217 43.3682C12.217 43.8889 12.4212 44.3889 12.7857 44.7609C13.1502 45.1328 13.646 45.347 14.1666 45.3575H22.8812C23.1458 45.3629 23.4089 45.3153 23.6549 45.2178C23.9009 45.1202 24.125 44.9745 24.3141 44.7893C24.5031 44.604 24.6533 44.3829 24.7558 44.1389C24.8583 43.8949 24.9111 43.6329 24.9111 43.3682C24.9111 43.1035 24.8583 42.8415 24.7558 42.5975C24.6533 42.3535 24.5031 42.1324 24.3141 41.9471C24.125 41.7619 23.9009 41.6162 23.6549 41.5186C23.4089 41.421 23.1458 41.3735 22.8812 41.3789H14.1666Z" fill="white"/>
<path d="M23.4513 52.5792H15.353C14.8742 52.5864 14.3988 52.4983 13.9544 52.3201C13.51 52.1418 13.1055 51.877 12.7644 51.541C12.4234 51.2049 12.1525 50.8044 11.9676 50.3628C11.7827 49.9211 11.6875 49.4471 11.6875 48.9683C11.6875 48.4895 11.7827 48.0155 11.9676 47.5738C12.1525 47.1321 12.4234 46.7316 12.7644 46.3956C13.1055 46.0596 13.51 45.7948 13.9544 45.6165C14.3988 45.4383 14.8742 45.3502 15.353 45.3573H23.4513C23.9301 45.3502 24.4055 45.4383 24.8499 45.6165C25.2943 45.7948 25.6988 46.0596 26.0399 46.3956C26.381 46.7316 26.6518 47.1321 26.8367 47.5738C27.0216 48.0155 27.1168 48.4895 27.1168 48.9683C27.1168 49.4471 27.0216 49.9211 26.8367 50.3628C26.6518 50.8044 26.381 51.2049 26.0399 51.541C25.6988 51.877 25.2943 52.1418 24.8499 52.3201C24.4055 52.4983 23.9301 52.5864 23.4513 52.5792ZM15.353 46.979C15.0883 46.9736 14.8253 47.0211 14.5793 47.1187C14.3332 47.2163 14.1092 47.3619 13.9201 47.5472C13.7311 47.7325 13.5809 47.9536 13.4784 48.1976C13.3759 48.4416 13.3231 48.7036 13.3231 48.9683C13.3231 49.233 13.3759 49.495 13.4784 49.739C13.5809 49.983 13.7311 50.2041 13.9201 50.3894C14.1092 50.5746 14.3332 50.7203 14.5793 50.8179C14.8253 50.9154 15.0883 50.963 15.353 50.9576H23.4513C23.716 50.963 23.979 50.9154 24.225 50.8179C24.4711 50.7203 24.6952 50.5746 24.8842 50.3894C25.0732 50.2041 25.2234 49.983 25.3259 49.739C25.4284 49.495 25.4812 49.233 25.4812 48.9683C25.4812 48.7036 25.4284 48.4416 25.3259 48.1976C25.2234 47.9536 25.0732 47.7325 24.8842 47.5472C24.6952 47.3619 24.4711 47.2163 24.225 47.1187C23.979 47.0211 23.716 46.9736 23.4513 46.979H15.353Z" fill="white"/>
<path d="M23.8506 58.1798H16.9076C16.4289 58.187 15.9535 58.0989 15.5091 57.9206C15.0647 57.7424 14.6602 57.4776 14.3191 57.1415C13.978 56.8055 13.7072 56.405 13.5223 55.9634C13.3374 55.5217 13.2422 55.0477 13.2422 54.5689C13.2422 54.0901 13.3374 53.616 13.5223 53.1744C13.7072 52.7327 13.978 52.3322 14.3191 51.9962C14.6602 51.6602 15.0647 51.3953 15.5091 51.2171C15.9535 51.0388 16.4289 50.9508 16.9076 50.9579H23.8506C24.7989 50.9721 25.7036 51.3588 26.3692 52.0345C27.0348 52.7101 27.4079 53.6205 27.4079 54.5689C27.4079 55.5173 27.0348 56.4276 26.3692 57.1033C25.7036 57.7789 24.7989 58.1656 23.8506 58.1798ZM16.9076 52.5795C16.643 52.5742 16.38 52.6217 16.134 52.7193C15.8879 52.8169 15.6638 52.9625 15.4748 53.1478C15.2858 53.333 15.1356 53.5542 15.0331 53.7982C14.9306 54.0422 14.8778 54.3042 14.8778 54.5689C14.8778 54.8335 14.9306 55.0956 15.0331 55.3396C15.1356 55.5836 15.2858 55.8047 15.4748 55.99C15.6638 56.1752 15.8879 56.3209 16.134 56.4185C16.38 56.516 16.643 56.5635 16.9076 56.5582H23.8506C24.3713 56.5477 24.867 56.3335 25.2315 55.9615C25.596 55.5896 25.8002 55.0896 25.8002 54.5689C25.8002 54.0481 25.596 53.5481 25.2315 53.1762C24.867 52.8043 24.3713 52.5901 23.8506 52.5795H16.9076Z" fill="white"/>
<path d="M7.19694 19.1788C7.07891 19.1787 6.96231 19.1529 6.8553 19.1031C6.74829 19.0533 6.65345 18.9807 6.57739 18.8904C6.50134 18.8002 6.44591 18.6944 6.41497 18.5805C6.38404 18.4666 6.37834 18.3473 6.39829 18.231L7.08424 14.2312L4.17829 11.3983C4.0713 11.2925 3.99585 11.159 3.96037 11.0128C3.92489 10.8666 3.93079 10.7134 3.9774 10.5704C4.02402 10.4274 4.10951 10.3001 4.22432 10.2029C4.33912 10.1057 4.47872 10.0423 4.62748 10.0199L8.64343 9.43609L10.4394 5.79717C10.5138 5.67056 10.6201 5.56558 10.7476 5.49265C10.875 5.41971 11.0194 5.38135 11.1663 5.38135C11.3131 5.38135 11.4575 5.41971 11.585 5.49265C11.7125 5.56558 11.8187 5.67056 11.8932 5.79717L13.6899 9.43609L17.7059 10.0199C17.8555 10.0416 17.9961 10.1048 18.1118 10.2022C18.2274 10.2997 18.3135 10.4275 18.3603 10.5713C18.4071 10.7151 18.4128 10.8691 18.3767 11.016C18.3405 11.1628 18.264 11.2966 18.1559 11.4023L15.2499 14.2353L15.9359 18.235C15.9609 18.3841 15.9438 18.5372 15.8864 18.6771C15.829 18.8169 15.7337 18.9379 15.6112 19.0265C15.4886 19.115 15.3438 19.1676 15.193 19.1781C15.0422 19.1887 14.8914 19.1569 14.7578 19.0864L11.165 17.1972L7.57316 19.0864C7.45693 19.1468 7.32793 19.1785 7.19694 19.1788ZM11.1699 15.471C11.3012 15.4708 11.4306 15.5025 11.5469 15.5634L14.0605 16.8858L13.5796 14.0853C13.5575 13.9557 13.5672 13.8227 13.6078 13.6977C13.6485 13.5727 13.719 13.4594 13.8132 13.3677L15.8475 11.3845L13.0356 10.9791C12.9056 10.96 12.7821 10.9095 12.6759 10.8321C12.5697 10.7547 12.4839 10.6527 12.4259 10.5347L11.1667 7.98312L9.9091 10.5315C9.85102 10.6495 9.76508 10.7517 9.65871 10.8291C9.55235 10.9065 9.42874 10.9568 9.29856 10.9758L6.48748 11.3845L8.52262 13.3677C8.61665 13.4595 8.68696 13.5728 8.7275 13.6978C8.76804 13.8228 8.77758 13.9558 8.75532 14.0853L8.27126 16.8858L10.7848 15.5634C10.9026 15.5017 11.0337 15.47 11.1667 15.471H11.1699Z" fill="white"/>
<path d="M48.2462 19.1788C48.1147 19.1788 47.9851 19.1471 47.8684 19.0864L44.2732 17.1972L40.6814 19.0864C40.5474 19.1569 40.3964 19.1884 40.2454 19.1775C40.0944 19.1666 39.9495 19.1136 39.8271 19.0246C39.7046 18.9356 39.6096 18.8141 39.5526 18.6738C39.4957 18.5336 39.4791 18.3802 39.5049 18.231L40.1908 14.2313L37.2841 11.3991C37.1756 11.2935 37.0989 11.1596 37.0627 11.0126C37.0264 10.8657 37.032 10.7115 37.0788 10.5675C37.1257 10.4236 37.2119 10.2956 37.3277 10.1981C37.4435 10.1006 37.5842 10.0375 37.7341 10.0159L41.75 9.43209L43.5459 5.79317C43.6205 5.66656 43.7268 5.56162 43.8544 5.48871C43.9819 5.41579 44.1263 5.37744 44.2732 5.37744C44.4202 5.37744 44.5646 5.41579 44.6921 5.48871C44.8197 5.56162 44.926 5.66656 45.0005 5.79317L46.7965 9.43209L50.8124 10.0159C50.9623 10.0375 51.103 10.1006 51.2188 10.1981C51.3346 10.2956 51.4208 10.4236 51.4677 10.5675C51.5145 10.7115 51.5201 10.8657 51.4838 11.0126C51.4475 11.1596 51.3709 11.2935 51.2624 11.3991L48.3557 14.2313L49.0416 18.231C49.0616 18.3473 49.0559 18.4666 49.0249 18.5805C48.994 18.6944 48.9386 18.8002 48.8625 18.8905C48.7865 18.9807 48.6916 19.0533 48.5846 19.1031C48.4776 19.1529 48.361 19.1788 48.243 19.1788H48.2462ZM44.2732 15.471C44.4046 15.4708 44.5339 15.5026 44.6503 15.5634L47.1638 16.8859L46.6838 14.0853C46.6615 13.9558 46.6711 13.8228 46.7116 13.6978C46.7521 13.5728 46.8225 13.4596 46.9165 13.3678L48.9524 11.3845L46.1397 10.9791C46.0096 10.9601 45.886 10.9098 45.7796 10.8324C45.6732 10.755 45.5873 10.6528 45.5292 10.5348L44.2732 7.98398L43.0157 10.5315C42.9576 10.6496 42.8717 10.7517 42.7653 10.8291C42.6589 10.9065 42.5353 10.9569 42.4051 10.9759L39.5932 11.3813L41.6284 13.3645C41.7224 13.4563 41.7927 13.5696 41.8333 13.6946C41.8738 13.8196 41.8834 13.9526 41.8611 14.0821L41.3811 16.8826L43.8946 15.5602C44.0117 15.5002 44.1417 15.4696 44.2732 15.471Z" fill="white"/>
<path d="M31.6876 16.0824C31.5563 16.0824 31.427 16.0507 31.3106 15.99L27.7187 14.1016L24.126 15.99C23.9921 16.0604 23.8411 16.092 23.6902 16.0811C23.5394 16.0702 23.3945 16.0173 23.2721 15.9284C23.1497 15.8394 23.0546 15.7181 22.9976 15.5779C22.9406 15.4378 22.9239 15.2845 22.9495 15.1354L23.6354 11.1349L20.7295 8.30272C20.6211 8.19714 20.5444 8.06332 20.5081 7.91642C20.4718 7.76951 20.4773 7.61538 20.524 7.47145C20.5708 7.32752 20.6568 7.19954 20.7725 7.10199C20.8882 7.00445 21.0289 6.94123 21.1787 6.91948L25.1954 6.33569L26.9914 2.69678C27.066 2.57036 27.1723 2.46559 27.2997 2.39281C27.4272 2.32002 27.5715 2.28174 27.7183 2.28174C27.865 2.28174 28.0093 2.32002 28.1368 2.39281C28.2643 2.46559 28.3705 2.57036 28.4452 2.69678L30.2427 6.33569L34.2595 6.91948C34.4091 6.94134 34.5496 7.00459 34.6651 7.10208C34.7807 7.19957 34.8666 7.32743 34.9134 7.47121C34.9601 7.61499 34.9657 7.76897 34.9295 7.91575C34.8933 8.06254 34.8168 8.1963 34.7087 8.30191L31.8027 11.1349L32.4887 15.1354C32.5085 15.2518 32.5027 15.371 32.4716 15.4849C32.4406 15.5988 32.3851 15.7045 32.3089 15.7947C32.2328 15.8848 32.1379 15.9573 32.0309 16.007C31.9238 16.0567 31.8072 16.0825 31.6892 16.0824H31.6876ZM27.7146 12.3746C27.8459 12.3747 27.9752 12.4064 28.0916 12.467L30.6052 13.7895L30.1251 10.9889C30.1029 10.8594 30.1124 10.7264 30.153 10.6014C30.1935 10.4764 30.2638 10.3632 30.3579 10.2714L32.393 8.28813L29.5803 7.88272C29.4501 7.86375 29.3265 7.81338 29.2201 7.73597C29.1138 7.65856 29.0278 7.55643 28.9697 7.4384L27.713 4.89083L26.4611 7.43515C26.403 7.55319 26.3171 7.65532 26.2107 7.73273C26.1043 7.81014 25.9807 7.8605 25.8506 7.87948L23.0379 8.28488L25.073 10.2681C25.1672 10.3598 25.2376 10.4731 25.2783 10.5981C25.319 10.7231 25.3287 10.8561 25.3065 10.9857L24.8257 13.7862L27.3392 12.4638C27.4567 12.4039 27.5868 12.3733 27.7187 12.3746H27.7146Z" fill="white"/>
</svg>
