<svg width="22" height="19" viewBox="0 0 22 19" fill="none" xmlns="http://www.w3.org/2000/svg">
<g clip-path="url(#clip0_32155_1797)">
<path d="M9.61969 16.1393H3.28781C2.57488 16.1393 1.99531 15.5563 1.99531 14.8399V6.55901H18.3991V7.22932C18.3991 7.57101 18.6761 7.84807 19.0178 7.84807C19.3595 7.84807 19.6366 7.57101 19.6366 7.22932V3.5512C19.6366 2.15626 18.5015 1.02051 17.1059 1.02051H3.28781C1.89288 1.02051 0.757812 2.15626 0.757812 3.5512V14.8399C0.757812 16.239 1.89288 17.3768 3.2885 17.3768H9.62037C9.96206 17.3768 10.2391 17.0998 10.2391 16.7581C10.2391 16.4164 9.96137 16.1393 9.61969 16.1393ZM3.28781 2.2587H17.1066C17.8195 2.2587 18.3991 2.83826 18.3991 3.5512V5.32082H1.99531V3.5512C1.99531 2.83826 2.57488 2.2587 3.28781 2.2587Z" fill="black"/>
<path d="M4.07575 4.33216C4.37647 4.33216 4.62025 4.08838 4.62025 3.78766C4.62025 3.48695 4.37647 3.24316 4.07575 3.24316C3.77503 3.24316 3.53125 3.48695 3.53125 3.78766C3.53125 4.08838 3.77503 4.33216 4.07575 4.33216Z" fill="black"/>
<path d="M5.99762 4.33216C6.29834 4.33216 6.54212 4.08838 6.54212 3.78766C6.54212 3.48695 6.29834 3.24316 5.99762 3.24316C5.69691 3.24316 5.45312 3.48695 5.45312 3.78766C5.45312 4.08838 5.69691 4.33216 5.99762 4.33216Z" fill="black"/>
<path d="M7.9195 4.33216C8.22022 4.33216 8.464 4.08838 8.464 3.78766C8.464 3.48695 8.22022 3.24316 7.9195 3.24316C7.61878 3.24316 7.375 3.48695 7.375 3.78766C7.375 4.08838 7.61878 4.33216 7.9195 4.33216Z" fill="black"/>
<path d="M20.5909 9.67224C19.7439 8.82387 18.2651 8.82455 17.4181 9.67155L11.9325 15.1571C11.7558 15.3345 11.6403 15.5579 11.5984 15.8054L11.298 17.5833C11.2333 17.9656 11.3585 18.3574 11.6321 18.6304C11.8583 18.8566 12.1642 18.9817 12.4791 18.9817C12.5458 18.9817 12.6118 18.9755 12.6778 18.9652L14.4577 18.6647C14.7052 18.6221 14.93 18.5066 15.1047 18.3306L20.5902 12.8451C21.0137 12.4216 21.2468 11.8571 21.2468 11.2583C21.2468 10.6595 21.0151 10.0964 20.5909 9.67224ZM14.2522 17.4444L12.519 17.7896L12.8084 16.0323L16.7402 12.1005L18.164 13.5243L14.2522 17.4444ZM19.7157 11.9692L19.0385 12.6477L17.6154 11.2246L18.294 10.5461C18.4837 10.3563 18.7367 10.2511 19.0048 10.2511C19.273 10.2511 19.526 10.3556 19.7157 10.5461C20.1076 10.9386 20.1076 11.5773 19.7157 11.9692Z" fill="black"/>
</g>
<defs>
<clipPath id="clip0_32155_1797">
<rect width="22" height="19" fill="white"/>
</clipPath>
</defs>
</svg>
