<svg width="36" height="30" viewBox="0 0 36 30" fill="none" xmlns="http://www.w3.org/2000/svg">
<path fill-rule="evenodd" clip-rule="evenodd" d="M13.2572 5.52C15.3872 3.64167 18.1838 2.5 21.2455 2.5C27.9138 2.5 33.3288 7.915 33.3288 14.5833C33.3288 21.2517 27.9138 26.6667 21.2455 26.6667C18.1838 26.6667 15.3872 25.525 13.2572 23.6467C12.7405 23.19 11.9488 23.2383 11.4922 23.7567C11.0355 24.2733 11.0855 25.0633 11.6022 25.52C14.1738 27.79 17.5505 29.1667 21.2455 29.1667C29.2938 29.1667 35.8288 22.6317 35.8288 14.5833C35.8288 6.535 29.2938 0 21.2455 0C17.5505 0 14.1738 1.37667 11.6022 3.64667C11.0855 4.10333 11.0355 4.89333 11.4922 5.41C11.9488 5.92833 12.7405 5.97667 13.2572 5.52Z" fill="white"/>
<path fill-rule="evenodd" clip-rule="evenodd" d="M19.3359 7.25V13.9167C19.3359 14.2483 19.4676 14.5667 19.7026 14.8L25.0359 20.1333C25.5226 20.6217 26.3159 20.6217 26.8026 20.1333C27.2909 19.6467 27.2909 18.8533 26.8026 18.3667L21.8359 13.3983V7.25C21.8359 6.56 21.2759 6 20.5859 6C19.8959 6 19.3359 6.56 19.3359 7.25Z" fill="white"/>
<path fill-rule="evenodd" clip-rule="evenodd" d="M1.25 10H11.25C11.94 10 12.5 9.44 12.5 8.75C12.5 8.06 11.94 7.5 11.25 7.5H1.25C0.56 7.5 0 8.06 0 8.75C0 9.44 0.56 10 1.25 10Z" fill="white"/>
<path fill-rule="evenodd" clip-rule="evenodd" d="M2.92188 15.8335H12.9219C13.6119 15.8335 14.1719 15.2735 14.1719 14.5835C14.1719 13.8935 13.6119 13.3335 12.9219 13.3335H2.92188C2.23188 13.3335 1.67188 13.8935 1.67188 14.5835C1.67188 15.2735 2.23188 15.8335 2.92188 15.8335Z" fill="white"/>
<path fill-rule="evenodd" clip-rule="evenodd" d="M4.57812 21.6665H14.5781C15.2681 21.6665 15.8281 21.1065 15.8281 20.4165C15.8281 19.7265 15.2681 19.1665 14.5781 19.1665H4.57812C3.88813 19.1665 3.32812 19.7265 3.32812 20.4165C3.32812 21.1065 3.88813 21.6665 4.57812 21.6665Z" fill="white"/>
</svg>
