<svg width="48" height="48" viewBox="0 0 48 48" fill="none" xmlns="http://www.w3.org/2000/svg">
<path d="M22.4493 36.4996H17.8186C16.7285 36.503 15.6841 36.9255 14.9132 37.6747C14.1424 38.4239 13.7078 39.439 13.7042 40.4985V41.0003H11.6459C11.2376 41.0031 10.8468 41.1619 10.5579 41.4423C10.269 41.7227 10.1051 42.1023 10.1016 42.4991C10.1016 43.3194 10.8019 44 11.6459 44H36.3369C36.7458 43.9978 37.1372 43.8389 37.4263 43.5579C37.7154 43.2769 37.8789 42.8965 37.8812 42.4991C37.8783 42.1019 37.7147 41.7218 37.4257 41.4409C37.1367 41.16 36.7456 41.001 36.3369 40.9981H34.2786V40.4985C34.275 39.439 33.8404 38.4239 33.0696 37.6747C32.2987 36.9255 31.2543 36.503 30.1642 36.4996H25.5335V31.9182C25.0216 31.9755 24.5066 32.0024 23.9914 31.9989C23.4751 31.9989 22.9634 31.9792 22.4471 31.9203L22.4493 36.4996Z" fill="#3D3F7F"/>
<path d="M37.3332 23.2791C38.6476 22.7789 39.8391 22.0155 40.8303 21.0386C42.745 18.9791 43.9997 16.5182 43.9997 13.6385C44.0066 12.9617 43.8746 12.2904 43.6112 11.6639C43.3479 11.0374 42.9585 10.4682 42.4661 9.98979C41.9736 9.51133 41.3878 9.13319 40.7431 8.8775C40.0984 8.62181 39.4077 8.49371 38.7114 8.50071H37.5599C36.8869 7.15304 35.8376 6.01643 34.5318 5.22061C33.226 4.42479 31.7163 4.00182 30.175 4H17.8295C16.2874 4.00101 14.7768 4.42358 13.4701 5.21945C12.1634 6.01532 11.1134 7.15238 10.4401 8.50071H9.28861C8.59251 8.49372 7.90197 8.62174 7.2574 8.8773C6.61282 9.13285 6.02717 9.5108 5.53472 9.98903C5.04227 10.4672 4.65291 11.0361 4.38943 11.6624C4.12594 12.2887 3.99363 12.9597 4.00024 13.6363C4.00024 16.516 5.25723 18.9769 7.16967 21.0364C8.11466 21.957 9.30881 22.7751 10.6668 23.2769C11.742 25.8564 13.5858 28.0648 15.9615 29.6185C18.3372 31.1723 21.1365 32.0005 24 31.9969C26.8632 32.0007 29.6623 31.1728 32.038 29.6194C34.4137 28.0661 36.2577 25.8582 37.3332 23.2791ZM29.8428 16.8978L28.5678 18.4184C28.347 18.6917 28.2304 19.0309 28.2379 19.3783L28.3613 21.3396C28.4444 22.5395 27.56 23.1591 26.4085 22.7184L24.5342 21.9985C24.1854 21.8988 23.8145 21.8988 23.4658 21.9985L21.5937 22.7184C20.44 23.1591 19.5556 22.5395 19.6387 21.3374L19.7621 19.3783C19.7696 19.0309 19.653 18.6917 19.4321 18.4184L18.1572 16.8978C17.3536 15.9794 17.7038 14.9583 18.8979 14.6595L20.8508 14.1795C21.1951 14.0698 21.492 13.8518 21.6947 13.5599L22.7856 11.9193C23.4658 10.9005 24.5365 10.9005 25.2143 11.9193L26.3052 13.5599C26.508 13.8518 26.8049 14.0698 27.1492 14.1795L29.1021 14.6595C30.2962 14.9583 30.6464 15.9794 29.8428 16.9V16.8978Z" fill="#3D3F7F"/>
</svg>
