<svg width="32" height="32" viewBox="0 0 32 32" fill="none" xmlns="http://www.w3.org/2000/svg">
<g clip-path="url(#clip0_32155_2569)">
<path d="M16.0022 22.5625C13.5442 22.5625 11.3137 21.4769 9.55197 19.4229C8.25528 17.9112 7.66572 16.4002 7.64128 16.3366L7.51172 16L7.64122 15.6634C7.66572 15.5998 8.25522 14.0887 9.55191 12.5771C11.3137 10.5231 13.5442 9.4375 16.0022 9.4375C18.4601 9.4375 20.6906 10.5231 22.4523 12.5771C23.749 14.0887 24.3386 15.5998 24.363 15.6634L24.4925 16L24.363 16.3366C24.3385 16.4002 23.749 17.9112 22.4523 19.4229C20.6906 21.4769 18.4601 22.5625 16.0022 22.5625ZM9.54166 16.0001C9.76678 16.4703 10.2482 17.3652 11.0114 18.2442C12.4191 19.8655 14.0982 20.6875 16.0022 20.6875C17.9061 20.6875 19.5852 19.8655 20.993 18.2442C21.7559 17.3654 22.2372 16.4711 22.4627 16C22.2372 15.5289 21.7559 14.6345 20.993 13.7558C19.5852 12.1345 17.9061 11.3125 16.0022 11.3125C14.0982 11.3125 12.4191 12.1345 11.0113 13.7558C10.2484 14.6345 9.76709 15.529 9.54166 16.0001Z" fill="white"/>
<path d="M15.0625 0H16.9375V5.625H15.0625V0Z" fill="white"/>
<path d="M26.375 15.0625H32V16.9375H26.375V15.0625Z" fill="white"/>
<path d="M15.0625 26.375H16.9375V32H15.0625V26.375Z" fill="white"/>
<path d="M0 15.0625H5.625V16.9375H0V15.0625Z" fill="white"/>
<path d="M16 18.8125C14.4492 18.8125 13.1875 17.5508 13.1875 16C13.1875 14.4492 14.4492 13.1875 16 13.1875C17.5508 13.1875 18.8125 14.4492 18.8125 16C18.8125 17.5508 17.5508 18.8125 16 18.8125ZM16 15.0625C15.4831 15.0625 15.0625 15.4831 15.0625 16C15.0625 16.5169 15.4831 16.9375 16 16.9375C16.5169 16.9375 16.9375 16.5169 16.9375 16C16.9375 15.4831 16.5169 15.0625 16 15.0625Z" fill="white"/>
<path d="M27.7483 12.5161C27.1725 10.5715 26.1055 8.78085 24.6626 7.33791C23.2196 5.89497 21.4291 4.82797 19.4844 4.25222L20.0166 2.45435C22.2601 3.11853 24.3252 4.34878 25.9884 6.01203C27.6517 7.67528 28.8819 9.74028 29.5461 11.9838L27.7483 12.5161Z" fill="white"/>
<path d="M20.0166 29.5454L19.4844 27.7475C21.429 27.1718 23.2196 26.1048 24.6625 24.6618C26.1054 23.2189 27.1724 21.4283 27.7482 19.4836L29.5461 20.0159C28.8819 22.2594 27.6516 24.3244 25.9884 25.9877C24.3251 27.651 22.2601 28.8813 20.0166 29.5454Z" fill="white"/>
<path d="M11.9826 29.5455C9.73913 28.8813 7.67413 27.651 6.01088 25.9878C4.34763 24.3245 3.11738 22.2595 2.45312 20.016L4.251 19.4836C4.82675 21.4283 5.89375 23.219 7.33669 24.6619C8.77963 26.1048 10.5702 27.1718 12.5149 27.7476L11.9826 29.5455Z" fill="white"/>
<path d="M4.251 12.5161L2.45312 11.9838C3.11731 9.74035 4.34756 7.67535 6.01081 6.0121C7.67413 4.34878 9.73913 3.11853 11.9826 2.45435L12.5149 4.25222C10.5703 4.82797 8.77963 5.89497 7.33669 7.33791C5.89375 8.78085 4.82675 10.5715 4.251 12.5161Z" fill="white"/>
</g>
<defs>
<clipPath id="clip0_32155_2569">
<rect width="32" height="32" fill="white"/>
</clipPath>
</defs>
</svg>
