<svg width="35" height="35" viewBox="0 0 35 35" fill="none" xmlns="http://www.w3.org/2000/svg">
<path d="M20 0C16.2857 0 12.7143 1.71429 10.2857 4.42857C9.71429 4.28571 9.14286 4.28571 8.57143 4.28571C3.85714 4.28571 0 8.14286 0 12.8571C0 17.5714 3.85714 21.4286 8.57143 21.4286C9.14286 21.4286 9.71429 21.4286 10.2857 21.2857C12.7143 24.1429 16.2857 25.7143 20 25.7143C20.5714 25.7143 21 25.7143 21.5714 25.5714C22.2857 25.4286 22.8571 24.7143 22.8571 24C22.7143 23.2857 22 22.7143 21.2857 22.7143C20.8571 22.8571 20.4286 22.8571 20 22.8571C17.4286 22.8571 15 21.8571 13.1429 20.1429C15.5714 18.5714 17.1429 15.8571 17.1429 12.8571C17.1429 9.85714 15.5714 7.14286 13.1429 5.57143C15 3.85714 17.4286 2.85714 20 2.85714C25.5714 2.85714 30 7.28571 30 12.8571C30 15.8571 28.7143 18.5714 26.4286 20.5714C25.8571 21.1429 25.7143 22 26.2857 22.5714C26.5714 22.8571 27 23.1429 27.4286 23.1429C27.7143 23.1429 28.1429 23 28.2857 22.8571C31.2857 20.4286 32.8571 16.8571 32.8571 13C32.8571 5.71429 27.1429 0 20 0ZM8.57143 18.5714C5.42857 18.5714 2.85714 16 2.85714 12.8571C2.85714 9.71428 5.42857 7.14286 8.57143 7.14286C11.7143 7.14286 14.2857 9.71428 14.2857 12.8571C14.2857 16 11.7143 18.5714 8.57143 18.5714Z" fill="#3D3F7F"/>
<path d="M21.4286 34.2858C21.2857 34.2858 21 34.2858 20.8571 34.143C20.2857 34.0001 20 33.4287 20 32.8572V15.7144C20 15.143 20.2857 14.5715 20.8571 14.4287C21.4286 14.143 22 14.2858 22.4286 14.7144L33.8571 26.143C34.2857 26.5715 34.4286 27.143 34.1429 27.7144C33.8571 28.2858 33.4286 28.5715 32.8571 28.5715H27.7143L22.4286 33.8572C22.1429 34.143 21.8571 34.2858 21.4286 34.2858ZM22.8571 19.143V29.4287L26.1429 26.143C26.4286 25.8572 26.7143 25.7144 27.1429 25.7144H29.4286L22.8571 19.143Z" fill="#3D3F7F"/>
</svg>
