<svg width="34" height="39" viewBox="0 0 34 39" fill="none" xmlns="http://www.w3.org/2000/svg">
<path fill-rule="evenodd" clip-rule="evenodd" d="M32.1073 28.2281C30.0069 30.1949 26.8369 32.8899 24.2385 34.5556C22.3127 35.7898 20.2688 36.9529 18.3703 37.1055C16.8013 37.2318 15.0868 36.6278 13.4531 36.394C10.9384 36.036 8.28592 36.0674 5.72064 36.0973H5.6671V30.2758C6.61422 30.0558 7.564 29.8444 8.51359 29.5883C9.25177 29.3892 9.8932 29.072 10.5138 28.7646C11.635 28.2085 12.6033 27.7284 13.8678 28.1045L18.967 29.6242C19.479 29.7777 19.7702 30.3131 19.6159 30.8196C19.4482 31.3698 18.8558 31.5522 18.3578 31.4488C17.3192 31.232 15.9692 30.8796 15.0039 30.7887C14.5762 30.7486 14.1481 30.7603 13.6952 30.8246C13.3743 30.8702 13.1515 31.1644 13.1981 31.4816C13.2443 31.7994 13.5419 32.02 13.8634 31.9744C14.2221 31.9234 14.5589 31.9141 14.8928 31.945C15.7797 32.0276 17.1297 32.3832 18.1163 32.5854C19.1044 32.788 20.1074 32.3914 20.5773 31.5385C21.2168 31.4768 21.8349 31.3497 22.4183 31.156C24.6466 30.4181 28.1116 28.4712 31.0571 26.8291C31.4162 26.6295 31.8498 26.7089 32.1123 27.0242L32.1778 27.1031C32.4561 27.4372 32.4248 27.9304 32.1073 28.2281ZM4.49231 36.8927C4.49231 37.0437 4.36285 37.1717 4.21001 37.1717H3.01996C2.86721 37.1717 2.73766 37.0438 2.73766 36.8927V29.6359C2.73766 29.4839 2.86712 29.3569 3.01996 29.3569H4.2101C4.36285 29.3569 4.4924 29.4838 4.4924 29.6359L4.49231 36.8927ZM14.475 15.1287C14.7023 15.3553 15.076 15.3559 15.3054 15.1287C15.5351 14.9017 15.5351 14.5339 15.3054 14.3079L14.3128 13.3266C15.3025 12.9218 16.4122 13.6428 16.4122 14.7182C16.4122 15.5474 15.7292 16.2226 14.8903 16.2226C13.8074 16.2226 13.0723 15.1333 13.4824 14.1474L14.475 15.1287ZM12.6142 13.2894L10.7618 11.4594C10.038 12.3533 9.60341 13.486 9.60341 14.7183C9.60341 17.5996 11.9747 19.944 14.8902 19.944C17.8052 19.944 20.177 17.5996 20.177 14.7183C20.177 11.8365 17.8052 9.49253 14.8902 9.49253C13.6435 9.49253 12.4976 9.92211 11.5932 10.638L13.4446 12.4685C15.2305 11.3455 17.5874 12.6156 17.5874 14.7183C17.5874 16.1879 16.377 17.3844 14.8902 17.3844C12.7605 17.3844 11.4788 15.0511 12.6142 13.2894ZM5.11885 14.7183C5.11885 19.1742 8.24618 23.0754 12.5993 24.1096C12.886 23.8909 13.2571 23.7581 13.6633 23.7581H17.2749V22.2345C17.2749 21.4348 18.013 20.7841 18.9204 20.7841H22.532V18.7197C22.532 17.9734 23.2542 17.3883 24.1774 17.3883H24.2831C26.0656 11.2412 21.3965 5.05974 14.8903 5.05974C12.4074 5.05974 10.1378 5.98058 8.41245 7.49382L10.7575 9.81221C11.8786 8.8874 13.3193 8.33085 14.8904 8.33085C18.4532 8.33085 21.3523 11.196 21.3523 14.7182C21.3523 18.2404 18.4532 21.1056 14.8904 21.1056C11.327 21.1056 8.42835 18.2404 8.42835 14.7182C8.42835 13.1652 8.9924 11.7412 9.92701 10.633L7.58154 8.31505C6.05054 10.0206 5.11885 12.264 5.11885 14.7183ZM1.86755 4.16925L3.51604 3.98882C3.78939 3.95839 4.00472 3.74563 4.03542 3.47544L4.21796 1.84598L6.08078 3.68729L5.84617 5.77821L3.73083 6.01065L1.86755 4.16925ZM17.2749 27.9074V24.9197H13.6633C13.3945 24.9197 13.193 25.0829 13.193 25.229V26.8129C13.514 26.8305 13.8514 26.8865 14.207 26.9923L17.2749 27.9074ZM19.3064 28.512C20.1636 28.7674 20.7411 29.5094 20.8224 30.3405C21.4617 30.2479 21.9435 30.104 22.532 29.881V21.9456H18.9204C18.6555 21.9456 18.4501 22.1005 18.4501 22.2344V28.257L19.3064 28.512ZM27.7889 18.7259C27.7646 18.6725 27.5978 18.5498 27.3181 18.5498H24.1773C23.8976 18.5498 23.7309 18.6725 23.707 18.7259V29.3887C24.9338 28.8342 26.3551 28.0893 27.7888 27.3071V18.7259H27.7889ZM33.0852 26.3647L33.0192 26.2858C32.3991 25.5404 31.3311 25.3438 30.4802 25.817L28.9642 26.6605V18.7196C28.9642 17.9733 28.2409 17.3882 27.3182 17.3882H25.5C27.2479 10.5544 22.0249 3.89806 14.8903 3.89806C12.0829 3.89806 9.51964 4.9484 7.58044 6.6715L6.99309 6.09093L7.27978 3.53811C7.29915 3.3621 7.23711 3.188 7.11113 3.06292L4.18425 0.169831C3.83708 -0.173328 3.23868 0.0343732 3.18514 0.516962L2.91873 2.88493L0.523108 3.14826C0.0354313 3.20109 -0.176066 3.79195 0.172379 4.13583L3.09926 7.02893C3.22835 7.15689 3.3991 7.21342 3.57945 7.19563L6.16254 6.91225L6.74889 7.49282C3.15271 11.4482 2.97858 17.4423 6.43489 21.5911C7.88047 23.326 9.84542 24.5778 12.0218 25.1619C12.0203 25.1845 12.0179 25.2071 12.0179 25.2291V26.9155C10.6396 27.2263 9.52731 28.1116 8.20498 28.4679C7.33998 28.7011 6.45535 28.8965 5.56377 29.1068C5.34999 28.5733 4.82413 28.1953 4.21001 28.1953H3.01996C2.21682 28.1953 1.56296 28.841 1.56296 29.6359V36.8927C1.56296 37.6876 2.21682 38.3333 3.01996 38.3333H4.2101C4.88479 38.3333 5.45277 37.8768 5.61704 37.26C8.20982 37.2382 10.7788 37.1859 13.286 37.5439C15.015 37.7907 16.6516 38.4077 18.4661 38.2637C20.6236 38.0901 22.8228 36.8471 24.878 35.5305C28.2325 33.3808 31.8788 30.0429 32.9161 29.071C33.6799 28.3566 33.7538 27.1674 33.0852 26.3647Z" fill="#051229"/>
</svg>
