<svg width="24" height="24" viewBox="0 0 24 24" fill="none" xmlns="http://www.w3.org/2000/svg">
<path d="M4.78185 2.39183C5.44234 2.39183 5.97777 1.8564 5.97777 1.19592C5.97777 0.53543 5.44234 0 4.78185 0C4.12137 0 3.58594 0.53543 3.58594 1.19592C3.58594 1.8564 4.12137 2.39183 4.78185 2.39183Z" fill="white"/>
<path d="M8.40685 6.01585C9.06734 6.01585 9.60277 5.48042 9.60277 4.81994C9.60277 4.15945 9.06734 3.62402 8.40685 3.62402C7.74637 3.62402 7.21094 4.15945 7.21094 4.81994C7.21094 5.48042 7.74637 6.01585 8.40685 6.01585Z" fill="white"/>
<path d="M8.40685 2.39183C9.06734 2.39183 9.60277 1.8564 9.60277 1.19592C9.60277 0.53543 9.06734 0 8.40685 0C7.74637 0 7.21094 0.53543 7.21094 1.19592C7.21094 1.8564 7.74637 2.39183 8.40685 2.39183Z" fill="white"/>
<path d="M11.9615 6.01585C12.622 6.01585 13.1575 5.48042 13.1575 4.81994C13.1575 4.15945 12.622 3.62402 11.9615 3.62402C11.3011 3.62402 10.7656 4.15945 10.7656 4.81994C10.7656 5.48042 11.3011 6.01585 11.9615 6.01585Z" fill="white"/>
<path d="M11.9615 9.56712C12.622 9.56712 13.1575 9.03169 13.1575 8.37121C13.1575 7.71072 12.622 7.17529 11.9615 7.17529C11.3011 7.17529 10.7656 7.71072 10.7656 8.37121C10.7656 9.03169 11.3011 9.56712 11.9615 9.56712Z" fill="white"/>
<path d="M11.9615 2.39183C12.622 2.39183 13.1575 1.8564 13.1575 1.19592C13.1575 0.53543 12.622 0 11.9615 0C11.3011 0 10.7656 0.53543 10.7656 1.19592C10.7656 1.8564 11.3011 2.39183 11.9615 2.39183Z" fill="white"/>
<path d="M15.5084 6.01585C16.1689 6.01585 16.7043 5.48042 16.7043 4.81994C16.7043 4.15945 16.1689 3.62402 15.5084 3.62402C14.8479 3.62402 14.3125 4.15945 14.3125 4.81994C14.3125 5.48042 14.8479 6.01585 15.5084 6.01585Z" fill="white"/>
<path d="M15.5084 9.56712C16.1689 9.56712 16.7043 9.03169 16.7043 8.37121C16.7043 7.71072 16.1689 7.17529 15.5084 7.17529C14.8479 7.17529 14.3125 7.71072 14.3125 8.37121C14.3125 9.03169 14.8479 9.56712 15.5084 9.56712Z" fill="white"/>
<path d="M15.5084 13.1189C16.1689 13.1189 16.7043 12.5835 16.7043 11.923C16.7043 11.2625 16.1689 10.7271 15.5084 10.7271C14.8479 10.7271 14.3125 11.2625 14.3125 11.923C14.3125 12.5835 14.8479 13.1189 15.5084 13.1189Z" fill="white"/>
<path d="M11.9616 16.7431C12.6222 16.7431 13.1576 16.2076 13.1576 15.5471C13.1576 14.8865 12.6222 14.3511 11.9616 14.3511C11.3011 14.3511 10.7656 14.8865 10.7656 15.5471C10.7656 16.2076 11.3011 16.7431 11.9616 16.7431Z" fill="white"/>
<path d="M15.5085 16.7431C16.169 16.7431 16.7045 16.2076 16.7045 15.5471C16.7045 14.8865 16.169 14.3511 15.5085 14.3511C14.848 14.3511 14.3125 14.8865 14.3125 15.5471C14.3125 16.2076 14.848 16.7431 15.5085 16.7431Z" fill="white"/>
<path d="M8.40685 20.2991C9.06734 20.2991 9.60277 19.7636 9.60277 19.1031C9.60277 18.4427 9.06734 17.9072 8.40685 17.9072C7.74637 17.9072 7.21094 18.4427 7.21094 19.1031C7.21094 19.7636 7.74637 20.2991 8.40685 20.2991Z" fill="white"/>
<path d="M11.9615 20.2991C12.622 20.2991 13.1575 19.7636 13.1575 19.1031C13.1575 18.4427 12.622 17.9072 11.9615 17.9072C11.3011 17.9072 10.7656 18.4427 10.7656 19.1031C10.7656 19.7636 11.3011 20.2991 11.9615 20.2991Z" fill="white"/>
<path d="M15.5084 20.2991C16.1689 20.2991 16.7043 19.7636 16.7043 19.1031C16.7043 18.4427 16.1689 17.9072 15.5084 17.9072C14.8479 17.9072 14.3125 18.4427 14.3125 19.1031C14.3125 19.7636 14.8479 20.2991 15.5084 20.2991Z" fill="white"/>
<path d="M19.2115 9.56712C19.872 9.56712 20.4075 9.03169 20.4075 8.37121C20.4075 7.71072 19.872 7.17529 19.2115 7.17529C18.5511 7.17529 18.0156 7.71072 18.0156 8.37121C18.0156 9.03169 18.5511 9.56712 19.2115 9.56712Z" fill="white"/>
<path d="M19.2115 13.1189C19.872 13.1189 20.4075 12.5835 20.4075 11.923C20.4075 11.2625 19.872 10.7271 19.2115 10.7271C18.5511 10.7271 18.0156 11.2625 18.0156 11.923C18.0156 12.5835 18.5511 13.1189 19.2115 13.1189Z" fill="white"/>
<path d="M19.2116 16.7431C19.8722 16.7431 20.4076 16.2076 20.4076 15.5471C20.4076 14.8865 19.8722 14.3511 19.2116 14.3511C18.5511 14.3511 18.0156 14.8865 18.0156 15.5471C18.0156 16.2076 18.5511 16.7431 19.2116 16.7431Z" fill="white"/>
<path d="M4.78193 23.9999C5.44246 23.9999 5.97793 23.4644 5.97793 22.8039C5.97793 22.1434 5.44246 21.6079 4.78193 21.6079C4.1214 21.6079 3.58594 22.1434 3.58594 22.8039C3.58594 23.4644 4.1214 23.9999 4.78193 23.9999Z" fill="white"/>
<path d="M8.40693 23.9999C9.06746 23.9999 9.60293 23.4644 9.60293 22.8039C9.60293 22.1434 9.06746 21.6079 8.40693 21.6079C7.7464 21.6079 7.21094 22.1434 7.21094 22.8039C7.21094 23.4644 7.7464 23.9999 8.40693 23.9999Z" fill="white"/>
<path d="M11.9616 23.9999C12.6222 23.9999 13.1576 23.4644 13.1576 22.8039C13.1576 22.1434 12.6222 21.6079 11.9616 21.6079C11.3011 21.6079 10.7656 22.1434 10.7656 22.8039C10.7656 23.4644 11.3011 23.9999 11.9616 23.9999Z" fill="white"/>
<path d="M22.7662 13.1189C23.4267 13.1189 23.9621 12.5835 23.9621 11.923C23.9621 11.2625 23.4267 10.7271 22.7662 10.7271C22.1057 10.7271 21.5703 11.2625 21.5703 11.923C21.5703 12.5835 22.1057 13.1189 22.7662 13.1189Z" fill="white"/>
</svg>
