<svg width="46" height="44" viewBox="0 0 46 44" fill="none" xmlns="http://www.w3.org/2000/svg">
<g clip-path="url(#clip0_32031_4001)">
<path d="M41.016 15.2711H28.4596V7.61313C28.4596 5.85922 27.767 4.17714 26.5342 2.93694C25.3013 1.69674 23.6292 1 21.8856 1C21.5369 1 21.2025 1.13935 20.9559 1.38739C20.7093 1.63543 20.5708 1.97184 20.5708 2.32263V6.62777C20.5723 8.04204 20.2808 9.44111 19.7149 10.7357C19.1489 12.0304 18.321 13.1921 17.2838 14.1469L14.1743 16.9906V16.0647C14.1743 15.0001 13.7539 13.9791 13.0055 13.2263C12.2572 12.4735 11.2422 12.0505 10.1839 12.0505H4.997C3.93807 12.0505 2.92241 12.4732 2.17302 13.2259C1.42362 13.9785 1.00174 14.9995 1 16.0647V38.9858C1.00174 40.0511 1.42362 41.0721 2.17302 41.8247C2.92241 42.5773 3.93807 43 4.997 43H10.1773C10.8019 42.9998 11.4177 42.8518 11.975 42.5681C12.5323 42.2843 13.0154 41.8727 13.3854 41.3666H37.4726C38.2241 41.3666 38.9447 41.0663 39.4761 40.5317C40.0075 39.9972 40.306 39.2722 40.306 38.5163V36.1951C40.3024 35.6922 40.1663 35.1993 39.9116 34.7667C40.2855 34.502 40.5902 34.1503 40.7997 33.7415C41.0092 33.3326 41.1172 32.8789 41.1146 32.419V30.316C41.1162 29.9983 41.0628 29.6828 40.9568 29.3836C41.6707 29.3302 42.3383 29.0076 42.8258 28.4804C43.3134 27.9531 43.5851 27.26 43.5864 26.5399V24.2187C43.5839 23.7127 43.4454 23.2168 43.1854 22.7837C43.7077 22.5487 44.1544 22.1715 44.475 21.6948C44.7956 21.218 44.9774 20.6606 44.9998 20.0855V18.4785C45.0196 16.6797 43.2577 15.2711 41.016 15.2711ZM10.1773 41.0624H4.997C4.44543 41.0624 3.91636 40.8424 3.52573 40.4507C3.1351 40.059 2.91478 39.5274 2.91304 38.9726V16.0647C2.91478 15.5099 3.1351 14.9784 3.52573 14.5866C3.91636 14.1949 4.44543 13.975 4.997 13.975H10.1773C10.7289 13.975 11.2579 14.1949 11.6486 14.5866C12.0392 14.9784 12.2595 15.5099 12.2613 16.0647V38.9858C12.2595 39.5407 12.0392 40.0722 11.6486 40.4639C11.2579 40.8556 10.7289 41.0756 10.1773 41.0756V41.0624ZM41.6931 26.5135C41.6931 26.635 41.6693 26.7554 41.6231 26.8678C41.5768 26.9801 41.509 27.0822 41.4235 27.1681C41.3381 27.2541 41.2366 27.3223 41.125 27.3688C41.0133 27.4154 40.8936 27.4393 40.7727 27.4393H34.843C34.603 27.4593 34.3793 27.5694 34.2162 27.7476C34.0531 27.9259 33.9626 28.1593 33.9626 28.4015C33.9626 28.6438 34.0531 28.8772 34.2162 29.0554C34.3793 29.2336 34.603 29.3437 34.843 29.3637H38.2681C38.3889 29.3637 38.5086 29.3877 38.6203 29.4342C38.7319 29.4807 38.8334 29.5489 38.9188 29.6349C39.0043 29.7209 39.0721 29.8229 39.1184 29.9353C39.1646 30.0476 39.1884 30.168 39.1884 30.2896V32.419C39.1893 32.5408 39.1661 32.6616 39.1201 32.7743C39.0742 32.8871 39.0064 32.9895 38.9208 33.0756C38.8352 33.1618 38.7334 33.2299 38.6213 33.2761C38.5092 33.3224 38.3892 33.3457 38.2681 33.3448C38.1647 33.348 38.0626 33.3681 37.9656 33.4043C37.8034 33.3699 37.6384 33.35 37.4726 33.3448H32.7196C32.4796 33.3649 32.2559 33.4749 32.0928 33.6531C31.9297 33.8314 31.8391 34.0648 31.8391 34.307C31.8391 34.5493 31.9297 34.7827 32.0928 34.9609C32.2559 35.1392 32.4796 35.2492 32.7196 35.2692H37.4726C37.7167 35.2692 37.9508 35.3668 38.1234 35.5404C38.296 35.714 38.393 35.9495 38.393 36.1951V38.5163C38.393 38.7618 38.296 38.9973 38.1234 39.171C37.9508 39.3446 37.7167 39.4421 37.4726 39.4421H14.1414C14.1513 39.2902 14.1513 39.1378 14.1414 38.9858V19.5961L18.5395 15.5753C19.7789 14.443 20.7699 13.0629 21.4491 11.5234C22.1283 9.98384 22.4807 8.31871 22.4839 6.63439V2.97071C23.6017 3.11808 24.6284 3.66859 25.3732 4.51999C26.118 5.37139 26.5303 6.46579 26.5334 7.59991V15.8862C26.5299 16.2051 26.641 16.5147 26.8464 16.7577C27.0517 17.0008 27.3375 17.161 27.651 17.2088C27.7144 17.2153 27.7783 17.2153 27.8417 17.2088H40.9897C42.219 17.2088 43.0802 17.8701 43.0802 18.4917V20.0987C43.0802 20.7071 42.219 21.3817 40.9897 21.3817H36.8152C36.5752 21.4017 36.3515 21.5118 36.1884 21.69C36.0253 21.8682 35.9348 22.1016 35.9348 22.3439C35.9348 22.5861 36.0253 22.8195 36.1884 22.9978C36.3515 23.176 36.5752 23.2861 36.8152 23.3061H40.7596C41.0037 23.3061 41.2378 23.4036 41.4104 23.5773C41.583 23.7509 41.68 23.9864 41.68 24.2319L41.6931 26.5135Z" fill="white" stroke="white"/>
</g>
<defs>
<clipPath id="clip0_32031_4001">
<rect width="46" height="44" fill="white"/>
</clipPath>
</defs>
</svg>
