<svg width="36" height="36" viewBox="0 0 36 36" fill="none" xmlns="http://www.w3.org/2000/svg">
<g clip-path="url(#clip0_32006_922)">
<path fill-rule="evenodd" clip-rule="evenodd" d="M9.09118 29.6867C4.44014 28.918 0.898438 24.9734 0.898438 20.2227C0.898438 18.1913 1.54609 16.3072 2.6511 14.7558L2.2224 14.3381C1.82972 13.9555 1.82972 13.3312 2.2224 12.9486L3.2851 11.9132C3.67778 11.5305 4.31842 11.5305 4.71118 11.9132L5.13988 12.3309C6.27334 11.5644 7.57989 11.0237 8.99083 10.7758V10.1411C8.48478 10.1059 8.04851 9.66888 8.04851 9.09892V8.33411C8.04851 7.7394 8.52335 7.28956 9.05685 7.28956H12.4444C12.9779 7.28956 13.4528 7.7394 13.4528 8.33411V9.09892C13.4528 9.66888 13.0165 10.1059 12.5105 10.1411V10.7758C13.9214 11.0237 15.2279 11.5644 16.3614 12.3309L16.7901 11.9132C17.1829 11.5305 17.8235 11.5305 18.2162 11.9132L19.2789 12.9486C19.6716 13.3312 19.6716 13.9555 19.2789 14.3381L18.8502 14.7558C19.9552 16.3072 20.6028 18.1913 20.6028 20.2227C20.6028 21.1237 20.4755 21.9956 20.2373 22.8223H20.8665C21.1792 22.8223 21.4326 23.0693 21.4326 23.3739V34.5484C21.4326 34.853 21.1792 35.1 20.8665 35.1H16.9453C16.6327 35.1 16.3792 34.853 16.3792 34.5484V28.1025C15.6944 28.5677 14.9462 28.9504 14.1498 29.2356V34.5484C14.1498 34.853 13.8963 35.1 13.5836 35.1H9.6573C9.34466 35.1 9.09118 34.853 9.09118 34.5484V29.6867ZM3.35438 13.8809C3.63114 13.5746 3.92765 13.2858 4.24193 13.0161L3.99814 12.7786L3.11066 13.6433L3.35438 13.8809ZM10.1231 10.6423C10.3306 10.6296 10.5398 10.6232 10.7506 10.6232C10.9615 10.6232 11.1707 10.6296 11.3782 10.6423V10.1435H10.1231V10.6423ZM17.2594 13.0161C17.5736 13.2858 17.8701 13.5746 18.1468 13.8809L18.3906 13.6433L17.5031 12.7786L17.2594 13.0161ZM19.8432 23.9255C19.3067 25.1748 18.5069 26.29 17.5114 27.2053V33.9968H20.3004V23.9255H19.8432ZM13.0175 29.5669C12.2897 29.7339 11.5308 29.8223 10.7506 29.8223C10.5738 29.8223 10.398 29.8177 10.2234 29.8087V33.9968H13.0175V29.5669ZM10.7506 11.7264C5.93472 11.7264 2.0307 15.5303 2.0307 20.2227C2.0307 24.9151 5.93472 28.719 10.7506 28.719C15.5665 28.719 19.4706 24.9151 19.4706 20.2227C19.4706 15.5303 15.5665 11.7264 10.7506 11.7264ZM10.7506 12.5973C15.0728 12.5973 18.5767 16.0114 18.5767 20.2227C18.5767 24.434 15.0728 27.8482 10.7506 27.8482C6.42846 27.8482 2.92447 24.434 2.92447 20.2227C2.92447 16.0114 6.42846 12.5973 10.7506 12.5973ZM10.7506 13.7005C7.05382 13.7005 4.05673 16.6206 4.05673 20.2227C4.05673 23.8248 7.05382 26.7449 10.7506 26.7449C14.4475 26.7449 17.4445 23.8248 17.4445 20.2227C17.4445 16.6206 14.4475 13.7005 10.7506 13.7005ZM12.206 20.7744C11.9794 21.3418 11.4132 21.744 10.7506 21.744C9.88836 21.744 9.1894 21.0629 9.1894 20.2227C9.1894 19.5772 9.60211 19.0255 10.1845 18.8046V16.9083C10.1845 16.6039 10.4382 16.3567 10.7506 16.3567C11.0631 16.3567 11.3168 16.6039 11.3168 16.9083V18.8046C11.7236 18.9589 12.0476 19.2747 12.206 19.6711H14.1523C14.4647 19.6711 14.7184 19.9183 14.7184 20.2227C14.7184 20.5272 14.4647 20.7744 14.1523 20.7744H12.206ZM10.7506 19.8047C10.5137 19.8047 10.3217 19.9918 10.3217 20.2227C10.3217 20.4536 10.5137 20.6407 10.7506 20.6407C10.9876 20.6407 11.1796 20.4535 11.1796 20.2227C11.1796 19.9919 10.9876 19.8047 10.7506 19.8047ZM15.2383 23.8152C15.4592 24.0305 15.4592 24.38 15.2383 24.5952C15.0173 24.8105 14.6586 24.8105 14.4376 24.5952L13.9946 24.1635C13.7736 23.9483 13.7736 23.5988 13.9946 23.3835C14.2155 23.1682 14.5743 23.1682 14.7952 23.3835L15.2383 23.8152ZM7.06365 24.5952C6.84272 24.8105 6.48394 24.8106 6.26301 24.5952C6.04207 24.38 6.04207 24.0305 6.26301 23.8152L6.70607 23.3835C6.92701 23.1682 7.28572 23.1682 7.50665 23.3835C7.72765 23.5988 7.72765 23.9483 7.50672 24.1635L7.06365 24.5952ZM6.26301 16.6302C6.04207 16.415 6.04207 16.0654 6.26301 15.8501C6.48394 15.6348 6.84272 15.6348 7.06365 15.8502L7.50672 16.2819C7.72765 16.4972 7.72765 16.8467 7.50665 17.0619C7.28572 17.2772 6.92701 17.2772 6.70607 17.0619L6.26301 16.6302ZM4.97032 20.7743C4.65789 20.7743 4.40419 20.5271 4.40419 20.2227C4.40419 19.9183 4.65789 19.6711 4.97032 19.6711H5.59688C5.90932 19.6711 6.16301 19.9183 6.16301 20.2227C6.16301 20.5271 5.90932 20.7743 5.59688 20.7743H4.97032ZM11.3168 25.8548C11.3168 26.1592 11.0631 26.4064 10.7506 26.4064C10.4382 26.4064 10.1845 26.1592 10.1845 25.8548V25.2443C10.1845 24.9399 10.4382 24.6927 10.7506 24.6927C11.0631 24.6927 11.3168 24.9399 11.3168 25.2443V25.8548ZM14.4376 15.8501C14.6586 15.6348 15.0173 15.6348 15.2383 15.8501C15.4592 16.0654 15.4592 16.415 15.2383 16.6302L14.7952 17.0619C14.5743 17.2772 14.2155 17.2772 13.9946 17.0619C13.7736 16.8467 13.7736 16.4972 13.9946 16.2819L14.4376 15.8501ZM16.531 19.6711C16.8434 19.6711 17.0971 19.9183 17.0971 20.2227C17.0971 20.5271 16.8434 20.7743 16.531 20.7743H15.9044C15.592 20.7743 15.3383 20.5271 15.3383 20.2227C15.3383 19.9183 15.592 19.6711 15.9044 19.6711H16.531ZM10.1845 14.5906C10.1845 14.2862 10.4382 14.039 10.7506 14.039C11.0631 14.039 11.3168 14.2862 11.3168 14.5906V15.2011C11.3168 15.5056 11.0631 15.7527 10.7506 15.7527C10.4382 15.7527 10.1845 15.5056 10.1845 15.2011V14.5906ZM9.18069 8.39279V9.04024H12.3205V8.39279H9.18069ZM28.8727 2.09696C29.3483 2.22707 29.8064 2.40807 30.2395 2.63712L31.1188 2.26465C31.33 2.17522 31.5757 2.21928 31.7404 2.37614L33.0826 3.65492C33.2529 3.81709 33.3008 4.06566 33.2025 4.27693C33.2025 4.27693 32.8198 5.10014 32.8198 5.10007C33.0567 5.50909 33.2444 5.94142 33.38 6.39078L34.2705 6.71733C34.4912 6.79821 34.6373 7.0039 34.6373 7.23357V9.04252C34.6373 9.2722 34.4912 9.47788 34.2705 9.55876C34.2705 9.55876 33.3796 9.88545 33.3797 9.88538C33.2439 10.3333 33.0555 10.765 32.8195 11.1735L33.2025 11.9973C33.3008 12.2086 33.2529 12.4572 33.0826 12.6194L31.7404 13.8982C31.5759 14.0548 31.3306 14.099 31.1195 14.0099C31.1195 14.0099 30.2403 13.6389 30.2403 13.6388C29.8078 13.868 29.3486 14.0491 28.8725 14.1793L28.531 15.0247C28.4458 15.2356 28.2368 15.3743 28.0042 15.3743H26.1056C25.8729 15.3743 25.664 15.2356 25.5788 15.0247C25.5788 15.0247 25.2372 14.1793 25.2373 14.1793C24.7604 14.049 24.3018 13.867 23.8685 13.6385L22.9883 14.0099C22.7773 14.099 22.5319 14.0548 22.3675 13.8982L21.0252 12.6194C20.8548 12.457 20.807 12.208 20.9057 11.9966C20.9057 11.9966 21.2896 11.174 21.2896 11.1741C21.053 10.7662 20.8653 10.3338 20.7289 9.88566L19.8373 9.55876C19.6166 9.47788 19.4706 9.2722 19.4706 9.04252V7.23357C19.4706 7.0039 19.6166 6.79821 19.8373 6.71733L20.7287 6.3905C20.8652 5.94135 21.0529 5.5093 21.2897 5.10056L20.9057 4.27769C20.807 4.06628 20.8548 3.8173 21.0252 3.65492L22.3675 2.37614C22.5321 2.21928 22.7778 2.17522 22.989 2.26465C22.989 2.26465 23.8683 2.63712 23.8683 2.63719C24.3016 2.408 24.7599 2.22693 25.2356 2.09682L25.5789 1.24913C25.6643 1.03848 25.8731 0.900024 26.1056 0.900024H28.0042C28.237 0.900024 28.446 1.03882 28.5311 1.24988L28.8727 2.09696ZM27.9247 2.76275L27.6184 2.00325H26.4907L26.1828 2.76351C26.1145 2.93217 25.9656 3.05731 25.7843 3.09834C25.2228 3.22549 24.6873 3.43675 24.195 3.72573C24.0381 3.81785 23.8451 3.83033 23.6771 3.7591L22.8868 3.42434L22.1008 4.17323L22.443 4.90673C22.522 5.07573 22.5082 5.27204 22.4067 5.42911C22.1046 5.89619 21.8836 6.40436 21.749 6.93881C21.7045 7.11553 21.5734 7.2595 21.3986 7.32363L20.6028 7.61536V8.66073L21.3986 8.95254C21.5733 9.01653 21.7043 9.16036 21.7489 9.33687C21.8835 9.86952 22.1042 10.3792 22.4062 10.8444C22.5082 11.0016 22.5221 11.1983 22.443 11.3676L22.1008 12.1011L22.8872 12.8504L23.6778 12.5166C23.8452 12.446 24.0373 12.4583 24.1938 12.5497C24.6863 12.8371 25.2222 13.0505 25.7859 13.1777C25.9674 13.2186 26.1167 13.3441 26.1849 13.5131L26.4911 14.2711H27.6186L27.9248 13.5131C27.993 13.3442 28.1421 13.2189 28.3235 13.1778C28.8848 13.0507 29.4218 12.8396 29.9121 12.5508C30.0689 12.4585 30.2619 12.4457 30.43 12.5166L31.2207 12.8503L32.0075 12.1007L31.6664 11.3669C31.5881 11.1984 31.6015 11.003 31.7023 10.8464C32.0026 10.3794 32.2256 9.87132 32.3585 9.33853C32.4027 9.16125 32.534 9.01673 32.7092 8.95254L33.505 8.66073V7.61536L32.7092 7.32363C32.5339 7.25929 32.4025 7.11463 32.3584 6.93722C32.2256 6.40333 32.0048 5.89571 31.7031 5.42911C31.6017 5.27231 31.5879 5.07629 31.6664 4.90742L32.0075 4.17364L31.221 3.42434L30.4307 3.7591C30.2627 3.83033 30.0697 3.81785 29.9128 3.72573C29.4206 3.43675 28.885 3.22549 28.3235 3.09834C28.142 3.05724 27.9929 2.93175 27.9247 2.76275ZM27.0539 4.43042C29.1999 4.43042 30.9336 6.09256 30.9336 8.13712C30.9336 10.1816 29.1999 11.8457 27.0539 11.8457C24.9079 11.8457 23.1761 10.1817 23.1761 8.13712C23.1761 6.09249 24.9078 4.43042 27.0539 4.43042ZM27.0539 5.53364C25.5403 5.53364 24.3084 6.69513 24.3084 8.13712C24.3084 9.57924 25.5403 10.7425 27.0539 10.7425C28.5676 10.7425 29.8014 9.57931 29.8014 8.13712C29.8014 6.69506 28.5676 5.53364 27.0539 5.53364ZM28.7155 19.36V34.5484C28.7155 34.853 28.4621 35.1 28.1494 35.1H24.2283C23.9156 35.1 23.6621 34.853 23.6621 34.5484V19.36C23.6621 19.0554 23.9156 18.8084 24.2283 18.8084H28.1494C28.4621 18.8084 28.7155 19.0554 28.7155 19.36ZM27.5833 19.9116H24.7944V33.9968H27.5833V19.9116ZM31.5112 15.2009H35.4323C35.745 15.2009 35.9984 15.4478 35.9984 15.7525V34.5484C35.9984 34.853 35.745 35.1 35.4323 35.1H31.5112C31.1984 35.1 30.945 34.853 30.945 34.5484V15.7525C30.945 15.4478 31.1984 15.2009 31.5112 15.2009ZM32.0773 16.3041V33.9968H34.8662V16.3041H32.0773Z" fill="white"/>
</g>
<defs>
<clipPath id="clip0_32006_922">
<rect width="36" height="36" fill="white"/>
</clipPath>
</defs>
</svg>
