<svg width="39" height="39" viewBox="0 0 39 39" fill="none" xmlns="http://www.w3.org/2000/svg">
<path d="M22.3066 25.4755V24.1794C23.2188 23.9315 24.0954 23.5679 24.9152 23.0974L25.8316 24.0138C26.0389 24.2246 26.3162 24.3523 26.6111 24.3731C26.9061 24.3938 27.1984 24.306 27.4332 24.1263C28.4386 23.3677 29.3327 22.472 30.0894 21.4653C30.2685 21.2308 30.3559 20.939 30.3353 20.6446C30.3148 20.3503 30.1876 20.0735 29.9777 19.8661L29.0605 18.9497C29.5313 18.13 29.8949 17.2533 30.1426 16.3411H31.4394C31.7344 16.343 32.02 16.2372 32.2426 16.0436C32.4652 15.85 32.6097 15.5819 32.6488 15.2895C32.8238 14.0415 32.8238 12.7751 32.6488 11.527C32.6097 11.2346 32.4652 10.9665 32.2426 10.773C32.02 10.5794 31.7344 10.4736 31.4394 10.4755H30.1441C29.8965 9.56336 29.5332 8.6867 29.0629 7.86689L29.9793 6.95361C30.1899 6.74594 30.3174 6.46841 30.3377 6.17329C30.358 5.87817 30.2697 5.58582 30.0894 5.35127C29.3325 4.34474 28.4384 3.44907 27.4332 2.69033C27.1987 2.51145 26.907 2.4242 26.6127 2.4449C26.3185 2.46561 26.0419 2.59286 25.8347 2.80283L24.9152 3.71924C24.0953 3.24907 23.2187 2.8857 22.3066 2.63799V1.34111C22.3087 1.04597 22.203 0.760223 22.0094 0.537436C21.8158 0.314649 21.5476 0.170123 21.2551 0.130955C20.007 -0.0436517 18.7406 -0.0436517 17.4926 0.130955C17.1999 0.169803 16.9315 0.314236 16.7378 0.537094C16.5442 0.759952 16.4386 1.04588 16.441 1.34111V2.63799C15.5289 2.88555 14.6522 3.24893 13.8324 3.71924L12.9152 2.80283C12.7081 2.59286 12.4315 2.46561 12.1372 2.4449C11.843 2.4242 11.5513 2.51145 11.3168 2.69033C10.3098 3.44854 9.41405 4.34424 8.65584 5.35127C8.47594 5.58606 8.38801 5.87849 8.40858 6.17357C8.42915 6.46865 8.55682 6.74605 8.76756 6.95361L9.68475 7.87002C9.21492 8.68877 8.85207 9.5644 8.60506 10.4755H7.30662C7.01148 10.4734 6.72573 10.5791 6.50295 10.7727C6.28016 10.9663 6.13563 11.2345 6.09647 11.527C5.92146 12.7751 5.92146 14.0415 6.09647 15.2895C6.13563 15.5821 6.28016 15.8503 6.50295 16.0439C6.72573 16.2375 7.01148 16.3431 7.30662 16.3411H8.60506C8.85256 17.2534 9.21621 18.1301 9.68709 18.9497L8.7699 19.8661C8.56 20.0735 8.43286 20.3503 8.4123 20.6446C8.39173 20.939 8.47915 21.2308 8.65819 21.4653C9.41639 22.4724 10.3121 23.3681 11.3191 24.1263C11.5537 24.3051 11.8453 24.3924 12.1396 24.3717C12.4338 24.351 12.7104 24.2237 12.9176 24.0138L13.8347 23.0974C14.6545 23.5677 15.5312 23.931 16.4433 24.1786V25.4755C16.4412 25.7706 16.5468 26.0563 16.7404 26.279C16.9341 26.5017 17.2024 26.646 17.4949 26.6849C18.7429 26.8604 20.0094 26.8604 21.2574 26.6849C21.5494 26.6452 21.8169 26.5005 22.01 26.278C22.2031 26.0554 22.3085 25.7701 22.3066 25.4755ZM21.0566 23.6903V25.4513C19.94 25.6044 18.8076 25.6044 17.691 25.4513V23.6895C17.691 23.5474 17.6426 23.4095 17.5537 23.2985C17.4648 23.1876 17.3407 23.1103 17.2019 23.0794C16.092 22.831 15.0336 22.392 14.0738 21.7817C13.9538 21.7055 13.8114 21.6725 13.67 21.6881C13.5287 21.7037 13.3969 21.7671 13.2965 21.8677L12.0512 23.113C11.1519 22.433 10.3511 21.632 9.67146 20.7325L10.9168 19.488C11.0174 19.3875 11.0807 19.2557 11.0964 19.1144C11.112 18.9731 11.0789 18.8307 11.0027 18.7106C10.3895 17.7506 9.94825 16.691 9.69881 15.5794C9.66774 15.4408 9.59037 15.3169 9.47946 15.2281C9.36855 15.1394 9.23071 15.091 9.08865 15.0911H7.33084C7.17668 13.9745 7.17668 12.8421 7.33084 11.7255H9.09178C9.23383 11.7256 9.37167 11.6772 9.48258 11.5885C9.59349 11.4997 9.67086 11.3758 9.70193 11.2372C9.94983 10.126 10.3892 9.06648 11.0004 8.10595C11.0776 7.98556 11.1112 7.84231 11.0956 7.70013C11.0799 7.55795 11.016 7.42543 10.9144 7.3247L9.66912 6.08408C10.3488 5.18488 11.1496 4.38406 12.0488 3.70439L13.2926 4.9497C13.3934 5.05115 13.5259 5.11494 13.6681 5.13044C13.8103 5.14593 13.9535 5.1122 14.0738 5.03486C15.0327 4.42497 16.09 3.98591 17.1988 3.73721C17.3384 3.70685 17.4634 3.62958 17.5529 3.51828C17.6425 3.40697 17.6912 3.26835 17.691 3.12549V1.36611C18.8076 1.2126 19.94 1.2126 21.0566 1.36611V3.12549C21.0566 3.26754 21.1049 3.40538 21.1936 3.51629C21.2824 3.6272 21.4063 3.70457 21.5449 3.73564C22.6559 3.98376 23.7153 4.42282 24.6761 5.0333C24.796 5.10943 24.9382 5.14248 25.0794 5.127C25.2205 5.11152 25.3522 5.04844 25.4527 4.94814L26.698 3.70283C27.5972 4.38249 28.398 5.18332 29.0777 6.08252L27.8324 7.32861C27.731 7.42943 27.6672 7.562 27.6517 7.70418C27.6362 7.84636 27.6699 7.98955 27.7472 8.10986C28.3578 9.07072 28.7971 10.1302 29.0457 11.2411C29.0767 11.3796 29.154 11.5034 29.2647 11.5921C29.3755 11.6809 29.5131 11.7293 29.6551 11.7294H31.4176C31.5717 12.846 31.5717 13.9784 31.4176 15.095H29.6551C29.513 15.0949 29.3752 15.1433 29.2643 15.232C29.1533 15.3208 29.076 15.4447 29.0449 15.5833C28.7963 16.6932 28.3567 17.7514 27.7457 18.7106C27.6694 18.8307 27.6364 18.9731 27.652 19.1144C27.6677 19.2557 27.731 19.3875 27.8316 19.488L29.0769 20.7325C28.3973 21.632 27.5965 22.433 26.6972 23.113L25.4527 21.8677C25.3523 21.7673 25.2207 21.704 25.0795 21.6884C24.9384 21.6728 24.7961 21.7057 24.6761 21.7817C23.7153 22.3923 22.6559 22.8316 21.5449 23.0802C21.4063 23.1112 21.2824 23.1886 21.1936 23.2995C21.1049 23.4104 21.0566 23.5483 21.0566 23.6903ZM36.8683 16.1013C35.7644 15.806 34.6121 16.4599 34.2441 17.5856L32.066 24.2763C31.7498 24.0244 31.3652 23.8735 30.9621 23.8432C30.5591 23.8128 30.1562 23.9044 29.8058 24.106L25.6027 26.5325C25.4402 26.6187 25.2699 26.6893 25.0941 26.7435C23.9222 27.1497 22.9676 27.731 22.3137 30.8911C22.0039 30.8332 21.6838 30.8727 21.3974 31.0042C21.111 31.1357 20.8724 31.3528 20.7144 31.6255L19.9887 32.8817C19.787 33.2322 19.7325 33.6484 19.8372 34.039C19.9419 34.4296 20.1973 34.7627 20.5472 34.9653L26.7496 38.5466C27.1002 38.7478 27.5162 38.8021 27.9067 38.6974C28.2972 38.5927 28.6303 38.3376 28.8332 37.988L29.5582 36.7317C29.7393 36.4174 29.8025 36.0489 29.7363 35.6922C29.6702 35.3355 29.479 35.0141 29.1972 34.7856C29.6972 33.8419 31.0926 33.027 32.3418 32.2989C33.8449 31.4216 35.2644 30.5927 35.5355 29.3966L38.3886 18.7349C38.5357 18.184 38.4582 17.5974 38.1732 17.1036C37.8881 16.6099 37.4189 16.2494 36.8683 16.1013ZM28.4722 36.1067L27.7457 37.363C27.7084 37.4253 27.6483 37.4706 27.5782 37.4894C27.5081 37.5082 27.4334 37.499 27.3699 37.4638L21.1676 33.8825C21.105 33.8455 21.0594 33.7854 21.0405 33.7152C21.0217 33.6449 21.0311 33.5701 21.0668 33.5067L21.7918 32.2505C21.8287 32.1877 21.8887 32.142 21.959 32.1231C22.0293 32.1043 22.1042 32.1138 22.1676 32.1497L28.1097 35.5802H28.1144L28.3707 35.7286C28.4334 35.7655 28.4792 35.8256 28.498 35.8959C28.5169 35.9662 28.5073 36.0411 28.4715 36.1044L28.4722 36.1067ZM37.1808 18.4114L34.3207 29.0856L34.3136 29.1145C34.1691 29.7825 32.8613 30.5458 31.7074 31.2192C30.334 32.0208 28.8082 32.9114 28.1207 34.1411L23.4754 31.4591C24.0472 28.4294 24.7871 28.1716 25.5066 27.9224C25.7572 27.8433 25.9995 27.7399 26.2301 27.6138L30.4332 25.1872C30.6082 25.0862 30.8161 25.0588 31.0113 25.1111C31.1079 25.137 31.1985 25.1817 31.2778 25.2426C31.3572 25.3035 31.4238 25.3795 31.4738 25.4661C31.5238 25.5527 31.5563 25.6484 31.5693 25.7476C31.5824 25.8468 31.5758 25.9476 31.5499 26.0442C31.524 26.1408 31.4793 26.2314 31.4184 26.3108C31.3575 26.3901 31.2815 26.4567 31.1949 26.5067L27.6832 28.5341C27.5443 28.6192 27.4442 28.7553 27.4041 28.9132C27.3641 29.0711 27.3872 29.2384 27.4687 29.3795C27.5502 29.5205 27.6836 29.6242 27.8404 29.6684C27.9972 29.7126 28.165 29.6938 28.3082 29.6161L31.8176 27.5903C32.047 27.4589 32.248 27.2832 32.4089 27.0735C32.5699 26.8637 32.6875 26.6241 32.7551 26.3685C32.7872 26.2488 32.8084 26.1264 32.8183 26.0028L32.8308 25.97L35.4324 17.977C35.5972 17.47 36.0761 17.1825 36.5449 17.3083C36.7749 17.3713 36.9707 17.5225 37.0898 17.729C37.2089 17.9356 37.2416 18.1809 37.1808 18.4114ZM23.0027 33.7864C22.9384 33.8972 22.8426 33.9864 22.7275 34.0427C22.6125 34.0991 22.4833 34.1201 22.3564 34.103C22.2294 34.0859 22.1103 34.0315 22.0143 33.9468C21.9182 33.862 21.8494 33.7507 21.8166 33.6269C21.7838 33.503 21.7885 33.3722 21.83 33.2511C21.8716 33.1299 21.9481 33.0237 22.05 32.9461C22.1519 32.8684 22.2745 32.8227 22.4024 32.8147C22.5302 32.8067 22.6576 32.8368 22.7683 32.9013C22.9168 32.9876 23.0248 33.1293 23.0688 33.2953C23.1127 33.4613 23.089 33.638 23.0027 33.7864ZM18.4715 32.8817L17.7465 31.6255C17.5879 31.3522 17.3485 31.1349 17.0613 31.0033C16.774 30.8718 16.453 30.8326 16.1426 30.8911C15.4887 27.731 14.5308 27.1497 13.3621 26.7435C13.1863 26.6893 13.016 26.6187 12.8535 26.5325L8.65037 24.106C8.30002 23.9048 7.89735 23.8136 7.49451 23.8439C7.09168 23.8743 6.70725 24.0249 6.391 24.2763L4.216 17.5895C3.84803 16.4599 2.69569 15.8052 1.59256 16.1052C1.04298 16.2535 0.574475 16.6134 0.289448 17.1062C0.00442063 17.5989 -0.073949 18.1845 0.0714676 18.7349L2.9285 29.3966C3.19959 30.5927 4.6199 31.4216 6.12303 32.2989C7.37303 33.027 8.76678 33.8419 9.26756 34.7856C8.98537 35.0138 8.79388 35.3352 8.72757 35.6919C8.66126 36.0487 8.72448 36.4174 8.90584 36.7317L9.63162 37.988C9.83378 38.3382 10.1668 38.5938 10.5574 38.6986C10.9479 38.8033 11.3642 38.7487 11.7144 38.5466L17.9176 34.9653C18.2674 34.7626 18.5226 34.4294 18.6271 34.0388C18.7317 33.6482 18.6771 33.2321 18.4754 32.8817H18.4715ZM6.75272 31.2192C5.59881 30.5458 4.29178 29.7825 4.14647 29.1145L4.13944 29.0856L1.27928 18.4114C1.21876 18.1808 1.25168 17.9355 1.37089 17.729C1.49011 17.5224 1.68599 17.3713 1.916 17.3083C2.38475 17.1833 2.86287 17.47 3.02772 17.977L5.63162 25.97C5.63162 25.981 5.63943 25.9911 5.64412 26.002C5.66865 26.3281 5.77243 26.6432 5.94643 26.92C6.12043 27.1968 6.3594 27.4269 6.64256 27.5903L10.1519 29.6161C10.2231 29.6597 10.3022 29.6887 10.3848 29.7012C10.4673 29.7138 10.5515 29.7097 10.6324 29.6891C10.7133 29.6686 10.7892 29.6321 10.8558 29.5817C10.9223 29.5314 10.9781 29.4682 11.0199 29.3959C11.0616 29.3237 11.0885 29.2438 11.0988 29.1609C11.1092 29.0781 11.1029 28.9941 11.0802 28.9137C11.0576 28.8334 11.0191 28.7584 10.967 28.6932C10.9149 28.628 10.8503 28.5739 10.7769 28.5341L7.26756 26.5083C7.09343 26.4069 6.96647 26.2407 6.91437 26.0461C6.86227 25.8514 6.88925 25.6441 6.98943 25.4692C7.09116 25.2952 7.25739 25.1684 7.45206 25.1161C7.64673 25.0639 7.85414 25.0906 8.02928 25.1903L12.2324 27.6169C12.4629 27.7431 12.7052 27.8464 12.9558 27.9255C13.673 28.1747 14.4137 28.4325 14.9871 31.4622L10.3394 34.1411C9.65193 32.9114 8.12615 32.0208 6.75272 31.2192ZM17.2926 33.8825L11.0894 37.4638C11.0261 37.4996 10.9512 37.5092 10.8809 37.4903C10.8106 37.4715 10.7505 37.4257 10.7137 37.363L9.98865 36.1067C9.95292 36.0434 9.94338 35.9687 9.96207 35.8985C9.98076 35.8282 10.0262 35.7681 10.0887 35.731L10.3441 35.5833H10.3504L16.2879 32.1528C16.329 32.1292 16.3756 32.1168 16.423 32.1169C16.4716 32.1166 16.5194 32.1291 16.5616 32.1531C16.6038 32.1771 16.639 32.2117 16.6637 32.2536L17.3887 33.5099C17.4238 33.5724 17.4334 33.6461 17.4155 33.7155C17.3976 33.7849 17.3535 33.8448 17.2926 33.8825ZM16.5801 33.1388C16.6445 33.2495 16.6746 33.3769 16.6666 33.5047C16.6587 33.6326 16.6129 33.7552 16.5353 33.8571C16.4576 33.959 16.3514 34.0355 16.2303 34.0771C16.1091 34.1186 15.9783 34.1233 15.8545 34.0905C15.7306 34.0577 15.6193 33.9889 15.5345 33.8928C15.4498 33.7968 15.3954 33.6777 15.3784 33.5508C15.3613 33.4238 15.3822 33.2946 15.4386 33.1796C15.4949 33.0645 15.5841 32.9687 15.6949 32.9044C15.8434 32.8181 16.02 32.7944 16.186 32.8383C16.352 32.8823 16.4937 32.9903 16.5801 33.1388ZM28.073 13.4083C28.0727 11.6876 27.5622 10.0057 26.606 8.57518C25.6498 7.14466 24.2909 6.02981 22.7011 5.37159C21.1113 4.71337 19.362 4.54135 17.6745 4.87728C15.9869 5.21321 14.4369 6.042 13.2204 7.25886C12.0038 8.47572 11.1755 10.026 10.84 11.7136C10.5045 13.4013 10.677 15.1505 11.3356 16.7401C11.9943 18.3297 13.1095 19.6883 14.5403 20.6441C15.9711 21.5999 17.6531 22.11 19.3738 22.1099C21.6806 22.1074 23.8922 21.1897 25.5232 19.5583C27.1541 17.927 28.0712 15.7151 28.073 13.4083ZM19.3738 20.8599C17.9003 20.86 16.4598 20.4232 15.2346 19.6047C14.0093 18.7862 13.0543 17.6227 12.4903 16.2614C11.9264 14.9001 11.7787 13.4021 12.0661 11.9569C12.3535 10.5117 13.0629 9.18417 14.1048 8.14219C15.1467 7.10021 16.4741 6.39059 17.9193 6.10307C19.3645 5.81554 20.8625 5.96303 22.2238 6.52688C23.5852 7.09073 24.7488 8.04562 25.5674 9.27078C26.3861 10.4959 26.823 11.9364 26.823 13.4099C26.8208 15.3849 26.0352 17.2784 24.6387 18.675C23.2423 20.0716 21.3488 20.8574 19.3738 20.8599ZM24.3738 9.71064L24.3269 9.66455C23.9941 9.33217 23.543 9.14548 23.0726 9.14548C22.6023 9.14548 22.1511 9.33217 21.8183 9.66455L18.1832 13.2997L16.9332 12.0497C16.6 11.7177 16.1489 11.5312 15.6785 11.5312C15.2081 11.5312 14.757 11.7177 14.4238 12.0497L14.3777 12.0958C14.0457 12.4289 13.8592 12.8801 13.8592 13.3505C13.8592 13.8208 14.0457 14.272 14.3777 14.6052L16.9308 17.1575C17.2638 17.4897 17.7148 17.6763 18.1851 17.6763C18.6554 17.6763 19.1065 17.4897 19.4394 17.1575L24.3754 12.2216C24.5403 12.0565 24.6711 11.8606 24.7602 11.6449C24.8493 11.4293 24.8951 11.1982 24.8949 10.9648C24.8947 10.7315 24.8485 10.5005 24.7589 10.285C24.6694 10.0696 24.5382 9.87384 24.373 9.70908L24.3738 9.71064ZM23.4894 11.3356L18.5535 16.2716C18.4551 16.3697 18.3218 16.4248 18.1828 16.4248C18.0438 16.4248 17.9105 16.3697 17.8121 16.2716L15.259 13.7185C15.161 13.6199 15.106 13.4867 15.106 13.3478C15.106 13.2088 15.161 13.0756 15.259 12.977L15.3051 12.931C15.4035 12.8328 15.5368 12.7777 15.6758 12.7777C15.8147 12.7777 15.9481 12.8328 16.0465 12.931L17.741 14.6255C17.8582 14.7426 18.0171 14.8084 18.1828 14.8084C18.3485 14.8084 18.5074 14.7426 18.6246 14.6255L22.7011 10.5474C22.7996 10.4492 22.9329 10.3941 23.0719 10.3941C23.2108 10.3941 23.3441 10.4492 23.4426 10.5474L23.4887 10.5935C23.5867 10.6917 23.6418 10.8249 23.6418 10.9638C23.6418 11.1026 23.5867 11.2358 23.4887 11.3341L23.4894 11.3356Z" fill="white"/>
</svg>
