<svg width="40" height="40" viewBox="0 0 40 40" fill="none" xmlns="http://www.w3.org/2000/svg">
<g clip-path="url(#clip0_32006_953)">
<path d="M5.96226 10.3188C5.99082 10.4191 6.05202 10.5071 6.13617 10.5688L10.7396 13.9402V16.8277L9.15703 18.4103C8.96963 18.5952 8.85241 18.8395 8.82548 19.1014C8.79856 19.3632 8.8636 19.6263 9.00945 19.8455L9.95476 21.2867C9.63437 21.8957 9.37026 22.5326 9.1657 23.1896L7.47914 23.5402C7.22105 23.592 6.98904 23.732 6.82291 23.9362C6.65678 24.1404 6.5669 24.396 6.56867 24.6592V28.4688C6.56687 28.732 6.65674 28.9876 6.82286 29.1918C6.98897 29.396 7.22098 29.5361 7.47906 29.5879L9.16539 29.9384C9.36992 30.5955 9.63404 31.2325 9.95445 31.8416L9.00914 33.2827C8.86329 33.5018 8.79825 33.7649 8.82518 34.0267C8.85211 34.2886 8.96932 34.5329 9.15672 34.7177L11.8505 37.4115C12.0353 37.5991 12.2797 37.7165 12.5416 37.7434C12.8036 37.7704 13.0667 37.7052 13.2859 37.5591L14.7271 36.6138C15.3361 36.9342 15.9731 37.1983 16.6302 37.4029L16.9807 39.0891C17.0324 39.3473 17.1724 39.5794 17.3766 39.7456C17.5808 39.9118 17.8365 40.0018 18.0998 40H21.9095C22.1727 40.0018 22.4283 39.9119 22.6325 39.7458C22.8367 39.5797 22.9767 39.3477 23.0285 39.0896L23.3791 37.4033C24.0361 37.1987 24.6732 36.9346 25.2823 36.6142L26.7234 37.5591C26.9425 37.705 27.2055 37.7701 27.4674 37.7432C27.7293 37.7163 27.9736 37.599 28.1584 37.4116L30.8523 34.7178C31.0397 34.5329 31.1569 34.2886 31.1838 34.0268C31.2107 33.7649 31.1457 33.5019 30.9998 33.2827L30.0545 31.8415C30.3751 31.2325 30.6393 30.5955 30.844 29.9384L32.5302 29.588C32.7882 29.5361 33.0203 29.3961 33.1864 29.1919C33.3525 28.9877 33.4424 28.732 33.4405 28.4688V24.6592C33.4424 24.396 33.3525 24.1403 33.1864 23.9361C33.0203 23.7319 32.7882 23.5919 32.5302 23.5401L30.8438 23.1895C30.6393 22.5325 30.3752 21.8954 30.0548 21.2864L31.0001 19.8453C31.1459 19.6262 31.211 19.3631 31.184 19.1013C31.1571 18.8394 31.0399 18.5951 30.8525 18.4102L29.2698 16.8276V13.9401L33.8734 10.5687C33.9575 10.507 34.0187 10.419 34.0473 10.3187L36.1077 3.07367C36.2427 2.60443 36.19 2.10112 35.9607 1.67002C35.7315 1.23893 35.3436 0.913823 34.8791 0.763359L34.7379 0.717188C34.2875 0.566802 33.7968 0.592922 33.3648 0.790274C32.9329 0.987626 32.592 1.34151 32.4109 1.78047L29.9741 7.58406L23.5458 10.2977H16.4634L10.035 7.58406L7.59836 1.78047C7.41722 1.34151 7.07628 0.987626 6.64437 0.790274C6.21245 0.592922 5.72175 0.566802 5.27133 0.717188L5.13008 0.763359C4.66558 0.913824 4.27774 1.23893 4.04848 1.67002C3.81922 2.10111 3.76648 2.60442 3.9014 3.07367L5.96226 10.3188ZM30.2155 19.3312L29.1171 21.0065C29.0701 21.0781 29.0437 21.1613 29.0406 21.247C29.0376 21.3326 29.0581 21.4175 29.0999 21.4923C29.4933 22.1961 29.8032 22.9436 30.0234 23.7193C30.0467 23.8017 30.0922 23.8762 30.1549 23.9346C30.2176 23.993 30.2951 24.033 30.379 24.0505L32.3394 24.458C32.3863 24.4663 32.4286 24.4912 32.4588 24.5281C32.4889 24.5651 32.5047 24.6116 32.5034 24.6592V28.4688C32.5047 28.5163 32.4889 28.5628 32.4589 28.5997C32.4289 28.6366 32.3867 28.6615 32.3398 28.67L30.3796 29.0775C30.2957 29.0949 30.2182 29.135 30.1555 29.1934C30.0928 29.2518 30.0473 29.3263 30.024 29.4088C29.8038 30.1844 29.4938 30.9316 29.1002 31.6353C29.0584 31.7101 29.0379 31.795 29.0409 31.8806C29.044 31.9663 29.0704 32.0494 29.1174 32.1211L30.2155 33.7969C30.2427 33.8359 30.2549 33.8834 30.25 33.9307C30.2452 33.978 30.2235 34.022 30.1891 34.0547L27.4952 36.7485C27.4625 36.783 27.4185 36.8047 27.3712 36.8096C27.3239 36.8144 27.2765 36.8022 27.2374 36.7751L25.5621 35.6766C25.4905 35.6296 25.4073 35.6031 25.3217 35.6001C25.236 35.597 25.1512 35.6175 25.0764 35.6593C24.3725 36.0527 23.625 36.3627 22.8492 36.5828C22.7668 36.6062 22.6924 36.6517 22.6341 36.7144C22.5757 36.777 22.5356 36.8545 22.5182 36.9384L22.1107 38.8984C22.1024 38.9454 22.0775 38.9877 22.0405 39.0178C22.0036 39.0479 21.9571 39.0638 21.9095 39.0625H18.0998C18.0522 39.0638 18.0057 39.0479 17.9687 39.0178C17.9318 38.9877 17.9069 38.9454 17.8985 38.8984L17.491 36.9382C17.4736 36.8543 17.4335 36.7769 17.3751 36.7142C17.3168 36.6515 17.2423 36.606 17.1599 36.5827C16.3843 36.3624 15.6371 36.0524 14.9334 35.6588C14.8585 35.617 14.7737 35.5965 14.6881 35.5996C14.6024 35.6026 14.5192 35.6291 14.4476 35.6761L12.772 36.7748C12.733 36.802 12.6855 36.8142 12.6382 36.8094C12.5909 36.8045 12.5469 36.7828 12.5142 36.7483L9.81992 34.0547C9.78542 34.022 9.76378 33.978 9.75893 33.9307C9.75407 33.8834 9.76631 33.8359 9.79344 33.7969L10.8921 32.1216C10.9391 32.0499 10.9656 31.9667 10.9686 31.8811C10.9716 31.7954 10.9511 31.7106 10.9093 31.6358C10.5159 30.9319 10.206 30.1844 9.98586 29.4087C9.96249 29.3263 9.91699 29.2518 9.85429 29.1934C9.7916 29.1351 9.7141 29.095 9.63023 29.0776L7.66984 28.6701C7.62299 28.6616 7.58073 28.6367 7.5507 28.5997C7.52067 28.5628 7.50487 28.5163 7.50617 28.4688V24.6592C7.50487 24.6117 7.52066 24.5652 7.55067 24.5283C7.58069 24.4914 7.62294 24.4664 7.66976 24.458L9.6307 24.0504C9.71458 24.033 9.79208 23.9929 9.85478 23.9345C9.91748 23.8761 9.96297 23.8016 9.98633 23.7192C10.2065 22.9436 10.5164 22.1964 10.9098 21.4927C10.9516 21.4179 10.9721 21.333 10.969 21.2474C10.966 21.1618 10.9396 21.0786 10.8926 21.007L9.79367 19.3312C9.76659 19.2922 9.75438 19.2447 9.75923 19.1974C9.76409 19.1502 9.7857 19.1062 9.82015 19.0734L12.5139 16.3797C12.5466 16.3452 12.5906 16.3236 12.6379 16.3188C12.6852 16.3139 12.7326 16.3261 12.7717 16.3531L14.447 17.4518C14.5187 17.4988 14.6018 17.5252 14.6875 17.5283C14.7731 17.5313 14.8579 17.5108 14.9327 17.469C15.6366 17.0755 16.3841 16.7655 17.1598 16.5453C17.2422 16.522 17.3167 16.4765 17.375 16.4138C17.4334 16.3511 17.4735 16.2736 17.4909 16.1898L17.8984 14.2296C17.9068 14.1827 17.9317 14.1403 17.9687 14.1102C18.0056 14.0801 18.0521 14.0643 18.0998 14.0655H21.9094C21.9569 14.0643 22.0034 14.0801 22.0403 14.1101C22.0772 14.1401 22.1022 14.1824 22.1106 14.2292L22.5181 16.1895C22.5356 16.2733 22.5756 16.3508 22.634 16.4135C22.6924 16.4762 22.7668 16.5216 22.8492 16.545C23.6248 16.7652 24.3721 17.0753 25.0758 17.4688C25.1506 17.5106 25.2354 17.5311 25.3211 17.528C25.4067 17.525 25.4899 17.4986 25.5616 17.4516L27.2371 16.3528C27.2762 16.3257 27.3236 16.3135 27.3709 16.3184C27.4182 16.3233 27.4622 16.3449 27.4949 16.3794L30.1887 19.0731C30.2233 19.1058 30.245 19.1498 30.2499 19.1972C30.2549 19.2445 30.2427 19.292 30.2155 19.3312ZM5.42156 1.65438L5.56281 1.6082C5.78949 1.53252 6.03645 1.54567 6.25382 1.645C6.47118 1.74433 6.64276 1.92244 6.7339 2.14336L9.24453 8.12313C9.29204 8.2359 9.38176 8.32562 9.49453 8.37313L16.1862 11.198C16.2439 11.2224 16.3059 11.2349 16.3685 11.2349H23.6409C23.7035 11.2349 23.7655 11.2224 23.8231 11.198L30.5148 8.37344C30.6275 8.32593 30.7173 8.23621 30.7648 8.12344L33.2754 2.14367C33.3665 1.92276 33.5381 1.74467 33.7555 1.64534C33.9728 1.54601 34.2198 1.53285 34.4465 1.60852L34.5877 1.65469C34.8215 1.73041 35.0167 1.89405 35.1321 2.11102C35.2475 2.328 35.274 2.58133 35.2061 2.8175L33.1894 9.90773L28.5239 13.3245C28.4645 13.368 28.4161 13.4249 28.3828 13.4906C28.3495 13.5563 28.3321 13.629 28.3321 13.7027V15.8902L28.1584 15.7165C27.9736 15.529 27.7293 15.4118 27.4674 15.3848C27.2056 15.3579 26.9425 15.4229 26.7234 15.5688L25.2821 16.5141C24.6731 16.1937 24.0361 15.9296 23.3791 15.7251L23.0285 14.0389C22.9767 13.7808 22.8367 13.5489 22.6325 13.3828C22.4283 13.2167 22.1727 13.1268 21.9095 13.1286H18.0998C17.8366 13.1268 17.581 13.2167 17.3768 13.3828C17.1726 13.5489 17.0325 13.7809 16.9807 14.039L16.6302 15.7251C15.9731 15.9296 15.336 16.1938 14.727 16.5141L13.2859 15.5689C13.0667 15.423 12.8037 15.3579 12.5418 15.3848C12.28 15.4118 12.0356 15.529 11.8508 15.7164L11.677 15.8902V13.7027C11.677 13.629 11.6597 13.5563 11.6263 13.4906C11.593 13.4249 11.5447 13.368 11.4852 13.3245L6.81992 9.90734L4.80312 2.81719C4.73522 2.581 4.76177 2.32768 4.87717 2.1107C4.99256 1.89373 5.18777 1.7301 5.42156 1.65438ZM20.0046 0C19.1058 0 18.2271 0.266532 17.4798 0.765892C16.7325 1.26525 16.15 1.97501 15.806 2.80541C15.462 3.63582 15.372 4.54957 15.5474 5.43113C15.7227 6.31268 16.1556 7.12244 16.7911 7.758C17.4267 8.39356 18.2365 8.82639 19.118 9.00174C19.9996 9.17709 20.9133 9.0871 21.7437 8.74313C22.5741 8.39917 23.2839 7.81668 23.7832 7.06934C24.2826 6.32199 24.5491 5.44335 24.5491 4.54453C24.5478 3.33967 24.0685 2.18454 23.2166 1.33257C22.3646 0.4806 21.2095 0.00136473 20.0046 0ZM20.0046 8.15156C19.2912 8.15156 18.5938 7.94001 18.0006 7.54367C17.4075 7.14732 16.9452 6.58398 16.6721 5.92488C16.3991 5.26578 16.3277 4.54053 16.4669 3.84083C16.6061 3.14114 16.9496 2.49843 17.4541 1.99398C17.9585 1.48952 18.6012 1.14599 19.3009 1.00681C20.0006 0.86763 20.7259 0.939061 21.385 1.21207C22.0441 1.48508 22.6074 1.9474 23.0037 2.54057C23.4001 3.13375 23.6116 3.83113 23.6116 4.54453C23.6105 5.50084 23.2302 6.41767 22.554 7.09388C21.8777 7.77009 20.9609 8.15047 20.0046 8.15156ZM20.0046 19.1393C18.5361 19.1393 17.1007 19.5747 15.8797 20.3906C14.6587 21.2064 13.7071 22.366 13.1451 23.7227C12.5831 25.0793 12.4361 26.5722 12.7226 28.0124C13.0091 29.4527 13.7162 30.7756 14.7545 31.814C15.7929 32.8524 17.1158 33.5595 18.5561 33.846C19.9963 34.1325 21.4892 33.9855 22.8459 33.4235C24.2025 32.8616 25.3621 31.91 26.178 30.689C26.9938 29.468 27.4293 28.0325 27.4293 26.5641C27.4271 24.5956 26.6441 22.7084 25.2522 21.3165C23.8603 19.9245 21.9731 19.1416 20.0046 19.1393ZM18.9407 32.9624V28.5781C18.9407 28.4538 18.8913 28.3346 18.8034 28.2467C18.7155 28.1588 18.5963 28.1094 18.472 28.1094H16.7986L20.0046 23.0717L23.2107 28.1094H21.5373C21.4129 28.1094 21.2937 28.1588 21.2058 28.2467C21.1179 28.3346 21.0685 28.4538 21.0685 28.5781V32.9621C20.3642 33.0804 19.645 33.0804 18.9407 32.9621V32.9624ZM22.006 32.7338V29.0469H24.0646C24.1486 29.0469 24.231 29.0243 24.3033 28.9815C24.3756 28.9387 24.435 28.8773 24.4754 28.8037C24.5159 28.73 24.5357 28.6469 24.533 28.563C24.5303 28.479 24.5051 28.3973 24.46 28.3265L20.4001 21.9466C20.3577 21.8801 20.2993 21.8253 20.2302 21.7874C20.161 21.7494 20.0835 21.7295 20.0046 21.7295C19.9257 21.7295 19.8482 21.7494 19.779 21.7874C19.7099 21.8253 19.6515 21.8801 19.6091 21.9466L15.5492 28.3265C15.5041 28.3973 15.4789 28.479 15.4762 28.563C15.4735 28.6469 15.4934 28.73 15.5338 28.8037C15.5742 28.8773 15.6336 28.9387 15.7059 28.9815C15.7782 29.0243 15.8606 29.0469 15.9446 29.0469H18.0032V32.7335C16.5337 32.2569 15.2824 31.2714 14.4747 29.9545C13.667 28.6376 13.3557 27.0756 13.597 25.5496C13.8383 24.0237 14.6162 22.6339 15.7909 21.6304C16.9655 20.6269 18.4597 20.0756 20.0046 20.0756C21.5495 20.0756 23.0437 20.6269 24.2183 21.6304C25.393 22.6339 26.1709 24.0237 26.4122 25.5496C26.6535 27.0756 26.3422 28.6376 25.5345 29.9545C24.7268 31.2714 23.4756 32.2569 22.006 32.7335V32.7338Z" fill="white"/>
</g>
<defs>
<clipPath id="clip0_32006_953">
<rect width="40" height="40" fill="white"/>
</clipPath>
</defs>
</svg>
