<svg width="60" height="60" viewBox="0 0 60 60" fill="none" xmlns="http://www.w3.org/2000/svg">
<g clip-path="url(#clip0_32155_5063)">
<path fill-rule="evenodd" clip-rule="evenodd" d="M50.6291 41.8192C47.8894 44.3847 43.7547 47.8998 40.3654 50.0726C37.8535 51.6824 35.1876 53.1995 32.7112 53.3984C30.6647 53.5632 28.4284 52.7753 26.2975 52.4704C23.0175 52.0035 19.5577 52.0445 16.2117 52.0834H16.1419V44.4902C17.3772 44.2033 18.6161 43.9275 19.8547 43.5935C20.8175 43.3337 21.6542 42.9199 22.4637 42.519C23.926 41.7936 25.1891 41.1675 26.8384 41.6581L33.4896 43.6402C34.1574 43.8405 34.5372 44.5388 34.3359 45.1995C34.1172 45.9171 33.3446 46.155 32.695 46.0201C31.3402 45.7373 29.5794 45.2777 28.3202 45.1592C27.7624 45.1068 27.204 45.1221 26.6133 45.206C26.1947 45.2655 25.9042 45.6492 25.965 46.063C26.0251 46.4775 26.4134 46.7653 26.8327 46.7058C27.3005 46.6392 27.7399 46.6271 28.1753 46.6674C29.3322 46.7752 31.0931 47.2389 32.3799 47.5028C33.6688 47.767 34.977 47.2496 35.59 46.1372C36.424 46.0567 37.2303 45.8909 37.9913 45.6383C40.8977 44.6758 45.4172 42.1364 49.2592 39.9944C49.7277 39.7341 50.2932 39.8378 50.6356 40.249L50.721 40.3519C51.084 40.7876 51.0432 41.431 50.6291 41.8192ZM14.6095 53.1209C14.6095 53.3179 14.4407 53.4849 14.2413 53.4849H12.6891C12.4898 53.4849 12.3209 53.318 12.3209 53.1209V43.6555C12.3209 43.4573 12.4897 43.2916 12.6891 43.2916H14.2414C14.4407 43.2916 14.6097 43.4572 14.6097 43.6555L14.6095 53.1209ZM27.6304 24.7331C27.9269 25.0287 28.4144 25.0295 28.7136 24.7331C29.0132 24.437 29.0132 23.9572 28.7136 23.6624L27.4189 22.3825C28.7098 21.8545 30.1573 22.795 30.1573 24.1976C30.1573 25.2792 29.2663 26.1599 28.1721 26.1599C26.7597 26.1599 25.8009 24.7391 26.3357 23.4531L27.6304 24.7331ZM25.2033 22.334L22.7871 19.947C21.8431 21.113 21.2762 22.5904 21.2762 24.1978C21.2762 27.9561 24.3692 31.014 28.172 31.014C31.9742 31.014 35.0678 27.9561 35.0678 24.1978C35.0678 20.4389 31.9742 17.3816 28.172 17.3816C26.5459 17.3816 25.0512 17.9419 23.8716 18.8757L26.2865 21.2633C28.6159 19.7985 31.6901 21.4552 31.6901 24.1978C31.6901 26.1147 30.1113 27.6752 28.172 27.6752C25.3942 27.6752 23.7224 24.6318 25.2033 22.334ZM15.4268 24.1978C15.4268 30.0098 19.5059 35.0984 25.1838 36.4473C25.5578 36.162 26.0418 35.9888 26.5717 35.9888H31.2824V34.0016C31.2824 32.9584 32.2453 32.1096 33.4288 32.1096H38.1395V29.417C38.1395 28.4436 39.0816 27.6804 40.2858 27.6804H40.4237C42.7486 19.6624 36.6584 11.5997 28.1721 11.5997C24.9336 11.5997 21.9732 12.8008 19.7228 14.7745L22.7815 17.7985C24.2439 16.5923 26.123 15.8663 28.1722 15.8663C32.8194 15.8663 36.6009 19.6035 36.6009 24.1976C36.6009 28.7919 32.8194 32.5291 28.1722 32.5291C23.5243 32.5291 19.7435 28.7919 19.7435 24.1976C19.7435 22.172 20.4792 20.3146 21.6983 18.8691L18.639 15.8457C16.642 18.0704 15.4268 20.9965 15.4268 24.1978ZM11.1859 10.4381L13.3361 10.2028C13.6927 10.1631 13.9736 9.8856 14.0136 9.53318L14.2517 7.4078L16.6814 9.80951L16.3754 12.5368L13.6163 12.84L11.1859 10.4381ZM31.2824 41.4009V37.5039H26.5717C26.221 37.5039 25.9583 37.7169 25.9583 37.9074V39.9733C26.3769 39.9963 26.817 40.0693 27.2809 40.2074L31.2824 41.4009ZM33.9323 42.1895C35.0504 42.5228 35.8036 43.4905 35.9097 44.5745C36.7435 44.4538 37.372 44.2662 38.1395 43.9752V33.6246H33.4288C33.0832 33.6246 32.8154 33.8268 32.8154 34.0013V41.8569L33.9323 42.1895ZM44.9963 29.4251C44.9647 29.3554 44.7472 29.1954 44.3823 29.1954H40.2857C39.9208 29.1954 39.7033 29.3554 39.6722 29.4251V43.3332C41.2723 42.6098 43.1262 41.6382 44.9962 40.618V29.4251H44.9963ZM51.9046 39.3888L51.8185 39.2858C51.0096 38.3136 49.6166 38.0572 48.5068 38.6744L46.5294 39.7745V29.4169C46.5294 28.4435 45.586 27.6803 44.3824 27.6803H42.0109C44.2908 18.7666 37.4781 10.0844 28.1721 10.0844C24.5103 10.0844 21.1669 11.4544 18.6375 13.702L17.8714 12.9447L18.2454 9.61492C18.2706 9.38535 18.1897 9.15826 18.0254 8.99512L14.2077 5.22152C13.7549 4.77392 12.9744 5.04483 12.9045 5.6743L12.557 8.76296L9.43231 9.10643C8.79621 9.17533 8.52035 9.94603 8.97484 10.3946L12.7925 14.1682C12.9609 14.3351 13.1836 14.4088 13.4188 14.3856L16.7881 14.016L17.5529 14.7732C12.8622 19.9324 12.6351 27.7509 17.1433 33.1623C19.0289 35.4252 21.5919 37.0581 24.4306 37.8199C24.4287 37.8494 24.4255 37.8788 24.4255 37.9076V40.1072C22.6278 40.5126 21.1769 41.6673 19.4521 42.1321C18.3239 42.4362 17.17 42.6911 16.0071 42.9654C15.7282 42.2695 15.0423 41.7765 14.2413 41.7765H12.6891C11.6415 41.7765 10.7886 42.6188 10.7886 43.6555V53.1209C10.7886 54.1577 11.6415 55 12.6891 55H14.2414C15.1215 55 15.8623 54.4046 16.0766 53.6C19.4585 53.5716 22.8094 53.5034 26.0796 53.9703C28.3348 54.2922 30.4695 55.097 32.8362 54.9092C35.6503 54.6828 38.5188 53.0614 41.1995 51.3441C45.575 48.5401 50.331 44.1864 51.684 42.9187C52.6803 41.9868 52.7767 40.4358 51.9046 39.3888Z" fill="#9588F8"/>
</g>
<defs>
<clipPath id="clip0_32155_5063">
<rect width="60" height="60" rx="12" fill="white"/>
</clipPath>
</defs>
</svg>
