<svg width="50" height="50" viewBox="0 0 50 50" fill="none" xmlns="http://www.w3.org/2000/svg">
<path d="M20.9102 19.6709C21.7191 19.6709 22.375 19.015 22.375 18.2061C22.375 13.0135 26.5995 8.78906 31.7921 8.78906C32.6011 8.78906 33.2569 8.1332 33.2569 7.32422C33.2569 6.51523 32.6011 5.85938 31.7921 5.85938C24.9841 5.85938 19.4453 11.398 19.4453 18.2061C19.4453 19.015 20.1012 19.6709 20.9102 19.6709Z" fill="#9588F8"/>
<path d="M4.57207 49.5709C5.14404 50.143 6.07158 50.1431 6.64365 49.5709L18.1604 38.054C18.7325 37.4819 18.7325 36.5545 18.1604 35.9824L17.1251 34.9471L19.9984 32.0732C23.2881 34.8701 27.4228 36.4121 31.7943 36.4121C41.8329 36.4121 49.9999 28.2447 49.9999 18.2056C49.9998 8.16699 41.8328 0 31.7942 0C21.7552 0 13.5877 8.16699 13.5877 18.2056C13.5877 22.5879 15.1368 26.7201 17.9269 30.0017L15.0536 32.8755L14.0174 31.8393C13.4457 31.2675 12.5177 31.2673 11.9458 31.8393L0.428906 43.3562C-0.142773 43.9277 -0.143164 44.8558 0.428906 45.4277L4.57207 49.5709ZM16.5174 18.2056C16.5174 9.78242 23.3706 2.92969 31.7942 2.92969C40.2174 2.92969 47.0701 9.78242 47.0701 18.2056C47.0701 26.6293 40.2174 33.4824 31.7942 33.4824C23.3706 33.4824 16.5174 26.6556 16.5174 18.2056ZM12.9815 34.9467L15.0531 37.0183L5.60791 46.4635L3.53623 44.3919L12.9815 34.9467Z" fill="#9588F8"/>
</svg>
