<svg width="49" height="49" viewBox="0 0 49 49" fill="none" xmlns="http://www.w3.org/2000/svg">
<g clip-path="url(#clip0_32155_4810)">
<path d="M24.5846 17.095C25.259 17.095 25.8052 16.5484 25.8052 15.8744C25.8052 15.2004 25.259 14.6538 24.5846 14.6538C19.192 14.6538 14.8203 19.0255 14.8203 24.4185C14.8203 29.8111 19.192 34.1828 24.5846 34.1828C29.9776 34.1828 34.3493 29.8111 34.3493 24.4185C34.3493 23.7441 33.8028 23.1979 33.1287 23.1979C32.4547 23.1979 31.9082 23.7441 31.9082 24.4185C31.9082 28.4631 28.6296 31.742 24.5846 31.742C20.5401 31.742 17.2611 28.4631 17.2611 24.4185C17.2611 20.3736 20.5401 17.095 24.5846 17.095Z" fill="#9588F8"/>
<path d="M47.8705 17.1686C47.6586 16.5282 46.9677 16.1809 46.327 16.3929C45.7011 16.6 45.3527 17.2662 45.5393 17.8983C49.1894 29.5221 42.7258 41.9041 31.102 45.5543C19.4785 49.2044 7.09659 42.7407 3.44642 31.1169C-0.204129 19.4931 6.25993 7.1112 17.8834 3.46103C22.1863 2.10997 26.7994 2.10997 31.102 3.46103C31.748 3.6558 32.4295 3.29018 32.6242 2.64419C32.816 2.00791 32.4642 1.33538 31.8321 1.12976C18.9253 -2.91967 5.17916 4.26067 1.12973 17.1679C-2.9197 30.0747 4.26101 43.8208 17.1678 47.8702C30.075 51.9196 43.8207 44.7393 47.8702 31.8321C49.3678 27.0589 49.3678 21.9418 47.8705 17.1686Z" fill="#9588F8"/>
<path d="M26.9046 8.72026C26.9109 8.02529 26.3771 7.44434 25.684 7.39238C25.3195 7.36135 24.9546 7.33032 24.5804 7.33032C15.1428 7.33032 7.49219 14.981 7.49219 24.4185C7.49219 33.8557 15.1428 41.5064 24.5804 41.5064C34.0176 41.5064 41.6682 33.8557 41.6682 24.4185C41.6682 23.977 41.6413 23.5359 41.5871 23.0978C41.4895 22.4278 40.8675 21.9639 40.1976 22.0615C39.5276 22.1587 39.0637 22.7811 39.1609 23.451C39.1646 23.4765 39.1691 23.5015 39.1744 23.5269C39.2009 23.8226 39.2271 24.1157 39.2271 24.4178C39.2274 32.5073 32.6699 39.0648 24.5808 39.0656C16.4913 39.0659 9.93373 32.5081 9.93336 24.4189C9.93299 16.3298 16.4901 9.77187 24.5797 9.7715H24.58C24.8828 9.7715 25.1763 9.79766 25.4713 9.82383L25.7001 9.8429C26.3378 9.87019 26.8769 9.37523 26.9038 8.73745C26.9042 8.73147 26.9042 8.72587 26.9046 8.72026Z" fill="#9588F8"/>
<path d="M31.9027 10.992V15.3689L23.7164 23.5552C23.2315 24.0236 23.218 24.7964 23.6865 25.2812C24.1549 25.7661 24.9276 25.7796 25.4125 25.3111C25.4226 25.3014 25.4327 25.2913 25.4424 25.2812L33.6287 17.0949H38.0056C38.3294 17.0949 38.6397 16.9663 38.8688 16.7371L46.192 9.41362C46.6686 8.93698 46.6686 8.16425 46.192 7.6876C45.9632 7.45881 45.6529 7.33021 45.3292 7.33021H41.6674V3.66845C41.6674 2.99442 41.1209 2.44787 40.4464 2.44824C40.1231 2.44824 39.8128 2.57684 39.584 2.80563L32.2605 10.1291C32.0313 10.3579 31.9027 10.6682 31.9027 10.992ZM34.3439 11.4974L39.2262 6.61506V8.5508C39.2262 9.22483 39.7728 9.77139 40.4468 9.77139H42.3826L37.5002 14.6537H34.3439V11.4974Z" fill="#9588F8"/>
</g>
<defs>
<clipPath id="clip0_32155_4810">
<rect width="49" height="49" fill="white"/>
</clipPath>
</defs>
</svg>
