<svg width="50" height="50" viewBox="0 0 50 50" fill="none" xmlns="http://www.w3.org/2000/svg">
<g clip-path="url(#clip0_32155_4824)">
<path d="M28.3203 50H21.6797C20.6028 50 19.7266 49.1238 19.7266 48.0469V45.1313C17.889 44.651 16.1354 43.924 14.4958 42.9623L12.4325 45.0256C11.6707 45.787 10.4317 45.787 9.67026 45.0256L4.97437 40.3297C4.21295 39.5683 4.21295 38.3293 4.97437 37.5679L7.03773 35.5042C6.07605 33.8646 5.34897 32.111 4.8687 30.2734H1.95312C0.876236 30.2734 0 29.3972 0 28.3203V21.6797C0 20.6028 0.876236 19.7266 1.95312 19.7266H4.86221C5.34096 17.886 6.06728 16.1293 7.02896 14.4867L4.97437 12.4321C4.21295 11.6707 4.21295 10.4317 4.97437 9.67026L9.67026 4.97437C10.4317 4.21295 11.6707 4.21295 12.4325 4.97437L14.4798 7.02209C16.124 6.05583 17.8829 5.3257 19.7266 4.8439V1.95312C19.7266 0.876236 20.6028 0 21.6797 0H28.3203C29.3972 0 30.2734 0.876236 30.2734 1.95312V4.83742C32.1198 5.31769 33.8821 6.04706 35.5289 7.01294L37.5679 4.97437C38.3293 4.21295 39.5683 4.21295 40.3297 4.97437L45.0256 9.67026C45.787 10.4317 45.787 11.6707 45.0256 12.4325L42.9871 14.4711C43.9529 16.1179 44.6823 17.8802 45.1626 19.7266H48.0469C49.1238 19.7266 50 20.6028 50 21.6797V28.3203C50 29.3972 49.1238 30.2734 48.0469 30.2734H45.1561C44.6743 32.1171 43.9438 33.876 42.9779 35.5202L45.0253 37.5679C45.7867 38.3293 45.7867 39.5683 45.0253 40.3297L40.3297 45.0256C39.5683 45.787 38.3293 45.787 37.5675 45.0256L35.5133 42.971C33.8703 43.9327 32.1136 44.659 30.2734 45.1378V48.0469C30.2734 49.1238 29.3972 50 28.3203 50ZM14.3494 40.7509C14.5309 40.7509 14.7129 40.8012 14.8746 40.9042C16.7328 42.0906 18.7649 42.9333 20.9141 43.409C21.3615 43.5081 21.6797 43.9045 21.6797 44.3626V48.0469H28.3203V44.368C28.3203 43.9095 28.6392 43.5127 29.0871 43.4143C31.2393 42.9405 33.2745 42.099 35.1357 40.9134C35.5217 40.6673 36.0271 40.7227 36.351 41.0465L38.9488 43.6443L43.6443 38.9488L41.0522 36.3567C40.728 36.0325 40.6731 35.5263 40.9203 35.1398C42.1108 33.2783 42.9569 31.2412 43.4341 29.0859C43.5329 28.6385 43.9297 28.3203 44.3874 28.3203H48.0469V21.6797H44.3928C43.9342 21.6797 43.5375 21.3608 43.4391 20.9129C42.9642 18.7546 42.1196 16.7145 40.929 14.8499C40.6826 14.4634 40.7379 13.958 41.0618 13.6337L43.6443 11.0512L38.9488 6.35567L36.3663 8.93822C36.0424 9.26208 35.5366 9.3174 35.1501 9.07097C33.2855 7.8804 31.2454 7.03621 29.0871 6.5609C28.6392 6.46248 28.3203 6.06575 28.3203 5.60722V1.95312H21.6797V5.61256C21.6797 6.07071 21.3615 6.46706 20.9145 6.56624C18.7588 7.04346 16.7217 7.88918 14.8602 9.07974C14.4741 9.32693 13.9675 9.272 13.6436 8.94775L11.0512 6.35567L6.35567 11.0512L8.95348 13.6494C9.27734 13.9729 9.33266 14.4783 9.08661 14.8643C7.901 16.7255 7.05948 18.7607 6.58569 20.9129C6.48727 21.3608 6.09055 21.6797 5.63202 21.6797H1.95312V28.3203H5.63736C6.0955 28.3203 6.49185 28.6388 6.59103 29.0859C7.06673 31.2355 7.90977 33.2672 9.09576 35.1254C9.34219 35.5118 9.28726 36.0176 8.96301 36.3415L6.35567 38.9488L11.0512 43.6447L13.6585 41.037C13.8474 40.8485 14.0972 40.7509 14.3494 40.7509Z" fill="#9588F8"/>
<path d="M25.0012 39.2513C21.3502 39.2513 17.6991 37.8612 14.9194 35.0818C9.36021 29.5227 9.36021 20.4773 14.9194 14.9181C17.1616 12.6762 20.0047 11.2739 23.1412 10.8635C26.1781 10.466 29.3134 11.0679 31.9707 12.558C32.441 12.8216 32.6085 13.4167 32.3449 13.887C32.0809 14.3577 31.4858 14.5252 31.0155 14.2612C26.2334 11.5795 20.1821 12.4176 16.3007 16.2994C11.5029 21.0968 11.5029 28.9032 16.3007 33.7009C18.6994 36.0992 21.8507 37.2986 25.0012 37.2989C28.1526 37.2993 31.3031 36.1 33.7022 33.7009C37.4532 29.9499 38.382 24.2435 36.0131 19.5015C35.772 19.0189 35.9677 18.4322 36.4503 18.1911C36.9325 17.95 37.5192 18.1461 37.7602 18.6287C40.5053 24.1234 39.4296 30.7358 35.0831 35.0818C32.3033 37.8612 28.6523 39.2513 25.0012 39.2513Z" fill="#9588F8"/>
<path d="M34.6016 16.798C34.3437 16.798 34.0927 16.6943 33.91 16.5116C33.7284 16.33 33.625 16.079 33.625 15.8215C33.625 15.5644 33.7284 15.3126 33.91 15.131C34.0915 14.9491 34.3437 14.8449 34.6016 14.8449C34.8583 14.8449 35.1101 14.9491 35.292 15.131C35.4736 15.3126 35.5781 15.5644 35.5781 15.8215C35.5781 16.079 35.4736 16.33 35.292 16.5116C35.1093 16.6943 34.8583 16.798 34.6016 16.798Z" fill="#9588F8"/>
<path d="M7.15218 32.3883C6.89316 32.3883 6.64482 32.2853 6.46172 32.1022L0.286102 25.9262C-0.0953674 25.5451 -0.0953674 24.9267 0.286102 24.5453L3.78876 21.0422C3.97186 20.8591 4.2202 20.7565 4.47922 20.7565C4.73824 20.7565 4.98695 20.8591 5.17006 21.0422L7.15218 23.0247L11.8912 18.2861C12.2723 17.9046 12.8906 17.9046 13.2721 18.2861L16.7751 21.7891C17.1562 22.1702 17.1562 22.7886 16.7751 23.1701L7.84302 32.1022C7.65953 32.2853 7.41119 32.3883 7.15218 32.3883ZM2.35748 25.2357L7.15218 30.0304L14.7034 22.4796L12.5816 20.3579L7.84302 25.0965C7.65991 25.2796 7.41119 25.3826 7.15218 25.3826C6.89316 25.3826 6.64482 25.2796 6.46172 25.0965L4.47922 23.114L2.35748 25.2357Z" fill="#9588F8"/>
</g>
<defs>
<clipPath id="clip0_32155_4824">
<rect width="50" height="50" fill="white"/>
</clipPath>
</defs>
</svg>
