<svg width="54" height="54" viewBox="0 0 54 54" fill="none" xmlns="http://www.w3.org/2000/svg">
<path d="M33.7984 23.7667C33.7984 22.928 33.1184 22.2479 32.2797 22.2479H15.5734C14.7347 22.2479 14.0547 22.928 14.0547 23.7667C14.0547 24.6054 14.7347 25.2854 15.5734 25.2854H32.2797C33.1184 25.2854 33.7984 24.6054 33.7984 23.7667Z" fill="#9588F8"/>
<path d="M15.5734 29.9176C14.7347 29.9176 14.0547 30.5977 14.0547 31.4364C14.0547 32.275 14.7347 32.9551 15.5734 32.9551H24.4311C25.2698 32.9551 25.9499 32.275 25.9499 31.4364C25.9499 30.5977 25.2698 29.9176 24.4311 29.9176H15.5734Z" fill="#9588F8"/>
<path d="M43.8028 23.8511C42.9641 23.8511 42.284 24.5312 42.284 25.3699V37.6532C42.284 39.9515 40.4143 41.8213 38.1159 41.8213H27.9572C27.6281 41.8213 27.3075 41.9276 27.0442 42.1267L18.2726 48.7232C18.0499 48.8902 17.8406 48.821 17.736 48.7637C17.6297 48.7097 17.4542 48.5764 17.4609 48.3047L17.6297 43.394C17.6432 42.9823 17.4896 42.5824 17.2044 42.287C16.9192 41.99 16.5244 41.823 16.1126 41.823H9.05718C6.75881 41.823 4.88906 39.9549 4.88906 37.6549V17.5736C4.88906 15.2668 6.75881 13.3903 9.05718 13.3903H27.7716C28.6102 13.3903 29.2903 12.7102 29.2903 11.8715C29.2903 11.0328 28.6102 10.3528 27.7716 10.3528H9.05718C5.08481 10.3528 1.85156 13.5928 1.85156 17.5753V37.6549C1.85156 41.6272 5.08481 44.8622 9.05718 44.8622H14.5399L14.4251 48.2068C14.3846 49.5804 15.1153 50.8292 16.3354 51.462C16.8568 51.7337 17.4187 51.867 17.9756 51.867C18.7232 51.867 19.464 51.6257 20.0951 51.1549L28.4634 44.8622H38.1142C42.0866 44.8622 45.3199 41.6289 45.3199 37.6549V25.3715C45.3215 24.5312 44.6415 23.8511 43.8028 23.8511Z" fill="#9588F8"/>
<path d="M52.0108 9.38415C51.7357 8.5404 51.0591 7.90928 50.2001 7.69666L46.3189 6.72972L44.1994 3.33784C43.2594 1.82922 40.8058 1.8326 39.8676 3.33784L37.7481 6.72972L33.8668 7.69666C33.0079 7.90928 32.3295 8.5404 32.0561 9.38415C31.7827 10.2279 31.9583 11.1375 32.5286 11.8175L35.1004 14.8787L34.8202 18.8679C34.7578 19.7522 35.1493 20.5908 35.8665 21.1123C36.312 21.4363 36.8351 21.6033 37.365 21.6033C37.6873 21.6033 38.013 21.5409 38.3252 21.4143L42.0343 19.9158L45.7417 21.4143C46.5636 21.7485 47.4816 21.6337 48.2004 21.114C48.9176 20.5925 49.3091 19.7538 49.2484 18.8679L48.9682 14.8787L51.54 11.8158C52.1087 11.1375 52.2859 10.2279 52.0108 9.38415ZM46.2463 13.3953C45.9932 13.6974 45.8666 14.0855 45.8953 14.4804L46.1653 18.311L42.6047 16.8716C42.4224 16.7973 42.2284 16.7602 42.036 16.7602C41.8436 16.7602 41.6496 16.7973 41.4673 16.8716L37.9084 18.311L38.1767 14.4804C38.2037 14.0872 38.0771 13.6974 37.8257 13.3953L35.3569 10.4557L39.0829 9.5259C39.4642 9.42972 39.795 9.19178 40.0026 8.85766L42.0377 5.60247L44.0728 8.85766C44.2821 9.19178 44.6111 9.4314 44.9925 9.5259L48.7185 10.4557L46.2463 13.3953Z" fill="#9588F8"/>
</svg>
