<svg width="20" height="20" viewBox="0 0 20 20" fill="none" xmlns="http://www.w3.org/2000/svg">
<path d="M15.4683 2.5V13.75C15.4683 13.8743 15.419 13.9935 15.331 14.0815C15.2431 14.1694 15.1239 14.2188 14.9996 14.2188H4.88162L7.83084 17.1687C7.87689 17.2117 7.91383 17.2634 7.93945 17.3209C7.96507 17.3784 7.97885 17.4405 7.97996 17.5034C7.98107 17.5664 7.96949 17.6289 7.94591 17.6872C7.92234 17.7456 7.88725 17.7986 7.84274 17.8431C7.79822 17.8877 7.7452 17.9228 7.68684 17.9463C7.62847 17.9699 7.56595 17.9815 7.50301 17.9804C7.44007 17.9793 7.378 17.9655 7.3205 17.9399C7.263 17.9142 7.21125 17.8773 7.16834 17.8313L3.41834 14.0813C3.33056 13.9934 3.28125 13.8742 3.28125 13.75C3.28125 13.6258 3.33056 13.5066 3.41834 13.4187L7.16834 9.66875C7.21125 9.6227 7.263 9.58576 7.3205 9.56014C7.378 9.53452 7.44007 9.52074 7.50301 9.51963C7.56595 9.51852 7.62847 9.5301 7.68684 9.55367C7.7452 9.57725 7.79822 9.61234 7.84274 9.65685C7.88725 9.70136 7.92234 9.75438 7.94591 9.81275C7.96949 9.87112 7.98107 9.93364 7.97996 9.99658C7.97885 10.0595 7.96507 10.1216 7.93945 10.1791C7.91383 10.2366 7.87689 10.2883 7.83084 10.3313L4.88162 13.2812H14.5308V2.5C14.5308 2.37568 14.5802 2.25645 14.6681 2.16854C14.756 2.08064 14.8753 2.03125 14.9996 2.03125C15.1239 2.03125 15.2431 2.08064 15.331 2.16854C15.419 2.25645 15.4683 2.37568 15.4683 2.5Z" fill="#151516"/>
</svg>
