<svg width="153" height="42" viewBox="0 0 153 42" fill="none" xmlns="http://www.w3.org/2000/svg">
<g clip-path="url(#clip0_32155_4562)">
<path d="M46.8905 0H39.8906V41.984H46.8905V0Z" fill="white"/>
<path d="M71.402 28.6412C71.402 34.9523 65.7703 35.5405 64.2483 35.5405C60.1387 35.5405 59.2264 31.725 59.2264 29.3727V13.5229H52.2266V29.5209C52.2266 33.4845 53.5948 36.7118 55.7266 39.0643C57.7045 40.9719 60.7485 41.9999 64.0997 41.9999C66.5339 41.9999 69.7314 41.4117 71.2534 39.6524V41.9999H78.2534V13.5229H71.2534V28.6412H71.402Z" fill="white"/>
<path d="M92.0819 3.375H85.082V13.5065H79.9062V20.2576H85.082V41.9835H92.0819V20.2576H97.2575V13.5065H92.0819V3.375Z" fill="white"/>
<path d="M119.218 33.4776C117.696 34.7972 115.718 35.5336 113.586 35.5336C108.718 35.5336 105.213 32.1581 105.213 27.3147C105.213 22.4714 108.713 19.2392 113.586 19.2392C115.718 19.2392 117.696 19.8272 119.218 21.295L120.284 22.1749L124.85 17.7712L123.784 16.7434C120.894 14.3958 117.389 12.928 113.586 12.928C104.911 12.7797 98.5156 18.7992 98.5156 27.3147C98.5156 35.5336 105.059 41.8497 113.586 41.8497C117.542 41.8497 121.196 40.5302 124.091 38.0344L125.157 37.0064L120.289 32.3113L119.218 33.4776Z" fill="white"/>
<path d="M149.937 16.0029C147.959 14.0952 145.525 13.0672 142.328 13.0672C139.894 13.0672 137.306 13.6553 135.476 15.4147V0H128.477V41.984H135.476V26.1294C135.476 19.8183 140.345 19.2301 141.872 19.2301C145.981 19.2301 145.981 23.0456 145.981 25.3979V41.984H152.981V25.2497C153.135 21.5776 152.223 18.2021 149.937 16.0029Z" fill="white"/>
<path d="M113.248 32.3034C116.022 32.3034 118.27 30.1349 118.27 27.46C118.27 24.7851 116.022 22.6167 113.248 22.6167C110.475 22.6167 108.227 24.7851 108.227 27.46C108.227 30.1349 110.475 32.3034 113.248 32.3034Z" fill="#FF3D2E"/>
<path d="M30.2903 31.4083C27.7024 33.9041 23.8951 35.372 20.2464 35.372C12.3293 35.372 6.69757 29.5005 6.69757 21.4251C6.69757 13.3495 12.3293 7.47813 20.0928 7.47813C23.7464 7.47813 27.2464 8.94596 30.1365 11.4418L31.2024 12.4698L35.7682 8.06624L34.7024 7.03827C30.7463 3.22289 25.5707 1.17188 20.0928 1.17188C8.52185 1.3152 0 9.97889 0 21.5733C0 33.1727 8.52185 41.8314 20.0928 41.8314C25.7243 41.8314 31.0538 39.7754 34.7024 35.9601L35.7682 34.9321L31.2024 30.237L30.2903 31.4083Z" fill="white"/>
</g>
<defs>
<clipPath id="clip0_32155_4562">
<rect width="153" height="42" fill="white"/>
</clipPath>
</defs>
</svg>
