<svg width="24" height="24" viewBox="0 0 24 24" fill="none" xmlns="http://www.w3.org/2000/svg">
<g clip-path="url(#clip0_32155_4664)">
<path d="M18 3C19.0609 3 20.0783 3.42143 20.8284 4.17157C21.5786 4.92172 22 5.93913 22 7V15C22 16.0609 21.5786 17.0783 20.8284 17.8284C20.0783 18.5786 19.0609 19 18 19H13.276L8.514 21.857C8.37059 21.9431 8.20788 21.9918 8.04077 21.9987C7.87366 22.0056 7.70749 21.9705 7.55746 21.8966C7.40743 21.8227 7.27833 21.7123 7.18199 21.5756C7.08565 21.4389 7.02514 21.2802 7.006 21.114L7 21V19H6C4.97376 19 3.98677 18.6056 3.24319 17.8983C2.4996 17.191 2.05631 16.225 2.005 15.2L2 15V7C2 5.93913 2.42143 4.92172 3.17157 4.17157C3.92172 3.42143 4.93913 3 6 3H18ZM15.2 12.286C15.0106 12.1004 14.7553 11.9976 14.4901 12.0002C14.2249 12.0028 13.9717 12.1107 13.786 12.3C13.5532 12.5377 13.2753 12.7265 12.9687 12.8554C12.662 12.9843 12.3327 13.0507 12 13.0507C11.6673 13.0507 11.338 12.9843 11.0313 12.8554C10.7247 12.7265 10.4468 12.5377 10.214 12.3C10.0274 12.115 9.7755 12.0109 9.51276 12.0102C9.25002 12.0095 8.99755 12.1122 8.80993 12.2961C8.62231 12.4801 8.51462 12.7305 8.51014 12.9932C8.50567 13.2559 8.60476 13.5098 8.786 13.7C9.20498 14.1275 9.70505 14.4672 10.2569 14.6991C10.8088 14.9309 11.4014 15.0504 12 15.0504C12.5986 15.0504 13.1912 14.9309 13.7431 14.6991C14.295 14.4672 14.795 14.1275 15.214 13.7C15.3996 13.5106 15.5024 13.2553 15.4998 12.9901C15.4972 12.7249 15.3893 12.4717 15.2 12.286ZM9.51 8H9.5C9.23478 8 8.98043 8.10536 8.79289 8.29289C8.60536 8.48043 8.5 8.73478 8.5 9C8.5 9.26522 8.60536 9.51957 8.79289 9.70711C8.98043 9.89464 9.23478 10 9.5 10H9.51C9.77522 10 10.0296 9.89464 10.2171 9.70711C10.4046 9.51957 10.51 9.26522 10.51 9C10.51 8.73478 10.4046 8.48043 10.2171 8.29289C10.0296 8.10536 9.77522 8 9.51 8ZM14.51 8H14.5C14.2348 8 13.9804 8.10536 13.7929 8.29289C13.6054 8.48043 13.5 8.73478 13.5 9C13.5 9.26522 13.6054 9.51957 13.7929 9.70711C13.9804 9.89464 14.2348 10 14.5 10H14.51C14.7752 10 15.0296 9.89464 15.2171 9.70711C15.4046 9.51957 15.51 9.26522 15.51 9C15.51 8.73478 15.4046 8.48043 15.2171 8.29289C15.0296 8.10536 14.7752 8 14.51 8Z" fill="white"/>
</g>
<defs>
<clipPath id="clip0_32155_4664">
<rect width="24" height="24" fill="white"/>
</clipPath>
</defs>
</svg>
