<svg width="30" height="30" viewBox="0 0 30 30" fill="none" xmlns="http://www.w3.org/2000/svg">
<g clip-path="url(#clip0_32155_4463)">
<path d="M1.243 12.3766C0.629795 12.4761 0.155443 12.9677 0.0779968 13.5841C-0.0249688 14.5177 -0.0260053 15.4598 0.0749858 16.3936C0.145374 17.0196 0.622638 17.5227 1.24399 17.6261L2.83497 17.8866C3.14041 19.1876 3.65603 20.4301 4.36143 21.5651L3.42497 22.8731C3.05181 23.379 3.06084 24.0714 3.44698 24.5675C3.74502 24.9322 4.06216 25.2808 4.39697 25.6121C4.70399 25.9196 5.04344 26.2286 5.45096 26.571C5.94313 26.9495 6.62608 26.9574 7.12694 26.5905L8.44141 25.6475C9.57526 26.3529 10.8165 26.8686 12.1164 27.1745L12.3774 28.768C12.4766 29.3814 12.9683 29.856 13.5849 29.9335C13.8699 29.9655 14.1594 29.988 14.4509 30H14.4934C14.7539 29.9998 15.0045 29.8995 15.1934 29.72C15.3897 29.5324 15.5004 29.2725 15.4998 29.001V24.994C15.4969 24.4586 15.0742 24.0197 14.5393 23.9965C9.7537 23.7467 6.00153 19.7935 6.00153 15.0014C6.00153 10.2092 9.7537 6.25606 14.5393 6.0062C15.0751 5.9827 15.498 5.54251 15.4998 5.00621V1.00126C15.5006 0.729433 15.3896 0.469305 15.1928 0.281785C14.9964 0.089033 14.7282 -0.0126986 14.4533 0.00127038C14.1623 0.0127713 13.8738 0.0337494 13.5778 0.0637605C12.9616 0.143181 12.4723 0.620693 12.3778 1.23473L12.1173 2.8267C10.8175 3.13284 9.5762 3.64875 8.44234 4.35421L7.12788 3.4132C6.62238 3.04354 5.93282 3.05455 5.43941 3.4402C5.07691 3.73696 4.72996 4.05217 4.39993 4.38471C4.05979 4.7172 3.73959 5.06949 3.44096 5.43969C3.05946 5.9325 3.04968 6.61817 3.41697 7.12169L4.35946 8.43768C3.65464 9.57258 3.13972 10.8149 2.83497 12.1157L1.243 12.3766ZM3.73949 12.6556C4.03018 11.2434 4.58785 9.89974 5.3825 8.69668C5.49637 8.52367 5.49178 8.29839 5.371 8.13017L4.23053 6.53771C4.1251 6.39856 4.12204 6.20714 4.22303 6.06469C4.49708 5.72504 4.79111 5.40198 5.10352 5.09718C5.40698 4.79065 5.7257 4.49957 6.05849 4.22518C6.20173 4.11599 6.40026 4.11599 6.5435 4.22518L8.1335 5.36619C8.30192 5.48668 8.52719 5.49083 8.70001 5.37671C9.90203 4.58176 11.245 4.02389 12.6565 3.7332C12.8594 3.6914 13.0155 3.52871 13.049 3.32421L13.3635 1.39871C13.3861 1.226 13.5187 1.08828 13.6905 1.05921C13.955 1.03172 14.223 1.01222 14.5 1.00121L14.489 5.00665C9.16582 5.27853 4.99009 9.67539 4.99305 15.0055C4.99596 20.3356 9.17653 24.7279 14.5 24.9939L14.493 29.0009C14.2245 28.9899 13.9585 28.9689 13.696 28.9394C13.5234 28.9142 13.3882 28.7781 13.364 28.6054L13.049 26.6789C13.0155 26.4744 12.8594 26.3117 12.6565 26.2699C11.245 25.9789 9.90203 25.421 8.70001 24.6259C8.5271 24.5119 8.30187 24.5163 8.1335 24.6369L6.54202 25.7789C6.40628 25.8844 6.21773 25.8895 6.07651 25.7914C5.70902 25.4819 5.3905 25.1914 5.10352 24.9049C4.79694 24.6019 4.50606 24.2836 4.23201 23.9509C4.12416 23.8069 4.12416 23.609 4.23201 23.4649L5.37149 21.8739C5.49213 21.7056 5.49652 21.4803 5.3825 21.3074C4.5878 20.1046 4.03013 18.761 3.73949 17.3489C3.69774 17.1462 3.53529 16.9901 3.33099 16.9564L1.40599 16.6409C1.22681 16.6113 1.08924 16.466 1.0695 16.2854C0.97586 15.4254 0.976848 14.5577 1.07251 13.698C1.09739 13.5252 1.23322 13.3896 1.40599 13.365L3.33045 13.05C3.53554 13.0164 3.69838 12.8594 3.73949 12.6556Z" fill="#6254CC"/>
<path d="M28.5036 13.5007C27.8702 13.5033 27.3068 13.9035 27.0956 14.5007H15.5037V13.0007H23.5037C24.3321 13.0007 25.0036 12.3291 25.0036 11.5007V8.90876C25.6924 8.66527 26.1055 7.96095 25.982 7.24093C25.8584 6.52091 25.2341 5.99458 24.5036 5.99458C23.7731 5.99458 23.1488 6.52091 23.0252 7.24093C22.9017 7.96095 23.3148 8.66527 24.0036 8.90876V11.5007C24.0036 11.7768 23.7797 12.0007 23.5036 12.0007H15.5037V10.5007H21.0037C21.2798 10.5007 21.5036 10.2769 21.5036 10.0007C21.5036 9.72454 21.2798 9.50069 21.0037 9.50069H15.5037V8.5007H18.5037C19.3321 8.5007 20.0037 7.82915 20.0037 7.00069V3.90881C20.6925 3.66532 21.1056 2.96099 20.9821 2.24098C20.8585 1.52096 20.2342 0.994629 19.5037 0.994629C18.7732 0.994629 18.1489 1.52096 18.0253 2.24098C17.9018 2.96099 18.3149 3.66532 19.0037 3.90881V7.00079C19.0037 7.27691 18.7798 7.50081 18.5037 7.50081H15.3717C15.1997 7.1811 14.8564 6.99176 14.4942 7.01683C10.2808 7.28372 7 10.7789 7 15.0008C7 19.2226 10.2808 22.7178 14.4942 22.9847H14.5527C14.8943 22.9876 15.2095 22.8013 15.3717 22.5007H18.5037C18.7798 22.5007 19.0037 22.7246 19.0037 23.0007V26.0927C18.3149 26.3362 17.9018 27.0405 18.0253 27.7605C18.1489 28.4806 18.7732 29.0069 19.5037 29.0069C20.2342 29.0069 20.8585 28.4806 20.9821 27.7605C21.1056 27.0405 20.6925 26.3362 20.0037 26.0927V23.0007C20.0037 22.1723 19.3322 21.5007 18.5037 21.5007H15.5037V20.5007H21.0037C21.2798 20.5007 21.5036 20.2769 21.5036 20.0008C21.5036 19.7246 21.2798 19.5007 21.0037 19.5007H15.5037V18.0008H23.5037C23.7798 18.0008 24.0037 18.2246 24.0037 18.5007V21.0927C23.3149 21.3362 22.9018 22.0405 23.0253 22.7605C23.1489 23.4806 23.7732 24.0069 24.5037 24.0069C25.2342 24.0069 25.8585 23.4806 25.9821 22.7605C26.1056 22.0405 25.6925 21.3362 25.0037 21.0927V18.5007C25.0037 17.6723 24.3322 17.0008 23.5038 17.0008H15.5037V15.5007H27.0956C27.3511 16.218 28.1042 16.6293 28.8458 16.4566C29.5874 16.284 30.0814 15.5823 29.9939 14.8259C29.9062 14.0696 29.265 13.4994 28.5036 13.5007ZM24.5037 7.00079C24.7798 7.00079 25.0036 7.22464 25.0036 7.50081C25.0036 7.77698 24.7798 8.00083 24.5037 8.00083C24.2275 8.00083 24.0037 7.77698 24.0037 7.50081C24.0037 7.22464 24.2275 7.00079 24.5037 7.00079ZM19.5037 2.00084C19.7798 2.00084 20.0037 2.22469 20.0037 2.50086C20.0037 2.77703 19.7799 3.00083 19.5037 3.00083C19.2275 3.00083 19.0037 2.77698 19.0037 2.50086C19.0037 2.22474 19.2275 2.00084 19.5037 2.00084ZM19.5037 28.0006C19.2276 28.0006 19.0037 27.7767 19.0037 27.5006C19.0037 27.2244 19.2276 27.0005 19.5037 27.0005C19.7798 27.0005 20.0037 27.2244 20.0037 27.5006C20.0037 27.7767 19.7798 28.0006 19.5037 28.0006ZM24.5037 23.0006C24.2275 23.0006 24.0037 22.7768 24.0037 22.5006C24.0037 22.2244 24.2275 22.0006 24.5037 22.0006C24.7798 22.0006 25.0036 22.2245 25.0036 22.5006C25.0036 22.7767 24.7798 23.0006 24.5037 23.0006ZM8.00379 15.0007C8.00799 11.3304 10.8431 8.28509 14.5038 8.0188V21.9827C10.8431 21.7163 8.00799 18.6709 8.00379 15.0007ZM28.5036 15.5007C28.2275 15.5007 28.0036 15.2768 28.0036 15.0007C28.0036 14.7245 28.2274 14.5007 28.5036 14.5007C28.7798 14.5007 29.0036 14.7245 29.0036 15.0007C29.0036 15.2768 28.7797 15.5007 28.5036 15.5007Z" fill="#6254CC"/>
</g>
<defs>
<clipPath id="clip0_32155_4463">
<rect width="30" height="30" fill="white"/>
</clipPath>
</defs>
</svg>
