<svg width="30" height="30" viewBox="0 0 30 30" fill="none" xmlns="http://www.w3.org/2000/svg">
<g clip-path="url(#clip0_32155_4472)">
<path d="M29.9457 24.2873C29.805 23.6099 29.4067 23.031 28.8242 22.6573C28.2417 22.2837 27.5498 22.1631 26.8751 22.3174L23.7481 23.0333V21.755C24.3752 21.1643 25.0282 20.3929 25.4926 19.688C26.307 18.4518 26.8833 17.0943 27.2056 15.6539C27.5887 13.9403 27.597 12.1262 27.2291 10.407C27.1614 10.0907 26.8499 9.88885 26.5336 9.95683C26.217 10.0244 26.0156 10.3359 26.0831 10.6524C26.4159 12.2072 26.4086 13.8483 26.0619 15.398C25.7707 16.6995 25.2498 17.926 24.5139 19.0432C24.2958 19.3744 24.0312 19.7218 23.7481 20.0537V13.559C23.7481 13.2353 23.4858 12.973 23.1621 12.973H18.5271V6.71587C18.5271 6.39314 18.2659 6.13107 17.9432 6.12993L12.7222 6.1123C12.7215 6.1123 12.721 6.1123 12.7203 6.1123C12.5652 6.1123 12.4164 6.17365 12.3067 6.28328C12.1964 6.39314 12.1344 6.54237 12.1344 6.69824V9.95317H7.49862C7.17521 9.95317 6.91269 10.2155 6.91269 10.5391V16.3415H5.60715V15.5457C5.60715 15.2223 5.34485 14.96 5.02121 14.96H4.42016C4.31785 14.3967 4.25857 13.8245 4.24461 13.2532C4.21028 11.8641 4.43046 10.505 4.89876 9.2132C5.00793 8.91199 5.13199 8.61169 5.26726 8.32101C5.4039 8.02759 5.27664 7.679 4.98344 7.54236C4.69002 7.40617 4.34143 7.53297 4.20502 7.8264C4.0551 8.14821 3.91777 8.48054 3.79715 8.8138C3.27896 10.2432 3.03543 11.7467 3.07297 13.282C3.08693 13.8432 3.14049 14.4049 3.23135 14.96H0.585937C0.262298 14.96 0 15.2223 0 15.5459V25.8451C0 26.1688 0.262298 26.4311 0.585937 26.4311H5.02121C5.34485 26.4311 5.60715 26.1688 5.60715 25.8451V25.288H7.81128L16.7397 28.7899C17.5733 29.117 18.4465 29.2816 19.3243 29.2816C19.9095 29.2816 20.4973 29.2083 21.0761 29.0611L28.0742 27.2825C29.4026 26.9449 30.2245 25.6293 29.9457 24.2873ZM22.5764 14.1449V23.3016L21.01 23.6602C20.8415 23.6987 20.6712 23.7291 20.5 23.7529C19.8473 23.8429 19.1812 23.8239 18.5353 23.6959C18.5326 23.6952 18.5298 23.6948 18.5271 23.6941V22.8056C18.9738 22.1391 19.1219 21.294 18.8878 20.5227C18.8225 20.3076 18.7299 20.1 18.612 19.9084C18.5852 19.8649 18.5573 19.8223 18.5282 19.7807C18.528 19.78 18.5275 19.7795 18.5271 19.7788V14.1447H22.5764V14.1449ZM13.3063 7.28624L17.3554 7.29974V18.8482L15.0925 17.9116L13.3063 17.1721V7.28624ZM8.08456 11.125H12.1337V16.6866L11.407 16.3859C11.3358 16.3564 11.2596 16.3413 11.1829 16.3413H8.08456V11.125ZM4.43527 25.2592H1.17187V16.1316H3.93631C3.93745 16.1316 3.93883 16.1318 3.9402 16.1318C3.94134 16.1318 3.94226 16.1316 3.9434 16.1316H4.43527V25.2592ZM27.7856 26.1468L20.7875 27.9254C19.5795 28.2324 18.3277 28.1539 17.1675 27.6991L8.13606 24.1567C8.06785 24.1299 7.9953 24.1164 7.92206 24.1164H5.60715V17.5134H11.0662L14.8574 19.0826L16.932 19.9413C17.666 20.2458 18.0173 21.1068 17.7164 21.8399C17.6559 21.9871 17.5811 22.1269 17.4818 22.2517C17.1149 22.7147 16.5108 22.9189 15.946 22.7815C15.9414 22.7804 15.9368 22.7792 15.9322 22.7781C15.8984 22.7696 15.8647 22.7598 15.8313 22.7488L11.8888 21.2332C11.8568 21.2208 11.8398 21.2144 11.8398 21.2144C11.5379 21.0981 11.199 21.2489 11.0827 21.5511C10.9666 21.853 11.1172 22.1922 11.4194 22.3082C11.4194 22.3082 13.6423 23.1629 15.3374 23.8165C15.3715 23.8298 15.4053 23.8422 15.4394 23.8536L16.7411 24.3542C17.1345 24.5055 17.5262 24.6561 17.9356 24.7607C18.631 24.9383 19.3526 25.0097 20.0695 24.9706C20.4737 24.9486 20.8772 24.8927 21.2718 24.8026L23.2931 24.34C23.2951 24.3395 23.2972 24.3386 23.2992 24.3382L27.1367 23.4597C27.5017 23.3762 27.8764 23.4414 28.1914 23.6435C28.5068 23.8458 28.7221 24.1592 28.7984 24.5258C28.9494 25.2521 28.5045 25.9641 27.7856 26.1468Z" fill="#6254CC"/>
<path d="M7.49232 4.9292C7.63239 4.9292 7.77293 4.8793 7.88485 4.77813C8.93038 3.83377 10.1789 3.08052 11.4961 2.59964C12.9232 2.0787 14.4876 1.85646 16.0205 1.95717C17.1175 2.02926 18.1923 2.26341 19.215 2.65297C19.5171 2.7681 19.8558 2.61658 19.971 2.31399C20.0863 2.01164 19.9346 1.67312 19.632 1.558C18.5004 1.12678 17.3111 0.86769 16.0974 0.78781C14.4032 0.676573 12.6731 0.922393 11.0942 1.49895C9.63694 2.03087 8.25564 2.86423 7.09956 3.90838C6.85923 4.12536 6.84046 4.49592 7.05744 4.73602C7.17303 4.86419 7.33233 4.9292 7.49232 4.9292Z" fill="#6254CC"/>
<path d="M20.7954 9.11096C20.9064 9.20732 21.0433 9.25447 21.1794 9.25447C21.3431 9.25447 21.5061 9.18626 21.6221 9.05305L26.4428 3.50382C26.6552 3.2596 26.6291 2.8895 26.3849 2.67732C26.1405 2.46515 25.7706 2.49101 25.5584 2.73523L20.7375 8.28447C20.5251 8.52869 20.5512 8.89879 20.7954 9.11096Z" fill="#6254CC"/>
<path d="M25.1116 6.60596C24.3005 6.60596 23.6406 7.26582 23.6406 8.07698C23.6406 8.88814 24.3005 9.548 25.1116 9.548C25.9228 9.548 26.5827 8.88791 26.5827 8.07698C26.5827 7.26582 25.9228 6.60596 25.1116 6.60596ZM25.1116 8.37613C24.9466 8.37613 24.8125 8.242 24.8125 8.07698C24.8125 7.91219 24.9466 7.77783 25.1116 7.77783C25.2764 7.77783 25.4108 7.91219 25.4108 8.07698C25.4108 8.242 25.2764 8.37613 25.1116 8.37613Z" fill="#6254CC"/>
<path d="M21.8616 5.30142C22.6728 5.30142 23.3327 4.64156 23.3327 3.8304C23.3327 3.01924 22.6728 2.35938 21.8616 2.35938C21.0505 2.35938 20.3906 3.01924 20.3906 3.8304C20.3906 4.64156 21.0505 5.30142 21.8616 5.30142ZM21.8616 3.53102C22.0267 3.53102 22.1608 3.66537 22.1608 3.8304C22.1608 3.99519 22.0267 4.12955 21.8616 4.12955C21.6966 4.12955 21.5625 3.99519 21.5625 3.8304C21.5625 3.66537 21.6966 3.53102 21.8616 3.53102Z" fill="#6254CC"/>
<path d="M5.41097 6.3061C5.50481 6.53132 5.73575 6.68009 5.98042 6.66727C6.22235 6.65468 6.4343 6.49103 6.50914 6.26124C6.58467 6.02938 6.50227 5.76525 6.30841 5.61716C6.11089 5.46656 5.83348 5.45718 5.62657 5.59473C5.397 5.7474 5.30499 6.05181 5.41097 6.3061Z" fill="#6254CC"/>
</g>
<defs>
<clipPath id="clip0_32155_4472">
<rect width="30" height="30" fill="white"/>
</clipPath>
</defs>
</svg>
