<svg width="30" height="30" viewBox="0 0 30 30" fill="none" xmlns="http://www.w3.org/2000/svg">
<path d="M22.5 21.5625C21.9437 21.5625 21.4 21.7274 20.9375 22.0365C20.4749 22.3455 20.1145 22.7848 19.9016 23.2987C19.6887 23.8126 19.633 24.3781 19.7415 24.9237C19.8501 25.4693 20.1179 25.9704 20.5113 26.3637C20.9046 26.7571 21.4057 27.0249 21.9513 27.1335C22.4969 27.242 23.0624 27.1863 23.5763 26.9734C24.0902 26.7605 24.5295 26.4001 24.8385 25.9375C25.1476 25.475 25.3125 24.9313 25.3125 24.375C25.3117 23.6293 25.0151 22.9144 24.4878 22.3872C23.9606 21.8599 23.2457 21.5633 22.5 21.5625ZM22.5 25.3125C22.3146 25.3125 22.1333 25.2575 21.9792 25.1545C21.825 25.0515 21.7048 24.9051 21.6339 24.7338C21.5629 24.5625 21.5443 24.374 21.5805 24.1921C21.6167 24.0102 21.706 23.8432 21.8371 23.7121C21.9682 23.581 22.1352 23.4917 22.3171 23.4555C22.499 23.4193 22.6875 23.4379 22.8588 23.5089C23.0301 23.5798 23.1765 23.7 23.2795 23.8542C23.3825 24.0083 23.4375 24.1896 23.4375 24.375C23.4372 24.6235 23.3383 24.8618 23.1626 25.0376C22.9868 25.2133 22.7485 25.3122 22.5 25.3125Z" fill="#6254CC"/>
<path d="M16.875 21.5625H9.375C9.12636 21.5625 8.8879 21.4637 8.71209 21.2879C8.53627 21.1121 8.4375 20.8736 8.4375 20.625C8.4375 20.3764 8.53627 20.1379 8.71209 19.9621C8.8879 19.7863 9.12636 19.6875 9.375 19.6875H24.375C24.5969 19.6875 24.8116 19.6088 24.9809 19.4654C25.1502 19.322 25.2631 19.1232 25.2997 18.9043L27.1747 7.65431C27.1971 7.52 27.19 7.38242 27.1538 7.25114C27.1177 7.11986 27.0534 6.99803 26.9654 6.89412C26.8774 6.79021 26.7678 6.70672 26.6442 6.64945C26.5207 6.59218 26.3862 6.56251 26.25 6.5625H11.25C11.0014 6.5625 10.7629 6.66127 10.5871 6.83709C10.4113 7.0129 10.3125 7.25136 10.3125 7.5C10.3125 7.74864 10.4113 7.9871 10.5871 8.16291C10.7629 8.33873 11.0014 8.4375 11.25 8.4375H25.1431L23.5807 17.8125H11.8995L6.50297 3.42084C6.4359 3.24216 6.31591 3.08819 6.15904 2.97949C6.00216 2.87079 5.81586 2.81254 5.625 2.8125H3.75C3.50136 2.8125 3.2629 2.91127 3.08709 3.08709C2.91127 3.2629 2.8125 3.50136 2.8125 3.75C2.8125 3.99864 2.91127 4.2371 3.08709 4.41291C3.2629 4.58873 3.50136 4.6875 3.75 4.6875H4.97541L9.89728 17.8125H9.375C8.6919 17.8076 8.03052 18.0524 7.51515 18.5008C6.99977 18.9491 6.66587 19.5703 6.57617 20.2475C6.48648 20.9247 6.64717 21.6114 7.02805 22.1784C7.40892 22.7455 7.98378 23.154 8.64459 23.3272C8.46837 23.7506 8.3982 24.2107 8.44019 24.6675C8.48218 25.1242 8.63505 25.5638 8.88553 25.948C9.13602 26.3323 9.47653 26.6495 9.87748 26.8723C10.2784 27.095 10.7277 27.2165 11.1863 27.2261C11.6449 27.2358 12.0989 27.1333 12.5088 26.9276C12.9188 26.7219 13.2723 26.4193 13.5388 26.0459C13.8052 25.6726 13.9764 25.2398 14.0376 24.7852C14.0987 24.3306 14.048 23.868 13.8897 23.4375H16.875C17.1236 23.4375 17.3621 23.3387 17.5379 23.1629C17.7137 22.9871 17.8125 22.7486 17.8125 22.5C17.8125 22.2514 17.7137 22.0129 17.5379 21.8371C17.3621 21.6613 17.1236 21.5625 16.875 21.5625ZM12.1875 24.375C12.1875 24.5604 12.1325 24.7417 12.0295 24.8958C11.9265 25.05 11.7801 25.1702 11.6088 25.2411C11.4375 25.3121 11.249 25.3307 11.0671 25.2945C10.8852 25.2583 10.7182 25.169 10.5871 25.0379C10.456 24.9068 10.3667 24.7398 10.3305 24.5579C10.2943 24.376 10.3129 24.1875 10.3839 24.0162C10.4548 23.8449 10.575 23.6985 10.7292 23.5955C10.8833 23.4925 11.0646 23.4375 11.25 23.4375C11.4985 23.4378 11.7368 23.5367 11.9126 23.7124C12.0883 23.8882 12.1872 24.1265 12.1875 24.375Z" fill="#6254CC"/>
</svg>
