<svg width="30" height="30" viewBox="0 0 30 30" fill="none" xmlns="http://www.w3.org/2000/svg">
<path d="M27.5943 19.3364C27.5943 17.9215 26.5862 16.7378 25.2505 16.4655V13.3011C25.2505 13.0128 25.1092 12.7429 24.8722 12.5786C24.6352 12.4144 24.3328 12.3768 24.0629 12.4781L22.3854 13.1072C21.2838 11.9619 19.9448 11.0994 18.4775 10.5698C19.9194 9.50142 20.8559 7.78786 20.8559 5.8595C20.8559 2.62851 18.2274 0 14.9964 0C11.7654 0 9.13686 2.62851 9.13686 5.8595C9.13686 7.78786 10.0733 9.50142 11.5152 10.5698C10.0478 11.0994 8.70888 11.962 7.6073 13.1072L5.92978 12.4781C5.65989 12.3768 5.35743 12.4144 5.12053 12.5786C4.88357 12.7429 4.74224 13.0128 4.74224 13.3011V16.4655C3.40656 16.7378 2.39844 17.9215 2.39844 19.3364C2.39844 20.7512 3.40656 21.9349 4.74224 22.2072V25.606C4.74224 25.9724 4.96953 26.3004 5.31254 26.429L14.6877 29.9447C14.8854 30.0184 15.1072 30.0184 15.3049 29.9447L24.6801 26.429C25.0231 26.3004 25.2504 25.9724 25.2504 25.606V22.2072C26.5862 21.9349 27.5943 20.7512 27.5943 19.3364ZM10.8947 5.8595C10.8947 3.59785 12.7347 1.75785 14.9964 1.75785C17.258 1.75785 19.098 3.59785 19.098 5.8595C19.098 8.12115 17.258 9.96115 14.9964 9.96115C12.7347 9.96115 10.8947 8.12115 10.8947 5.8595ZM14.9964 11.719C17.0556 11.719 19.0224 12.4632 20.557 13.7929L14.9964 15.8781L9.43576 13.7929C10.9704 12.4632 12.9372 11.719 14.9964 11.719ZM4.15629 19.3364C4.15629 18.6902 4.682 18.1645 5.32819 18.1645H5.91414V20.5083H5.32819C4.682 20.5083 4.15629 19.9825 4.15629 19.3364ZM6.50009 22.2366C7.1679 22.1005 7.67199 21.5086 7.67199 20.8012V17.8715C7.67199 17.1641 7.1679 16.5722 6.50009 16.4361V14.5694L14.1174 17.4259V27.8535L6.50009 24.997V22.2366ZM15.8753 27.8534V17.4259L23.4926 14.5694V16.4361C22.8248 16.5722 22.3207 17.1641 22.3207 17.8715V20.8012C22.3207 21.5086 22.8248 22.1005 23.4926 22.2366V24.9969L15.8753 27.8534ZM24.6645 20.5083H24.0786V18.1645H24.6645C25.3107 18.1645 25.8364 18.6902 25.8364 19.3364C25.8364 19.9825 25.3108 20.5083 24.6645 20.5083Z" fill="#6254CC"/>
</svg>
