<svg width="32" height="32" viewBox="0 0 32 32" fill="none" xmlns="http://www.w3.org/2000/svg">
<path d="M22.1655 29.2295C22.1655 29.9989 21.5396 30.6248 20.7703 30.6248C20.0009 30.6248 19.375 29.9988 19.375 29.2295V26.687H18V29.2295C18 30.757 19.2428 31.9998 20.7703 31.9998C22.2978 31.9998 23.5405 30.757 23.5405 29.2295V26.6906H22.1655V29.2295Z" fill="#6254CC"/>
<path d="M22.7127 0.0491641C22.5009 -0.0355234 22.2609 -0.00971093 22.0719 0.118164C21.883 0.246039 21.7698 0.459352 21.7698 0.687477V3.75304L20.7708 4.20716L19.7719 3.75304V0.687477C19.7719 0.459352 19.6587 0.246039 19.4698 0.118164C19.2809 -0.00971093 19.041 -0.0355234 18.829 0.0491641C16.8061 0.858414 15.4847 2.86604 15.5408 5.04485C15.586 6.79841 16.5175 8.40716 18.0006 9.33773V11.191L17.3755 11.872L18.0006 12.566V14.6287H19.3756V8.93985C19.3756 8.68348 19.233 8.44848 19.0056 8.3301C17.7522 7.67741 16.9513 6.40504 16.9153 5.00948C16.8835 3.77323 17.4531 2.61166 18.3969 1.86998V4.19573C18.3969 4.46529 18.5545 4.71004 18.7999 4.8216L20.4863 5.58823C20.6672 5.67035 20.8745 5.67035 21.0553 5.58823L22.7418 4.8216C22.9873 4.71004 23.1448 4.46529 23.1448 4.19573V1.86523C24.0688 2.58273 24.6278 3.6921 24.6278 4.90723C24.6278 6.35535 23.827 7.66873 22.538 8.33473C22.3096 8.45273 22.1661 8.68841 22.1661 8.94548V14.6286H23.5411V9.34479C25.0697 8.39216 26.0028 6.72835 26.0028 4.90716C26.0028 2.7556 24.7113 0.848664 22.7127 0.0491641Z" fill="#6254CC"/>
<path d="M27.3895 19.1505C27.3895 18.3122 26.9171 17.5822 26.2245 17.2126C26.4044 16.8943 26.5072 16.5268 26.5072 16.1358C26.5072 14.9255 25.5226 13.941 24.3124 13.941H17.1816C16.8019 13.941 16.4941 14.2488 16.4941 14.6285C16.4941 15.0082 16.8019 15.316 17.1816 15.316H24.3124C24.7644 15.316 25.1323 15.6837 25.1323 16.1358C25.1323 16.5879 24.7644 16.9556 24.3124 16.9556H21.5241C21.1444 16.9556 20.8366 17.2634 20.8366 17.6431C20.8366 18.0228 21.1444 18.3306 21.5241 18.3306H25.1947C25.6467 18.3306 26.0145 18.6984 26.0145 19.1504C26.0145 19.6024 25.6467 19.9702 25.1947 19.9702H21.5241C21.1444 19.9702 20.8366 20.278 20.8366 20.6577C20.8366 21.0374 21.1444 21.3452 21.5241 21.3452H24.3124C24.7644 21.3452 25.1323 21.713 25.1323 22.165C25.1323 22.6171 24.7644 22.9849 24.3124 22.9849H21.5241C21.1444 22.9849 20.8366 23.2927 20.8366 23.6724C20.8366 24.052 21.1444 24.3599 21.5241 24.3599H23.3076C23.7596 24.3599 24.1274 24.7276 24.1274 25.1797C24.1274 25.6317 23.7596 25.9995 23.3076 25.9995H14.0251L11.4607 24.5769C11.3586 24.5203 11.2439 24.4906 11.1272 24.4906H9.36719V16.8077H11.1272C11.3093 16.8077 11.4839 16.7355 11.6128 16.6069L15.6627 12.5659H17.9989V11.1909H15.3784C15.1963 11.1909 15.0216 11.2632 14.8928 11.3917L10.8429 15.4327H9.36406C9.33244 15.0824 9.03831 14.8077 8.67969 14.8077H5.30469C4.925 14.8077 4.61719 15.1155 4.61719 15.4952V25.8032C4.61719 26.1829 4.925 26.4907 5.30469 26.4907H8.67969C9.03831 26.4907 9.33244 26.2161 9.36406 25.8657H10.9493L13.5137 27.2883C13.6158 27.3449 13.7305 27.3746 13.8472 27.3746H23.3076C24.5178 27.3746 25.5024 26.39 25.5024 25.1798C25.5024 24.8084 25.4098 24.4583 25.2462 24.1513C25.9908 23.7998 26.5073 23.0416 26.5073 22.1651C26.5073 21.7742 26.4045 21.4066 26.2246 21.0883C26.9171 20.7189 27.3895 19.9888 27.3895 19.1505ZM5.99213 16.1827H7.99213V25.1157H5.99213V16.1827Z" fill="#6254CC"/>
</svg>
