<svg width="30" height="30" viewBox="0 0 30 30" fill="none" xmlns="http://www.w3.org/2000/svg">
<g clip-path="url(#clip0_32155_4518)">
<path d="M27.7947 15.0469H27.1159C26.6732 9.61172 22.109 5.32413 16.5617 5.32413H15.9183V5.17976C16.6732 4.82907 17.1986 4.06062 17.1986 3.17058C17.1986 1.95078 16.2124 0.958496 15.0001 0.958496C13.7879 0.958496 12.8017 1.95084 12.8017 3.17058C12.8017 4.0605 13.3269 4.82884 14.0816 5.17952V5.32407H13.4383C7.89098 5.32407 3.32671 9.61166 2.88404 15.0469H2.20529C0.989236 15.0469 0 16.0362 0 17.2522V17.2658C0 18.4818 0.989236 19.4712 2.20529 19.4712H8.58291C8.58291 20.0656 8.58291 27.8091 8.58291 28.1232C8.58291 28.6304 8.99412 29.0415 9.50125 29.0415H19.1503C19.6575 29.0415 20.0687 28.6303 20.0687 28.1232V24.6391L22.1423 19.4712H27.7947C29.0107 19.4712 30 18.4819 30 17.2658V17.2522C29.9999 16.0362 29.0107 15.0469 27.7947 15.0469ZM15.0001 2.79517C15.1997 2.79517 15.3619 2.96351 15.3619 3.17052C15.3619 3.37753 15.1997 3.54587 15.0001 3.54587C14.8007 3.54587 14.6384 3.37753 14.6384 3.17052C14.6384 2.96357 14.8007 2.79517 15.0001 2.79517ZM13.4383 7.16087H16.5617C21.0958 7.16087 24.8357 10.6258 25.2723 15.0469H4.72769C5.16438 10.6258 8.9043 7.16087 13.4383 7.16087ZM18.232 27.2049H18.2319H10.4196V25.3801H18.232V27.2049ZM18.5293 23.5434H10.4196V19.4712H11.7955L11.5606 20.6372C11.3953 21.4578 12.3323 22.0566 13.0077 21.5564L15.8214 19.4712H20.1632L18.5293 23.5434ZM28.1632 17.2658C28.1632 17.469 27.9979 17.6344 27.7947 17.6344C27.6185 17.6344 2.66648 17.6344 2.20523 17.6344C2.00203 17.6344 1.83668 17.4691 1.83668 17.2658V17.2522C1.83668 17.049 2.00197 16.8836 2.20523 16.8836C2.54584 16.8836 27.2199 16.8836 27.7947 16.8836C27.9979 16.8836 28.1632 17.049 28.1632 17.2522V17.2658Z" fill="#6254CC"/>
</g>
<defs>
<clipPath id="clip0_32155_4518">
<rect width="30" height="30" fill="white"/>
</clipPath>
</defs>
</svg>
