<svg width="30" height="30" viewBox="0 0 30 30" fill="none" xmlns="http://www.w3.org/2000/svg">
<g clip-path="url(#clip0_32155_4525)">
<path d="M21.1254 14.7984C21.055 14.5015 20.837 14.2628 20.5478 14.1667L16.2356 12.729L19.2981 6.60419C19.4903 6.21881 19.3753 5.75018 19.026 5.49782C18.6749 5.24633 18.1943 5.28413 17.8904 5.58963L9.10137 14.3787C8.88593 14.5941 8.79751 14.9057 8.86706 15.2018C8.93743 15.4988 9.15546 15.7374 9.44467 15.8335L13.7568 17.2712L10.6944 23.396C10.5021 23.7814 10.6171 24.25 10.9665 24.5024C11.3163 24.7531 11.796 24.7164 12.102 24.4106L20.8911 15.6215C21.1065 15.4061 21.1949 15.0945 21.1254 14.7984Z" fill="#6254CC"/>
<path d="M15 0C10.5393 0 6.32584 2.07457 3.51562 5.42162V4.45312C3.51562 3.96732 3.12252 3.57422 2.63672 3.57422C2.15092 3.57422 1.75781 3.96732 1.75781 4.45312V8.18678C1.75781 9.02555 2.84121 9.14561 2.63672 9.06568C2.65477 9.06568 2.67275 9.06481 2.6908 9.06398L6.20643 8.84596C6.69135 8.8159 7.05961 8.39877 7.02955 7.91467C6.99949 7.43057 6.57639 7.06582 6.09826 7.09154L4.31736 7.20229C6.78416 3.84674 10.7754 1.75781 15 1.75781C22.2698 1.75781 28.2422 7.73016 28.2422 15C28.2422 15.4858 28.6353 15.8789 29.1211 15.8789C29.6069 15.8789 30 15.4858 30 15C30 6.76113 23.2389 0 15 0Z" fill="#6254CC"/>
<path d="M27.3092 20.936L23.7936 21.154C23.3087 21.1841 22.9404 21.6012 22.9704 22.0853C23.0005 22.5694 23.4331 22.9385 23.9017 22.9085L25.6826 22.7977C23.2158 26.1533 19.2246 28.2422 15 28.2422C7.73016 28.2422 1.75781 22.2698 1.75781 15C1.75781 14.5142 1.36471 14.1211 0.878906 14.1211C0.393105 14.1211 0 14.5142 0 15C0 23.2389 6.76113 30 15 30C19.4607 30 23.6742 27.9254 26.4844 24.5784V25.5469C26.4844 26.0327 26.8775 26.4258 27.3633 26.4258C27.8491 26.4258 28.2422 26.0327 28.2422 25.5469V21.8132C28.2422 21.3304 27.7792 20.9095 27.3092 20.936Z" fill="#6254CC"/>
</g>
<defs>
<clipPath id="clip0_32155_4525">
<rect width="30" height="30" fill="white"/>
</clipPath>
</defs>
</svg>
