<svg width="59" height="57" viewBox="0 0 59 57" fill="none" xmlns="http://www.w3.org/2000/svg">
<path fill-rule="evenodd" clip-rule="evenodd" d="M13.6546 47.9778C5.90284 46.6967 0 40.1223 0 32.2045C0 28.8188 1.07942 25.6786 2.92111 23.0929L2.20661 22.3967C1.55214 21.7591 1.55214 20.7187 2.20661 20.081L3.97776 18.3553C4.63223 17.7175 5.69998 17.7175 6.35456 18.3553L7.06906 19.0514C8.95817 17.7739 11.1358 16.8728 13.4873 16.4597V15.4018C12.6439 15.3431 11.9168 14.6148 11.9168 13.6648V12.3901C11.9168 11.399 12.7082 10.6492 13.5974 10.6492H19.2433C20.1325 10.6492 20.9239 11.399 20.9239 12.3901V13.6648C20.9239 14.6148 20.1968 15.3431 19.3534 15.4018V16.4597C21.7049 16.8728 23.8825 17.7739 25.7716 19.0514L26.4861 18.3553C27.1407 17.7175 28.2084 17.7175 28.8629 18.3553L30.6341 20.081C31.2885 20.7187 31.2885 21.7591 30.6341 22.3967L29.9196 23.0929C31.7613 25.6786 32.8407 28.8188 32.8407 32.2045C32.8407 33.7061 32.6284 35.1592 32.2314 36.5371H33.2801C33.8012 36.5371 34.2237 36.9488 34.2237 37.4565V56.0806C34.2237 56.5884 33.8012 57 33.2801 57H26.7448C26.2237 57 25.8012 56.5884 25.8012 56.0806V45.3374C24.66 46.1128 23.413 46.7506 22.0855 47.226V56.0806C22.0855 56.5884 21.663 57 21.142 57H14.5981C14.077 57 13.6546 56.5884 13.6546 56.0806V47.9778ZM4.09323 21.6347C4.55451 21.1244 5.04869 20.643 5.57248 20.1935L5.16616 19.7976L3.68703 21.2388L4.09323 21.6347ZM15.3744 16.2372C15.7202 16.2159 16.069 16.2052 16.4203 16.2052C16.7717 16.2052 17.1204 16.2159 17.4663 16.2372V15.4057H15.3744V16.2372ZM27.2682 20.1935C27.792 20.643 28.286 21.1244 28.7473 21.6347L29.1536 21.2388L27.6745 19.7976L27.2682 20.1935ZM31.5746 38.3758C30.6804 40.4579 29.3474 42.3166 27.6883 43.8422V55.1613H32.3366V38.3758H31.5746ZM20.1984 47.7782C18.9854 48.0565 17.7205 48.2037 16.4203 48.2037C16.1256 48.2037 15.8326 48.1961 15.5417 48.1812V55.1613H20.1984V47.7782ZM16.4203 18.0439C8.39381 18.0439 1.8871 24.3838 1.8871 32.2045C1.8871 40.0251 8.39381 46.365 16.4203 46.365C24.4467 46.365 30.9536 40.0251 30.9536 32.2045C30.9536 24.3838 24.4467 18.0439 16.4203 18.0439ZM16.4203 19.4954C23.6239 19.4954 29.4638 25.1856 29.4638 32.2045C29.4638 39.2234 23.6239 44.9136 16.4203 44.9136C9.2167 44.9136 3.37672 39.2234 3.37672 32.2045C3.37672 25.1856 9.2167 19.4954 16.4203 19.4954ZM16.4203 21.3341C10.259 21.3341 5.26382 26.201 5.26382 32.2045C5.26382 38.2079 10.259 43.0749 16.4203 43.0749C22.5817 43.0749 27.5767 38.2079 27.5767 32.2045C27.5767 26.201 22.5817 21.3341 16.4203 21.3341ZM18.846 33.1239C18.4682 34.0696 17.5246 34.7399 16.4203 34.7399C14.9832 34.7399 13.8183 33.6047 13.8183 32.2045C13.8183 31.1286 14.5061 30.2091 15.4768 29.8409V26.6805C15.4768 26.1731 15.8996 25.7611 16.4203 25.7611C16.9411 25.7611 17.3639 26.1731 17.3639 26.6805V29.841C18.0419 30.0982 18.582 30.6244 18.846 31.2852H22.0898C22.6105 31.2852 23.0333 31.6972 23.0333 32.2045C23.0333 32.7119 22.6105 33.1239 22.0898 33.1239H18.846ZM16.4203 31.5078C16.0255 31.5078 15.7054 31.8197 15.7054 32.2045C15.7054 32.5893 16.0255 32.9012 16.4203 32.9012C16.8152 32.9012 17.1352 32.5892 17.1352 32.2045C17.1352 31.8198 16.8152 31.5078 16.4203 31.5078ZM23.8997 38.192C24.2679 38.5507 24.2679 39.1333 23.8997 39.492C23.5315 39.8508 22.9335 39.8508 22.5653 39.492L21.8269 38.7725C21.4586 38.4138 21.4586 37.8312 21.8269 37.4724C22.1951 37.1137 22.7931 37.1137 23.1613 37.4724L23.8997 38.192ZM10.2754 39.492C9.90714 39.8508 9.30917 39.8509 8.94095 39.492C8.57273 39.1333 8.57273 38.5507 8.94095 38.192L9.67939 37.4724C10.0476 37.1137 10.6455 37.1137 11.0137 37.4724C11.382 37.8312 11.382 38.4138 11.0138 38.7725L10.2754 39.492ZM8.94095 26.217C8.57273 25.8582 8.57273 25.2756 8.94095 24.9168C9.30917 24.558 9.90714 24.558 10.2754 24.9169L11.0138 25.6364C11.382 25.9952 11.382 26.5777 11.0137 26.9365C10.6455 27.2953 10.0476 27.2953 9.67939 26.9365L8.94095 26.217ZM6.78647 33.1238C6.26575 33.1238 5.84292 32.7118 5.84292 32.2044C5.84292 31.6971 6.26575 31.2851 6.78647 31.2851H7.83074C8.35146 31.2851 8.77429 31.6971 8.77429 32.2044C8.77429 32.7118 8.35146 33.1238 7.83074 33.1238H6.78647ZM17.3639 41.5913C17.3639 42.0986 16.9411 42.5106 16.4203 42.5106C15.8996 42.5106 15.4768 42.0986 15.4768 41.5913V40.5738C15.4768 40.0664 15.8996 39.6544 16.4203 39.6544C16.9411 39.6544 17.3639 40.0664 17.3639 40.5738V41.5913ZM22.5653 24.9168C22.9335 24.558 23.5315 24.558 23.8997 24.9168C24.2679 25.2757 24.2679 25.8582 23.8997 26.217L23.1613 26.9365C22.7931 27.2953 22.1951 27.2953 21.8269 26.9365C21.4586 26.5777 21.4586 25.9952 21.8269 25.6364L22.5653 24.9168ZM26.0542 31.2851C26.5749 31.2851 26.9978 31.6971 26.9978 32.2044C26.9978 32.7118 26.5749 33.1238 26.0542 33.1238H25.0099C24.4892 33.1238 24.0664 32.7118 24.0664 32.2044C24.0664 31.6971 24.4892 31.2851 25.0099 31.2851H26.0542ZM15.4768 22.8176C15.4768 22.3102 15.8996 21.8982 16.4203 21.8982C16.9411 21.8982 17.3639 22.3102 17.3639 22.8176V23.8352C17.3639 24.3426 16.9411 24.7544 16.4203 24.7544C15.8996 24.7544 15.4768 24.3426 15.4768 23.8352V22.8176ZM13.8038 12.4879V13.567H19.0368V12.4879H13.8038ZM46.6238 1.99489C47.4164 2.21174 48.1799 2.5134 48.9018 2.89516L50.3673 2.27437C50.7193 2.12532 51.1288 2.19875 51.4032 2.46019L53.6403 4.59149C53.924 4.86178 54.0039 5.27606 53.84 5.62818L53.2022 7.00008C53.5971 7.68178 53.91 8.40233 54.136 9.15126L55.6202 9.69552C55.9879 9.83032 56.2314 10.1731 56.2314 10.5559V13.5708C56.2314 13.9536 55.9879 14.2964 55.6202 14.4312L54.1354 14.9756C53.909 15.7221 53.5951 16.4416 53.2017 17.1225L53.84 18.4955C54.0039 18.8477 53.924 19.262 53.6403 19.5323L51.4032 21.6636C51.1291 21.9247 50.7202 21.9983 50.3685 21.8498L48.9032 21.2314C48.1822 21.6132 47.4168 21.9151 46.6234 22.1321L46.0542 23.5411C45.9122 23.8927 45.5639 24.1238 45.1763 24.1238H42.0118C41.6242 24.1238 41.2759 23.8927 41.1339 23.5411L40.5648 22.1322C39.7699 21.9149 39.0056 21.6116 38.2834 21.2308L36.8164 21.8498C36.4647 21.9983 36.0558 21.9247 35.7817 21.6636L33.5447 19.5323C33.2606 19.2616 33.1809 18.8467 33.3454 18.4943L33.9852 17.1234C33.5909 16.4437 33.2781 15.7229 33.0507 14.9761L31.5648 14.4312C31.197 14.2964 30.9536 13.9536 30.9536 13.5708V10.5559C30.9536 10.1731 31.197 9.83032 31.5648 9.69552L33.0504 9.1508C33.2779 8.40221 33.5908 7.68213 33.9854 7.00089L33.3454 5.62944C33.1809 5.2771 33.2606 4.86212 33.5447 4.59149L35.7817 2.46019C36.0562 2.19875 36.4657 2.12532 36.8176 2.27437L38.2831 2.89528C39.0052 2.51329 39.769 2.21151 40.562 1.99466L41.1341 0.581837C41.2763 0.230758 41.6244 0 42.0118 0H45.1763C45.5642 0 45.9126 0.231333 46.0545 0.583101L46.6238 1.99489ZM45.0438 3.10455L44.5332 1.83871H42.6538L42.1406 3.10581C42.0268 3.3869 41.7786 3.59548 41.4765 3.66386C40.5406 3.87577 39.648 4.22788 38.8276 4.70951C38.5661 4.86304 38.2445 4.88384 37.9645 4.76513L36.6473 4.2072L35.3372 5.45534L35.9077 6.67785C36.0392 6.95952 36.0163 7.28669 35.8471 7.54848C35.3436 8.32694 34.9753 9.1739 34.751 10.0646C34.6768 10.3592 34.4583 10.5991 34.1669 10.706L32.8407 11.1922V12.9345L34.1669 13.4209C34.458 13.5275 34.6765 13.7672 34.7508 14.0614C34.9751 14.9492 35.343 15.7987 35.8462 16.574C36.0163 16.8359 36.0394 17.1638 35.9077 17.4459L35.3372 18.6684L36.6479 19.9172L37.9657 19.361C38.2446 19.2434 38.5648 19.2638 38.8256 19.4161C39.6465 19.8952 40.5397 20.2507 41.4791 20.4628C41.7816 20.531 42.0304 20.7401 42.1441 21.0217L42.6544 22.285H44.5336L45.0439 21.0217C45.1576 20.7403 45.4061 20.5314 45.7084 20.4629C46.6438 20.2511 47.5389 19.8993 48.356 19.4179C48.6174 19.264 48.939 19.2428 49.2193 19.361L50.537 19.9171L51.8485 18.6677L51.2799 17.4448C51.1494 17.164 51.1718 16.8383 51.3398 16.5772C51.8403 15.7989 52.212 14.9522 52.4335 14.0642C52.5072 13.7687 52.726 13.5278 53.018 13.4209L54.3443 12.9345V11.1922L53.018 10.706C52.7257 10.5988 52.5068 10.3577 52.4333 10.062C52.212 9.17217 51.844 8.32614 51.3411 7.54848C51.172 7.28715 51.1491 6.96044 51.2799 6.679L51.8485 5.45603L50.5376 4.2072L49.2204 4.76513C48.9404 4.88384 48.6188 4.86304 48.3573 4.70951C47.5369 4.22788 46.6443 3.87577 45.7084 3.66386C45.4059 3.59537 45.1574 3.38621 45.0438 3.10455ZM43.5924 5.88399C47.1692 5.88399 50.0587 8.65423 50.0587 12.0618C50.0587 15.4693 47.169 18.2428 43.5924 18.2428C40.0158 18.2428 37.1295 15.4695 37.1295 12.0618C37.1295 8.65412 40.0157 5.88399 43.5924 5.88399ZM43.5924 7.7227C41.0698 7.7227 39.0166 9.65851 39.0166 12.0618C39.0166 14.4654 41.0697 16.404 43.5924 16.404C46.1153 16.404 48.1716 14.4655 48.1716 12.0618C48.1716 9.6584 46.1152 7.7227 43.5924 7.7227ZM46.3618 30.7667V56.0806C46.3618 56.5884 45.9394 57 45.4183 57H38.883C38.3618 57 37.9395 56.5884 37.9395 56.0806V30.7667C37.9395 30.259 38.3618 29.8473 38.883 29.8473H45.4183C45.9394 29.8473 46.3618 30.259 46.3618 30.7667ZM44.4747 31.686H39.8266V55.1613H44.4747V31.686ZM51.0212 23.8347H57.5564C58.0775 23.8347 58.5 24.2464 58.5 24.7541V56.0806C58.5 56.5884 58.0775 57 57.5564 57H51.0212C50.5 57 50.0777 56.5884 50.0777 56.0806V24.7541C50.0777 24.2464 50.5 23.8347 51.0212 23.8347ZM51.9647 25.6734V55.1613H56.6129V25.6734H51.9647Z" fill="#9588F8"/>
</svg>
