<svg width="60" height="60" viewBox="0 0 60 60" fill="none" xmlns="http://www.w3.org/2000/svg">
<path fill-rule="evenodd" clip-rule="evenodd" d="M57.4343 44.183C53.6769 47.2616 48.0064 51.4798 43.3582 54.0871C39.9134 56.0188 36.2572 57.8394 32.8611 58.0781C30.0544 58.2759 26.9876 57.3304 24.0652 56.9644C19.5669 56.4041 14.822 56.4533 10.2332 56.5001H10.1374V47.3882C11.8317 47.0439 13.5306 46.713 15.2293 46.3121C16.5498 46.0005 17.6972 45.5039 18.8073 45.0228C20.8129 44.1524 22.545 43.401 24.807 43.9897L33.9286 46.3683C34.8444 46.6085 35.3653 47.4466 35.0892 48.2394C34.7894 49.1005 33.7297 49.386 32.8389 49.2242C30.9809 48.8848 28.5661 48.3333 26.8392 48.1911C26.0742 48.1282 25.3084 48.1465 24.4983 48.2472C23.9242 48.3186 23.5257 48.7791 23.6091 49.2756C23.6916 49.773 24.2241 50.1183 24.7991 50.0469C25.4408 49.9671 26.0433 49.9525 26.6405 50.0009C28.227 50.1302 30.6419 50.6867 32.4068 51.0033C34.1744 51.3203 35.9685 50.6995 36.8091 49.3647C37.9529 49.268 39.0587 49.0691 40.1023 48.7659C44.0883 47.611 50.2865 44.5637 55.5555 41.9933C56.1979 41.6809 56.9736 41.8053 57.4431 42.2987L57.5603 42.4223C58.0581 42.9451 58.0022 43.7172 57.4343 44.183ZM8.03593 57.7451C8.03593 57.9814 7.80436 58.1819 7.53095 58.1819H5.40217C5.12892 58.1819 4.89718 57.9816 4.89718 57.7451V46.3866C4.89718 46.1487 5.12876 45.9499 5.40217 45.9499H7.53111C7.80436 45.9499 8.0361 46.1486 8.0361 46.3866L8.03593 57.7451ZM25.8931 23.6797C26.2997 24.0344 26.9683 24.0354 27.3787 23.6797C27.7895 23.3244 27.7895 22.7487 27.3787 22.3949L25.603 20.859C27.3734 20.2254 29.3586 21.354 29.3586 23.0372C29.3586 24.335 28.1366 25.3919 26.6361 25.3919C24.699 25.3919 23.384 23.6869 24.1175 22.1437L25.8931 23.6797ZM22.5645 20.8008L19.2509 17.9364C17.9562 19.3356 17.1788 21.1085 17.1788 23.0373C17.1788 27.5473 21.4207 31.2168 26.6359 31.2168C31.8503 31.2168 36.093 27.5473 36.093 23.0373C36.093 18.5267 31.8503 14.8579 26.6359 14.8579C24.4058 14.8579 22.3559 15.5303 20.7382 16.6509L24.05 19.5159C27.2446 17.7582 31.4607 19.7462 31.4607 23.0373C31.4607 25.3376 29.2955 27.2103 26.6359 27.2103C22.8263 27.2103 20.5336 23.5582 22.5645 20.8008ZM9.15671 23.0373C9.15671 30.0118 14.7509 36.1181 22.5378 37.7368C23.0507 37.3944 23.7145 37.1865 24.4412 37.1865H30.9016V34.8019C30.9016 33.5501 32.2221 32.5316 33.8452 32.5316H40.3056V29.3004C40.3056 28.1323 41.5977 27.2165 43.2491 27.2165H43.4382C46.6266 17.5949 38.2744 7.9196 26.6361 7.9196C22.1946 7.9196 18.1347 9.36091 15.0484 11.7295L19.2432 15.3582C21.2487 13.9107 23.8258 13.0396 26.6362 13.0396C33.0095 13.0396 38.1955 17.5242 38.1955 23.0372C38.1955 28.5503 33.0095 33.0349 26.6362 33.0349C20.262 33.0349 15.0768 28.5503 15.0768 23.0372C15.0768 20.6064 16.0858 18.3775 17.7576 16.6429L13.562 13.0149C10.8233 15.6845 9.15671 19.1958 9.15671 23.0373ZM3.34072 6.52578L6.28957 6.24337C6.77854 6.19573 7.16373 5.86272 7.21864 5.43981L7.54517 2.88935L10.8774 5.77141L10.4577 9.04415L6.67378 9.40798L3.34072 6.52578ZM30.9016 43.6811V39.0047H24.4412C23.9603 39.0047 23.5999 39.2602 23.5999 39.4889V41.968C24.174 41.9956 24.7776 42.0832 25.4138 42.2489L30.9016 43.6811ZM34.5357 44.6274C36.0691 45.0273 37.1022 46.1886 37.2476 47.4894C38.3911 47.3445 39.253 47.1194 40.3056 46.7702V34.3496H33.8452C33.3713 34.3496 33.0039 34.5921 33.0039 34.8016V44.2283L34.5357 44.6274ZM49.7093 29.3101C49.6658 29.2265 49.3676 29.0345 48.8672 29.0345H43.2489C42.7485 29.0345 42.4503 29.2265 42.4076 29.3101V45.9998C44.6021 45.1318 47.1445 43.9658 49.7091 42.7416L49.7093 29.3101ZM59.1834 41.2665L59.0654 41.143C57.9561 39.9763 56.0456 39.6686 54.5236 40.4092L51.8118 41.7294V29.3002C51.8118 28.1321 50.5179 27.2164 48.8673 27.2164H45.615C48.7417 16.52 39.3986 6.10131 26.6361 6.10131C21.6141 6.10131 17.0289 7.74532 13.56 10.4423L12.5094 9.53363L13.0222 5.53791C13.0569 5.26242 12.9459 4.98991 12.7205 4.79414L7.48486 0.265822C6.86385 -0.271295 5.79341 0.0538015 5.69764 0.809157L5.22109 4.51555L0.935746 4.92771C0.0633802 5.0104 -0.31495 5.93523 0.308356 6.47348L5.54402 11.0018C5.77494 11.2021 6.08038 11.2906 6.40299 11.2627L11.0237 10.8192L12.0725 11.7279C5.63963 17.9189 5.32814 27.301 11.5109 33.7948C14.0967 36.5102 17.6117 38.4697 21.5048 39.3839C21.5022 39.4192 21.4978 39.4546 21.4978 39.4891V42.1286C19.0324 42.6151 17.0426 44.0007 14.6772 44.5585C13.1299 44.9234 11.5475 45.2293 9.95259 45.5585C9.57017 44.7234 8.6295 44.1317 7.53095 44.1317H5.40217C3.96549 44.1317 2.79586 45.1425 2.79586 46.3866V57.7451C2.79586 58.9892 3.96549 60 5.40217 60H7.53111C8.73801 60 9.75403 59.2855 10.0479 58.32C14.6859 58.2859 19.2814 58.2041 23.7663 58.7644C26.8591 59.1507 29.7867 60.1163 33.0325 59.891C36.8918 59.6194 40.8258 57.6737 44.5022 55.6129C50.5029 52.2481 57.0254 47.0237 58.8809 45.5024C60.2473 44.3842 60.3795 42.5229 59.1834 41.2665Z" fill="#9588F8"/>
</svg>
