<svg width="36" height="44" viewBox="0 0 36 44" fill="none" xmlns="http://www.w3.org/2000/svg">
<path d="M2.34755 11.3506C2.37897 11.461 2.44628 11.5578 2.53885 11.6256L7.60263 15.3342V18.5105L5.86179 20.2513C5.65566 20.4547 5.52671 20.7235 5.49709 21.0115C5.46747 21.2996 5.53902 21.589 5.69946 21.83L6.7393 23.4154C6.38687 24.0852 6.09635 24.7859 5.87133 25.5086L4.01612 25.8942C3.73222 25.9512 3.47701 26.1052 3.29427 26.3298C3.11153 26.5544 3.01265 26.8356 3.0146 27.1251V31.3156C3.01262 31.6052 3.11148 31.8864 3.29421 32.111C3.47693 32.3356 3.73214 32.4897 4.01603 32.5467L5.87099 32.9322C6.09598 33.655 6.38651 34.3558 6.73896 35.0257L5.69912 36.6109C5.53868 36.852 5.46714 37.1413 5.49676 37.4294C5.52638 37.7174 5.65532 37.9862 5.86145 38.1895L8.82458 41.1526C9.02785 41.359 9.29668 41.4881 9.58483 41.5178C9.87299 41.5474 10.1625 41.4757 10.4035 41.3151L11.9889 40.2752C12.6588 40.6276 13.3595 40.9181 14.0822 41.1432L14.4678 42.998C14.5247 43.282 14.6787 43.5373 14.9033 43.7202C15.128 43.903 15.4092 44.002 15.6989 44H19.8895C20.179 44.002 20.4602 43.9031 20.6848 43.7204C20.9094 43.5377 21.0634 43.2825 21.1204 42.9986L21.506 41.1436C22.2288 40.9185 22.9296 40.628 23.5996 40.2756L25.1848 41.3151C25.4258 41.4755 25.7152 41.5471 26.0032 41.5175C26.2913 41.4879 26.56 41.3589 26.7633 41.1527L29.7266 38.1896C29.9327 37.9862 30.0616 37.7175 30.0912 37.4295C30.1209 37.1414 30.0493 36.8521 29.8889 36.611L28.849 35.0256C29.2017 34.3558 29.4923 33.6551 29.7174 32.9323L31.5722 32.5468C31.8561 32.4898 32.1114 32.3357 32.2941 32.1111C32.4768 31.8864 32.5757 31.6052 32.5737 31.3156V27.1251C32.5757 26.8356 32.4768 26.5544 32.2941 26.3297C32.1113 26.1051 31.8561 25.9511 31.5722 25.8941L29.7173 25.5085C29.4923 24.7857 29.2017 24.085 28.8493 23.415L29.8891 21.8298C30.0496 21.5888 30.1211 21.2994 30.0915 21.0114C30.0619 20.7234 29.9329 20.4546 29.7268 20.2513L27.9859 18.5103V15.3341L33.0498 11.6255C33.1423 11.5577 33.2096 11.4609 33.2411 11.3505L35.5076 3.38104C35.656 2.86488 35.598 2.31123 35.3458 1.83703C35.0937 1.36283 34.6671 1.0052 34.1561 0.839695L34.0007 0.788906C33.5053 0.623482 32.9655 0.652214 32.4904 0.869301C32.0153 1.08639 31.6403 1.47566 31.441 1.95852L28.7606 8.34247L21.6894 11.3275H13.8988L6.82756 8.34247L4.14726 1.95852C3.94801 1.47566 3.57297 1.08639 3.09787 0.869301C2.62276 0.652214 2.08299 0.623482 1.58752 0.788906L1.43215 0.839695C0.921199 1.00521 0.494581 1.36282 0.242393 1.83702C-0.00979428 2.31122 -0.0678069 2.86487 0.0806071 3.38104L2.34755 11.3506ZM29.0262 21.2643L27.8179 23.1071C27.7662 23.186 27.7371 23.2775 27.7338 23.3717C27.7304 23.4659 27.753 23.5592 27.799 23.6415C28.2317 24.4158 28.5726 25.2379 28.8148 26.0912C28.8404 26.1819 28.8905 26.2638 28.9595 26.328C29.0284 26.3922 29.1137 26.4363 29.2059 26.4555L31.3624 26.9038C31.414 26.9129 31.4606 26.9403 31.4937 26.981C31.5268 27.0216 31.5442 27.0727 31.5428 27.1251V31.3156C31.5442 31.3679 31.5269 31.419 31.4939 31.4596C31.4609 31.5002 31.4144 31.5277 31.3629 31.537L29.2066 31.9852C29.1143 32.0044 29.0291 32.0485 28.9601 32.1128C28.8912 32.177 28.8411 32.2589 28.8154 32.3496C28.5732 33.2028 28.2322 34.0248 27.7993 34.7988C27.7533 34.8811 27.7308 34.9745 27.7341 35.0687C27.7374 35.1629 27.7665 35.2544 27.8182 35.3332L29.0262 37.1766C29.056 37.2195 29.0694 37.2717 29.0641 37.3238C29.0588 37.3758 29.035 37.4242 28.997 37.4602L26.0338 40.4234C25.9978 40.4613 25.9495 40.4851 25.8974 40.4905C25.8454 40.4959 25.7932 40.4824 25.7502 40.4526L23.9074 39.2442C23.8286 39.1925 23.7371 39.1634 23.6429 39.1601C23.5487 39.1567 23.4554 39.1793 23.3731 39.2252C22.5988 39.658 21.7766 39.999 20.9232 40.2411C20.8326 40.2668 20.7507 40.3168 20.6865 40.3858C20.6223 40.4547 20.5783 40.54 20.5591 40.6322L20.1108 42.7883C20.1017 42.8399 20.0743 42.8865 20.0336 42.9196C19.993 42.9527 19.9419 42.9702 19.8895 42.9688H15.6989C15.6465 42.9702 15.5953 42.9527 15.5547 42.9196C15.514 42.8865 15.4866 42.8399 15.4774 42.7883L15.0292 40.632C15.01 40.5398 14.9659 40.4546 14.9017 40.3856C14.8375 40.3167 14.7556 40.2666 14.665 40.2409C13.8118 39.9987 12.9898 39.6576 12.2158 39.2247C12.1335 39.1787 12.0401 39.1562 11.9459 39.1595C11.8517 39.1629 11.7602 39.192 11.6814 39.2437L9.8383 40.4523C9.79535 40.4822 9.74311 40.4957 9.69108 40.4903C9.63905 40.4849 9.59066 40.4611 9.5547 40.4231L6.59097 37.4602C6.55303 37.4242 6.52922 37.3758 6.52388 37.3238C6.51854 37.2717 6.532 37.2195 6.56184 37.1766L7.77038 35.3337C7.82208 35.2549 7.85118 35.1634 7.85451 35.0692C7.85784 34.975 7.83528 34.8816 7.78929 34.7994C7.35653 34.0251 7.01563 33.2029 6.77351 32.3495C6.7478 32.2589 6.69775 32.177 6.62879 32.1128C6.55982 32.0486 6.47458 32.0045 6.38232 31.9853L4.22589 31.5371C4.17436 31.5278 4.12786 31.5003 4.09483 31.4597C4.0618 31.4191 4.04442 31.368 4.04585 31.3156V27.1251C4.04442 27.0728 4.06179 27.0217 4.0948 26.9811C4.12782 26.9405 4.17429 26.9131 4.2258 26.9038L6.38283 26.4554C6.4751 26.4363 6.56035 26.3922 6.62932 26.3279C6.69829 26.2637 6.74833 26.1818 6.77402 26.0911C7.01617 25.238 7.35707 24.416 7.7898 23.6419C7.83578 23.5596 7.85833 23.4663 7.855 23.3721C7.85167 23.2779 7.82258 23.1865 7.7709 23.1076L6.5621 21.2644C6.53231 21.2214 6.51888 21.1692 6.52422 21.1172C6.52956 21.0652 6.55333 21.0168 6.59123 20.9808L9.55436 18.0177C9.59037 17.9798 9.63875 17.956 9.69075 17.9506C9.74276 17.9453 9.79497 17.9587 9.83795 17.9884L11.6808 19.197C11.7596 19.2487 11.8511 19.2777 11.9453 19.2811C12.0395 19.2844 12.1328 19.2619 12.2151 19.2159C12.9894 18.783 13.8115 18.4421 14.6649 18.1998C14.7555 18.1741 14.8374 18.1241 14.9016 18.0552C14.9658 17.9862 15.0099 17.901 15.0291 17.8087L15.4773 15.6526C15.4865 15.601 15.5139 15.5544 15.5546 15.5212C15.5952 15.4881 15.6464 15.4707 15.6988 15.4721H19.8894C19.9417 15.4707 19.9928 15.4881 20.0334 15.5211C20.074 15.5541 20.1015 15.6006 20.1107 15.6521L20.559 17.8084C20.5782 17.9006 20.6223 17.9859 20.6865 18.0548C20.7507 18.1238 20.8326 18.1738 20.9232 18.1995C21.7764 18.4418 22.5983 18.7828 23.3724 19.2156C23.4547 19.2616 23.548 19.2842 23.6422 19.2808C23.7365 19.2775 23.8279 19.2484 23.9068 19.1967L25.7499 17.9881C25.7929 17.9583 25.8451 17.9449 25.8971 17.9502C25.9491 17.9556 25.9975 17.9794 26.0335 18.0173L28.9966 20.9804C29.0346 21.0164 29.0586 21.0648 29.064 21.1169C29.0694 21.169 29.056 21.2213 29.0262 21.2643ZM1.75278 1.81981L1.90815 1.76902C2.15751 1.68577 2.42916 1.70024 2.66826 1.8095C2.90736 1.91876 3.0961 2.11468 3.19636 2.3577L5.95805 8.93544C6.0103 9.05948 6.109 9.15818 6.23304 9.21044L13.5939 12.3178C13.6574 12.3446 13.7255 12.3584 13.7944 12.3584H21.794C21.8629 12.3584 21.9311 12.3446 21.9945 12.3178L29.3553 9.21078C29.4793 9.15852 29.578 9.05983 29.6303 8.93578L32.392 2.35804C32.4923 2.11504 32.681 1.91913 32.9201 1.80987C33.1592 1.70061 33.4308 1.68614 33.6802 1.76937L33.8356 1.82016C34.0927 1.90346 34.3075 2.08345 34.4344 2.32212C34.5613 2.5608 34.5905 2.83946 34.5158 3.09925L32.2974 10.8985L27.1654 14.6569C27.1 14.7048 27.0468 14.7674 27.0101 14.8397C26.9735 14.912 26.9544 14.9919 26.9544 15.0729V17.4792L26.7633 17.2881C26.56 17.0819 26.2913 16.953 26.0032 16.9233C25.7152 16.8937 25.4258 16.9652 25.1848 17.1257L23.5994 18.1656C22.9295 17.8131 22.2288 17.5226 21.506 17.2976L21.1204 15.4428C21.0634 15.1589 20.9094 14.9038 20.6848 14.7211C20.4602 14.5383 20.179 14.4395 19.8895 14.4415H15.6989C15.4093 14.4395 15.1281 14.5383 14.9035 14.7211C14.6789 14.9038 14.5248 15.159 14.4678 15.4429L14.0822 17.2976C13.3594 17.5226 12.6587 17.8131 11.9887 18.1656L10.4035 17.1258C10.1625 16.9653 9.87311 16.8937 9.58506 16.9233C9.29702 16.9529 9.02826 17.0819 8.82492 17.288L8.63379 17.4792V15.0729C8.6338 14.9919 8.6147 14.912 8.57804 14.8397C8.54138 14.7674 8.4882 14.7048 8.42282 14.6569L3.29097 10.8981L1.0725 3.09891C0.997804 2.83911 1.02701 2.56044 1.15394 2.32177C1.28088 2.0831 1.49561 1.90311 1.75278 1.81981ZM17.7941 0C16.8054 0 15.8389 0.293185 15.0168 0.842481C14.1948 1.39178 13.554 2.17251 13.1757 3.08596C12.7973 3.9994 12.6983 5.00453 12.8912 5.97424C13.0841 6.94395 13.5602 7.83468 14.2593 8.5338C14.9584 9.23292 15.8492 9.70903 16.8189 9.90191C17.7886 10.0948 18.7937 9.9958 19.7072 9.61744C20.6206 9.23908 21.4013 8.59835 21.9506 7.77627C22.4999 6.95419 22.7931 5.98769 22.7931 4.99898C22.7916 3.67363 22.2645 2.40299 21.3273 1.46583C20.3901 0.52866 19.1195 0.0015012 17.7941 0ZM17.7941 8.96672C17.0094 8.96672 16.2423 8.73402 15.5898 8.29803C14.9373 7.86205 14.4287 7.24238 14.1284 6.51737C13.8281 5.79236 13.7495 4.99458 13.9026 4.22492C14.0557 3.45525 14.4336 2.74827 14.9885 2.19337C15.5434 1.63847 16.2504 1.26058 17.0201 1.10749C17.7897 0.954393 18.5875 1.03297 19.3125 1.33328C20.0375 1.63358 20.6572 2.14214 21.0932 2.79463C21.5292 3.44712 21.7619 4.21424 21.7619 4.99898C21.7607 6.05092 21.3422 7.05943 20.5984 7.80326C19.8546 8.5471 18.8461 8.96551 17.7941 8.96672ZM17.7941 21.0532C16.1788 21.0532 14.5998 21.5322 13.2567 22.4296C11.9136 23.327 10.8668 24.6026 10.2487 26.0949C9.63052 27.5873 9.46877 29.2294 9.7839 30.8137C10.099 32.398 10.8769 33.8532 12.019 34.9954C13.1612 36.1376 14.6165 36.9155 16.2007 37.2306C17.785 37.5457 19.4272 37.384 20.9195 36.7659C22.4119 36.1477 23.6874 35.1009 24.5848 33.7579C25.4823 32.4148 25.9613 30.8358 25.9613 29.2205C25.9588 27.0551 25.0976 24.9792 23.5665 23.4481C22.0354 21.917 19.9594 21.0557 17.7941 21.0532ZM16.6238 36.2587V31.4359C16.6238 31.2992 16.5695 31.168 16.4728 31.0713C16.3761 30.9746 16.245 30.9203 16.1082 30.9203H14.2675L17.7941 25.3789L21.3208 30.9203H19.4801C19.3433 30.9203 19.2121 30.9746 19.1155 31.0713C19.0188 31.168 18.9644 31.2992 18.9644 31.4359V36.2583C18.1897 36.3885 17.3986 36.3885 16.6238 36.2583V36.2587ZM19.9957 36.0072V31.9516H22.2601C22.3525 31.9515 22.4432 31.9267 22.5227 31.8796C22.6022 31.8326 22.6676 31.765 22.7121 31.684C22.7565 31.603 22.7784 31.5116 22.7754 31.4193C22.7724 31.3269 22.7447 31.2371 22.6951 31.1591L18.2291 24.1413C18.1826 24.0681 18.1183 24.0079 18.0423 23.9661C17.9662 23.9244 17.8809 23.9025 17.7941 23.9025C17.7074 23.9025 17.622 23.9244 17.546 23.9661C17.47 24.0079 17.4057 24.0681 17.3591 24.1413L12.8932 31.1591C12.8436 31.2371 12.8159 31.3269 12.8129 31.4193C12.8099 31.5116 12.8318 31.603 12.8762 31.684C12.9207 31.765 12.9861 31.8326 13.0656 31.8796C13.1451 31.9267 13.2357 31.9515 13.3281 31.9516H15.5926V36.0069C13.9761 35.4826 12.5997 34.3986 11.7112 32.95C10.8227 31.5013 10.4804 29.7832 10.7458 28.1046C11.0112 26.4261 11.8669 24.8973 13.159 23.7935C14.4511 22.6896 16.0947 22.0832 17.7941 22.0832C19.4935 22.0832 21.1372 22.6896 22.4292 23.7935C23.7213 24.8973 24.5771 26.4261 24.8425 28.1046C25.1079 29.7832 24.7655 31.5013 23.877 32.95C22.9885 34.3986 21.6122 35.4826 19.9957 36.0069V36.0072Z" fill="#9588F8"/>
</svg>
