<svg width="54" height="47" viewBox="0 0 54 47" fill="none" xmlns="http://www.w3.org/2000/svg">
<path d="M25.0888 1.56494C25.8793 0.756729 27.1603 0.756621 27.9507 1.56494L42.0697 16.0112C39.845 22.6087 33.7272 27.3505 26.5209 27.3505C19.3135 27.3504 13.1949 22.6069 10.9709 16.0078L5.55827 21.5447C9.46834 29.3141 17.3874 34.629 26.5209 34.6291C35.6509 34.6291 43.5685 29.3155 47.4813 21.548L52.4414 26.6231C53.2321 27.4318 53.2321 28.7419 52.4414 29.5507L36.0522 46.3171C35.3367 47.0512 34.1732 47.051 33.4555 46.3171L27.816 40.5482C27.1005 39.8142 25.9369 39.8143 25.2192 40.5482L19.5798 46.3171C18.8642 47.0512 17.7007 47.0513 16.9829 46.3171L0.592635 29.5507C-0.197573 28.742 -0.197518 27.4318 0.592635 26.6231L25.0888 1.56494Z" fill="white"/>
<path d="M31.4239 46.8627L27.2352 42.5779C26.8581 42.1921 26.2454 42.1921 25.8683 42.5779L21.6797 46.8627H31.4239Z" fill="white"/>
<g clip-path="url(#clip0_32155_4194)">
<path d="M35.4609 16.9805C33.3841 19.7902 30.0914 21.5752 26.4316 21.5752L25.9746 21.5664C22.4974 21.4246 19.3894 19.6716 17.3994 16.9775L26.4297 7.83105L35.4609 16.9805Z" stroke="white" stroke-width="12.2683"/>
</g>
<defs>
<clipPath id="clip0_32155_4194">
<rect width="34.0936" height="28.6931" fill="white" transform="translate(9.46094)"/>
</clipPath>
</defs>
</svg>
