<svg width="57" height="57" viewBox="0 0 57 57" fill="none" xmlns="http://www.w3.org/2000/svg">
<g clip-path="url(#clip0_32155_4155)">
<path d="M17.3182 35.6583C16.8448 36.0556 16.2642 36.3036 15.6498 36.3709C15.0355 36.4382 14.415 36.3218 13.8668 36.0364C13.3186 35.751 12.8673 35.3094 12.5701 34.7675C12.2728 34.2256 12.1429 33.6077 12.1968 32.992C12.2506 32.3762 12.4859 31.7902 12.8727 31.3082C13.2596 30.8261 13.7806 30.4696 14.3701 30.2837C14.9595 30.0979 15.5908 30.091 16.1841 30.2639C16.7774 30.4369 17.3062 30.7819 17.7034 31.2554L19.7119 33.6494L17.3182 35.6583ZM24.0207 30.0335C23.7063 30.2973 23.3431 30.4966 22.9517 30.62C22.5604 30.7434 22.1485 30.7885 21.7398 30.7528C21.331 30.717 20.9332 30.601 20.5692 30.4115C20.2053 30.222 19.8822 29.9627 19.6184 29.6483L13.9945 22.945C13.4618 22.3101 13.2031 21.4895 13.2753 20.6638C13.3476 19.8381 13.7448 19.0749 14.3797 18.5421C15.0146 18.0093 15.835 17.7506 16.6606 17.8228C17.4862 17.895 18.2493 18.2923 18.782 18.9272L24.4059 25.6305C24.9386 26.2655 25.1973 27.0861 25.125 27.9118C25.0528 28.7375 24.6555 29.5007 24.0207 30.0335Z" fill="#2EB67D"/>
<path d="M39.0359 20.6991C39.5094 20.3018 40.09 20.0538 40.7043 19.9865C41.3187 19.9192 41.9392 20.0356 42.4874 20.321C43.0356 20.6064 43.4868 21.048 43.7841 21.5899C44.0813 22.1318 44.2112 22.7497 44.1574 23.3654C44.1035 23.9812 43.8683 24.5672 43.4814 25.0492C43.0946 25.5313 42.5735 25.8878 41.9841 26.0737C41.3947 26.2595 40.7634 26.2664 40.17 26.0935C39.5767 25.9205 39.048 25.5755 38.6507 25.102L36.6422 22.708L39.0359 20.6991ZM32.3335 26.3239C32.9683 25.7912 33.7888 25.5324 34.6144 25.6046C35.44 25.6769 36.203 26.0742 36.7357 26.7091L42.3596 33.4124C42.8923 34.0473 43.151 34.8679 43.0788 35.6936C43.0066 36.5193 42.6093 37.2825 41.9744 37.8153C41.3396 38.3481 40.5191 38.6068 39.6935 38.5346C38.8679 38.4624 38.1049 38.0651 37.5722 37.4302L31.9483 30.7269C31.4156 30.0919 31.1569 29.2713 31.2291 28.4456C31.3014 27.6199 31.6986 26.8567 32.3335 26.3239Z" fill="#E01E5A"/>
<path d="M35.6559 39.0373C36.0531 39.5108 36.3011 40.0914 36.3683 40.7059C36.4356 41.3203 36.3192 41.9409 36.0338 42.4892C35.7485 43.0375 35.3069 43.4888 34.7651 43.7861C34.2232 44.0834 33.6054 44.2134 32.9898 44.1595C32.3741 44.1056 31.7882 43.8704 31.3062 43.4835C30.8243 43.0966 30.4678 42.5755 30.282 41.986C30.0961 41.3965 30.0893 40.7651 30.2622 40.1717C30.4352 39.5782 30.7802 39.0494 31.2536 38.6521L33.6473 36.6432L35.6559 39.0373ZM30.032 32.334C30.2957 32.6484 30.495 33.0116 30.6184 33.4031C30.7418 33.7945 30.7869 34.2064 30.7511 34.6152C30.7153 35.0241 30.5994 35.4219 30.4099 35.7859C30.2204 36.1499 29.9611 36.4731 29.6468 36.7369L22.9443 42.3618C22.3094 42.8946 21.489 43.1533 20.6634 43.0811C19.8378 43.0088 19.0747 42.6116 18.542 41.9766C18.0093 41.3417 17.7506 40.5211 17.8229 39.6954C17.8951 38.8697 18.2924 38.1065 18.9272 37.5737L25.6297 31.9488C26.2646 31.416 27.085 31.1573 27.9106 31.2295C28.7362 31.3018 29.4993 31.699 30.032 32.334Z" fill="#ECB22E"/>
<path d="M20.6983 17.3201C20.301 16.8466 20.0531 16.266 19.9858 15.6515C19.9185 15.0371 20.0349 14.4165 20.3203 13.8682C20.6057 13.3199 21.0472 12.8686 21.5891 12.5713C22.1309 12.274 22.7487 12.144 23.3644 12.1979C23.9801 12.2518 24.5659 12.487 25.0479 12.8739C25.5299 13.2608 25.8863 13.7819 26.0722 14.3714C26.258 14.9609 26.2649 15.5923 26.0919 16.1857C25.919 16.7792 25.574 17.308 25.1005 17.7053L22.7068 19.7142L20.6983 17.3201ZM26.3222 24.0234C25.7895 23.3885 25.5308 22.5679 25.603 21.7422C25.6753 20.9165 26.0725 20.1533 26.7074 19.6205L33.4099 13.9956C34.0447 13.4628 34.8652 13.2041 35.6908 13.2763C36.5164 13.3486 37.2794 13.7458 37.8121 14.3808C38.3448 15.0157 38.6035 15.8363 38.5313 16.662C38.459 17.4877 38.0618 18.2509 37.4269 18.7837L30.7244 24.4086C30.0896 24.9414 29.2691 25.2001 28.4435 25.1279C27.6179 25.0556 26.8549 24.6584 26.3222 24.0234Z" fill="#36C5F0"/>
</g>
<defs>
<clipPath id="clip0_32155_4155">
<rect width="40" height="40" fill="white" transform="matrix(-0.765998 0.642843 0.642732 0.766091 30.6406 0)"/>
</clipPath>
</defs>
</svg>
