<svg width="51" height="51" viewBox="0 0 51 51" fill="none" xmlns="http://www.w3.org/2000/svg">
<rect x="1" width="50" height="50" rx="25" transform="rotate(1.14458 1 0)" fill="white"/>
<path d="M43.1503 26.2874C43.1764 24.9794 43.0844 23.7195 42.8911 22.5078L25.5625 22.1616L25.42 29.2965L35.322 29.4943C34.8494 31.7914 33.5141 33.719 31.5393 34.988L31.4469 39.616L37.3931 39.7348C40.9364 36.5932 43.038 31.9047 43.1503 26.2874V26.2874Z" fill="#4285F4"/>
<path d="M25.0728 43.8229C29.99 43.9211 34.1456 42.3456 37.2153 39.5781L31.4224 34.8149C29.7694 35.8932 27.6702 36.508 25.2199 36.459C20.4766 36.3643 16.5267 33.0271 15.1821 28.6223L9.09766 28.5007L9.00182 33.2978C11.8776 39.4086 17.9536 43.6807 25.0728 43.8229Z" fill="#34A853"/>
<path d="M15.0935 28.813C14.7526 27.6926 14.57 26.4995 14.5944 25.2767C14.6189 24.054 14.849 22.869 15.2344 21.7632L15.3304 16.9564L9.26354 16.8352C7.94072 19.3951 7.22225 22.2352 7.16557 25.1283C7.10576 28.122 7.75077 30.9694 8.93061 33.4986L15.0935 28.813V28.813Z" fill="#FBBC05"/>
<path d="M25.7737 14.5297C28.4664 14.5835 30.8653 15.5659 32.7294 17.4386L38.0959 12.2333C34.9793 9.1822 30.8644 7.2646 25.9208 7.16583C18.7514 7.02259 12.4662 11.0477 9.32746 17.0384L15.359 21.9578C16.8886 17.6104 20.9969 14.4342 25.7737 14.5297Z" fill="#EA4335"/>
</svg>
