<svg width="52" height="52" viewBox="0 0 52 52" fill="none" xmlns="http://www.w3.org/2000/svg">
<g clip-path="url(#clip0_32155_4171)">
<path d="M15.1917 8.72335C13.3876 10.3072 12.3512 12.9094 10.279 18.1119L9.16895 20.899C7.09662 26.102 6.06037 28.7037 6.28152 31.0942C6.47595 33.1969 7.33108 35.1842 8.72435 36.771C10.3082 38.5751 12.9104 39.6116 18.1129 41.6837L20.9 42.7938C26.103 44.8661 28.7047 45.9024 31.0952 45.6812C33.1979 45.4868 35.1852 44.6317 36.772 43.2384C38.5761 41.6545 39.6126 39.0524 41.6847 33.8498L42.7948 31.0628C44.8671 25.8598 45.9034 23.258 45.6822 20.8675C45.4878 18.7648 44.6327 16.7776 43.2394 15.1907C41.6555 13.3866 39.0534 12.3502 33.8508 10.278L31.0638 9.16795C25.8608 7.09562 23.259 6.05937 20.8685 6.28052C18.7658 6.47498 16.7786 7.33011 15.1917 8.72335Z" fill="url(#paint0_linear_32155_4171)"/>
<path d="M13.5988 10.6626C12.5937 12.2902 11.6687 14.6128 10.2751 18.1115L9.16507 20.8986C7.09257 26.102 6.0565 28.7033 6.27765 31.0938C6.47211 33.1965 7.32723 35.1837 8.72047 36.7706C10.3041 38.5752 12.9063 39.6116 18.1089 41.6838L20.8959 42.7938C26.0989 44.8662 28.7006 45.9024 31.0911 45.6813C33.1939 45.4868 35.1811 44.6317 36.768 43.2384C38.5723 41.6541 39.6083 39.0529 41.6807 33.8499L42.7907 31.0628C44.8629 25.8603 45.8989 23.259 45.6782 20.8676C45.4905 18.8398 44.6882 16.9176 43.3786 15.3581L13.5988 10.6626Z" fill="url(#paint1_linear_32155_4171)"/>
<path d="M38.2715 41.4434C37.8092 42.1689 37.3273 42.7519 36.7729 43.2383C35.186 44.6316 33.1988 45.4867 31.0961 45.6812C28.7771 45.8958 26.2592 44.9274 21.3607 42.9769L19.5756 42.2659L21.0385 38.593L38.2715 41.4434Z" fill="url(#paint2_linear_32155_4171)"/>
<path d="M33.8518 10.2781L31.0647 9.16799C30.0521 8.76466 29.1389 8.40093 28.3058 8.07774L26.4723 12.681L43.3811 15.355C43.3348 15.2997 43.2879 15.245 43.2404 15.1908C42.361 14.1893 41.1682 13.4236 39.3904 12.5874C37.966 11.9167 36.1664 11.2 33.8518 10.2781Z" fill="url(#paint3_linear_32155_4171)"/>
<path d="M41.6028 34.0536C40.2126 37.5439 39.2898 39.842 38.2689 41.4456L32.2755 40.454L35.5479 32.2377L41.9401 33.2068L41.6028 34.0536Z" fill="url(#paint4_linear_32155_4171)"/>
<path fill-rule="evenodd" clip-rule="evenodd" d="M25.9655 22.447C26.2628 21.7005 26.9875 21.6565 27.9983 22.0591C29.4476 22.6364 31.1024 23.8057 32.2391 25.1675L34.0304 20.6701C32.6995 19.408 31.2349 18.5367 29.6523 17.9064C25.7815 16.3647 22.3993 17.3679 21.05 20.7556C18.9464 26.037 26.5277 28.0809 25.6206 30.3584C25.2702 31.2382 24.3931 31.2215 23.3257 30.7963C21.7426 30.1658 19.9801 28.7103 18.7291 27.1921L16.915 31.7466C18.3836 33.2185 20.0467 34.2577 21.6864 34.9107C25.6524 36.4904 29.1647 35.6052 30.529 32.1799C32.7813 26.4695 25.1119 24.5902 25.9655 22.447Z" fill="white"/>
</g>
<defs>
<linearGradient id="paint0_linear_32155_4171" x1="16.1994" y1="3.24756" x2="23.8721" y2="15.052" gradientUnits="userSpaceOnUse">
<stop stop-color="#392993"/>
<stop offset="1" stop-color="#4B47B9"/>
</linearGradient>
<linearGradient id="paint1_linear_32155_4171" x1="14.3789" y1="11.37" x2="30.2099" y2="40.2077" gradientUnits="userSpaceOnUse">
<stop stop-color="#594BB9"/>
<stop offset="1" stop-color="#60A8F2"/>
</linearGradient>
<linearGradient id="paint2_linear_32155_4171" x1="20.9843" y1="38.7291" x2="35.7651" y2="48.7146" gradientUnits="userSpaceOnUse">
<stop stop-color="#61A2EF"/>
<stop offset="1" stop-color="#58E6FD"/>
</linearGradient>
<linearGradient id="paint3_linear_32155_4171" x1="27.3876" y1="10.3831" x2="48.7161" y2="16.1984" gradientUnits="userSpaceOnUse">
<stop stop-color="#534EBE"/>
<stop offset="1" stop-color="#6875E2"/>
</linearGradient>
<linearGradient id="paint4_linear_32155_4171" x1="35.5209" y1="32.3055" x2="38.5804" y2="41.6418" gradientUnits="userSpaceOnUse">
<stop stop-color="#71A5F3"/>
<stop offset="1" stop-color="#6CC3FA"/>
</linearGradient>
<clipPath id="clip0_32155_4171">
<rect width="40" height="40" fill="white" transform="translate(14.801) rotate(21.7171)"/>
</clipPath>
</defs>
</svg>
