<svg width="66" height="66" viewBox="0 0 66 66" fill="none" xmlns="http://www.w3.org/2000/svg">
<rect x="10.3828" y="65.4111" width="56" height="56" rx="28" transform="rotate(-100.684 10.3828 65.4111)" fill="white"/>
<path d="M19.594 25.6879C20.2852 31.6444 21.5204 38.1914 23.047 43.9903C23.3666 45.2042 24.4746 45.9606 25.6314 45.8382C29.3414 45.4455 34.8232 44.4522 38.4222 43.4915C39.611 43.1741 40.444 41.909 40.1709 40.4615L39.3149 35.924L44.8531 34.8792L45.7042 39.408C46.4879 43.5621 44.1449 47.8655 39.8842 49.0029C36.0052 50.0384 30.2385 51.0844 26.2412 51.5075C22.2353 51.9315 18.6089 49.2949 17.5928 45.4351C15.9967 39.3724 14.711 32.5571 13.9883 26.3297C13.5283 22.365 15.9447 18.5883 19.8298 17.5236C23.7064 16.4612 29.4682 15.3887 33.4578 14.9397C37.8401 14.4464 41.6007 17.5894 42.3844 21.7435L43.2267 26.2255L50.3973 33.8332L44.8531 34.8792L37.6825 27.2715L36.8369 22.7894C36.5638 21.342 35.3271 20.4673 34.1044 20.6049C30.4027 21.0215 24.9256 22.0394 21.3275 23.0254C20.2056 23.3329 19.4493 24.441 19.594 25.6879Z" fill="#FE5000"/>
</svg>
