<svg width="71" height="71" viewBox="0 0 71 71" fill="none" xmlns="http://www.w3.org/2000/svg">
<g clip-path="url(#clip0_32155_4181)">
<rect y="35.9663" width="50" height="50" rx="25" transform="rotate(-45.9989 0 35.9663)" fill="white"/>
<path d="M35.1326 22.9464L22.9453 35.5662L35.5651 47.7535L47.7524 35.1336L35.1326 22.9464Z" fill="white"/>
<path d="M53.4289 40.6181L53.2343 29.4549L47.75 35.1338L53.4289 40.6181Z" fill="#EA4335"/>
<path d="M40.6171 17.2676L35.1328 22.9465L47.7526 35.1338L53.2369 29.4549L40.6171 17.2676Z" fill="#FBBC04"/>
<path d="M47.7498 35.1336L35.5625 47.7534L41.2414 53.2377L53.4287 40.6179L47.7498 35.1336Z" fill="#34A853"/>
<path d="M30.0859 53.4324L33.8719 57.0886C34.9177 58.0986 36.5829 58.0696 37.5929 57.0237L41.2491 53.2377L35.5702 47.7535L30.0859 53.4324Z" fill="#188038"/>
<path d="M40.6163 17.2675L36.8304 13.6113C35.7845 12.6013 34.1193 12.6304 33.1093 13.6762L29.4531 17.4622L35.132 22.9464L40.6163 17.2675Z" fill="#1967D2"/>
<path d="M29.4528 17.462L13.6093 33.8678C12.5993 34.9136 12.6284 36.5788 13.6742 37.5888L30.08 53.4323L35.5643 47.7534L22.9444 35.5661L35.1317 22.9463L29.4528 17.462Z" fill="#4285F4"/>
<path d="M35.2395 42.4318C34.4654 42.5958 33.6847 42.4729 32.8973 42.057L33.5034 40.5266C33.9779 40.7928 34.4389 40.9026 34.8863 40.8561C35.3322 40.8111 35.7242 40.6104 36.0624 40.2602C36.4082 39.9021 36.5964 39.4894 36.6271 39.022C36.6577 38.5546 36.505 38.1572 36.169 37.8327C35.8251 37.5006 35.4133 37.3651 34.9335 37.4262C34.4538 37.4873 34.0159 37.7229 33.6229 38.1299L33.012 38.7624L31.9283 37.7159L32.4767 37.148C32.8149 36.7978 33.0051 36.4114 33.0474 35.9888C33.0896 35.5662 32.9467 35.1965 32.617 34.8781C32.3236 34.5947 31.9866 34.4765 31.6043 34.522C31.222 34.5674 30.8716 34.7534 30.5532 35.0831C30.2425 35.4049 30.0808 35.7427 30.07 36.0981C30.0597 36.4537 30.14 36.8062 30.3034 37.1223L28.8057 37.7703C28.5373 37.2337 28.4321 36.6229 28.4945 35.9363C28.557 35.2497 28.8777 34.6052 29.4566 34.0057C29.8846 33.5625 30.3552 33.2456 30.8684 33.0583C31.3816 32.871 31.8879 32.8234 32.3843 32.9156C32.8822 33.0093 33.3189 33.2389 33.6975 33.6045C34.084 33.9778 34.3207 34.3862 34.4091 34.8313C34.4975 35.2764 34.4817 35.7032 34.3632 36.1132L34.4279 36.1756C34.9106 35.9648 35.4418 35.8896 35.9641 35.9581C36.4926 36.0264 36.9714 36.2662 37.4005 36.6806C37.8295 37.095 38.1077 37.574 38.2335 38.1162C38.3593 38.6584 38.3333 39.2156 38.1571 39.7832C37.9794 40.3524 37.6613 40.8775 37.1997 41.3554C36.6666 41.9107 36.0137 42.2679 35.2395 42.4318ZM36.301 30.4604L36.0093 32.5019L34.5171 32.2224L35.0442 28.5639L35.8425 27.7373L43.1793 34.8226L42.0398 36.0026L36.301 30.4604Z" fill="#4285F4"/>
</g>
<defs>
<clipPath id="clip0_32155_4181">
<rect y="35.9663" width="50" height="50" rx="25" transform="rotate(-45.9989 0 35.9663)" fill="white"/>
</clipPath>
</defs>
</svg>
