<svg width="37" height="32" viewBox="0 0 37 32" fill="none" xmlns="http://www.w3.org/2000/svg">
<path d="M17.5035 1.06844C18.055 0.516612 18.9487 0.516539 19.5001 1.06844L29.3504 10.932C27.7982 15.4366 23.5302 18.6742 18.5026 18.6742C13.4743 18.6742 9.20556 15.4354 7.65399 10.9297L3.87778 14.7101C6.60569 20.0149 12.1305 23.6438 18.5026 23.6439C24.8722 23.6439 30.396 20.0159 33.1258 14.7124L36.5863 18.1776C37.1379 18.7297 37.1379 19.6242 36.5863 20.1765L25.1522 31.6241C24.653 32.1253 23.8413 32.1253 23.3406 31.6241L19.4061 27.6853C18.9069 27.1841 18.0951 27.1842 17.5944 27.6853L13.66 31.6241C13.1608 32.1253 12.3491 32.1254 11.8483 31.6241L0.413458 20.1765C-0.137839 19.6243 -0.1378 18.7297 0.413458 18.1776L17.5035 1.06844Z" fill="white"/>
<path d="M21.9153 31.9977L18.993 29.0722C18.7299 28.8088 18.3025 28.8088 18.0394 29.0722L15.1172 31.9977H21.9153Z" fill="white"/>
<g clip-path="url(#clip0_32155_3975)">
<path d="M24.2217 11.796C22.9192 13.2633 21.0452 14.1679 18.9912 14.168C16.936 14.168 15.0595 13.2631 13.7568 11.794L18.9893 6.4942L24.2217 11.796Z" stroke="#006D77" stroke-width="10"/>
</g>
<defs>
<clipPath id="clip0_32155_3975">
<rect width="23.7857" height="19.591" fill="white" transform="translate(6.59375 6.10352e-05)"/>
</clipPath>
</defs>
</svg>
