<svg width="19" height="20" viewBox="0 0 19 20" fill="none" xmlns="http://www.w3.org/2000/svg">
<g clip-path="url(#clip0_32155_3908)">
<path d="M4.30469 13.6125C4.08203 13.35 4.08203 12.975 4.3418 12.75C4.56445 12.5625 4.97266 12.5625 5.1582 12.825L8.90625 17.025V6.6C8.90625 6.3 9.166 6 9.5 6C9.79688 6 10.0938 6.3 10.0938 6.6V17.025L13.8047 12.825C13.9903 12.5625 14.3984 12.5625 14.6211 12.7875C14.8809 12.975 14.8809 13.3875 14.6582 13.6125L9.90818 19.0125C9.79688 19.1625 9.64844 19.2375 9.46287 19.2375C9.31443 19.2375 9.166 19.1625 9.01756 19.0125L4.26757 13.6125H4.30469ZM9.5 1.2C4.89844 1.2 1.1875 4.9875 1.1875 9.6C1.1875 9.93752 0.890625 10.2 0.59375 10.2C0.259766 10.2 0 9.93752 0 9.6C0 4.3125 4.23047 0 9.5 0C14.7324 0 19 4.3125 19 9.6C19 9.93752 18.7031 10.2 18.4062 10.2C18.0722 10.2 17.8125 9.93752 17.8125 9.6C17.8125 4.9875 14.0644 1.2 9.5 1.2Z" fill="#006D77"/>
</g>
<defs>
<clipPath id="clip0_32155_3908">
<rect width="19" height="20" fill="white"/>
</clipPath>
</defs>
</svg>
