<svg width="36" height="36" viewBox="0 0 36 36" fill="none" xmlns="http://www.w3.org/2000/svg">
<path d="M7.42291 21.6462C6.68408 23.5106 5.51624 25.3563 3.95233 27.1328C3.45465 27.698 3.39147 28.505 3.79522 29.1405C4.10614 29.6294 4.62908 29.9079 5.1828 29.9079C5.3388 29.9079 5.49756 29.8859 5.65412 29.8403C8.96869 28.8719 16.7003 25.4321 16.908 14.437C16.9882 10.1913 13.8829 6.54384 9.83936 6.13295C7.61077 5.90992 5.3811 6.63392 3.72876 8.12752C2.07422 9.62276 1.125 11.7574 1.125 13.9849C1.125 17.701 3.76281 20.9508 7.42291 21.6462ZM5.23718 9.79688C6.28802 8.84711 7.61077 8.34119 9.01319 8.34119C9.21149 8.34119 9.41144 8.35108 9.61195 8.37195C12.4997 8.66473 14.7162 11.3102 14.658 14.3941C14.5146 22.0021 10.3953 25.4271 6.98401 26.9592C8.06342 25.4991 8.91157 23.9973 9.51471 22.4751C9.74981 21.8824 9.71082 21.2199 9.40814 20.6574C9.09118 20.0675 8.52594 19.6489 7.85852 19.5088C5.26025 18.9655 3.375 16.6419 3.375 13.9849C3.375 12.393 4.05395 10.8664 5.23718 9.79688Z" fill="white"/>
<path d="M21.7645 29.1411C22.0754 29.63 22.5984 29.9085 23.1521 29.9085C23.3081 29.9085 23.4663 29.8865 23.6234 29.8409C26.938 28.8725 34.6691 25.4327 34.8767 14.4376C34.9558 10.1919 31.8511 6.54443 27.807 6.13355C25.5757 5.90668 23.3499 6.63397 21.6975 8.12812C20.043 9.62336 19.0938 11.758 19.0938 13.9855C19.0938 17.7016 21.7316 20.9514 25.3911 21.6468C24.6517 23.5128 23.4839 25.3585 21.9205 27.1339C21.4228 27.6997 21.3602 28.5061 21.7645 29.1411ZM27.4829 22.4768C27.718 21.8841 27.6795 21.2216 27.3774 20.6591C27.0599 20.0686 26.4952 19.65 25.8272 19.5094C23.229 18.9661 21.3437 16.6425 21.3437 13.9855C21.3437 12.393 22.0227 10.867 23.2059 9.79748C24.2562 8.84771 25.579 8.34179 26.9819 8.34179C27.1797 8.34179 27.3796 8.35168 27.5807 8.37255C30.4679 8.66533 32.6849 11.3108 32.6267 14.3947C32.4839 22.0033 28.364 25.4277 24.9527 26.9598C26.0316 25.5008 26.8787 23.999 27.4829 22.4768Z" fill="white"/>
</svg>
