<svg width="146" height="38" viewBox="0 0 146 38" fill="none" xmlns="http://www.w3.org/2000/svg">
<path d="M22.7793 0.554688C23.8327 -0.18272 25.4446 -0.185407 26.4062 0.548828C26.4185 0.558949 26.4303 0.56968 26.4424 0.580078L41.0537 11.8008L41.0518 11.8027C42.4999 12.9264 43.7167 14.261 44.6641 15.7842C45.6957 17.4429 46.3668 19.2627 46.6426 21.2012C46.7833 22.1896 46.8152 23.1911 46.7383 24.1865C46.6575 25.2069 46.4622 26.2149 46.1553 27.1914C45.5408 29.1526 44.5014 30.9703 43.0537 32.5762C41.5675 34.2226 39.7383 35.5471 37.625 36.4932C35.4016 37.4846 32.9933 37.9957 30.4941 38C27.9959 38.005 25.5858 37.502 23.3623 36.5166C21.2472 35.5809 19.4179 34.2602 17.9307 32.6182C16.4807 31.0186 15.4396 29.2034 14.8262 27.2432C14.5348 26.3149 14.3387 25.1289 14.3281 24.5205C14.3179 23.915 14.4496 22.9105 14.4512 22.8984L5.28125 30.4014C3.67899 31.6964 1.52498 31.6957 0.510742 30.3965C-0.486686 29.1189 0.0269265 27.0993 1.61035 25.8857C1.6308 25.8695 1.65337 25.8541 1.67383 25.8379L18.4775 12.9414L9.06152 12.96L9.06348 12.9531C7.46808 12.9468 6.42515 11.8715 6.72363 10.5742C7.01737 9.30222 8.49181 8.29315 10.0264 8.29199H10.0518L28.6309 8.27246L22.5361 3.31543L22.5391 3.3125C21.5923 2.53285 21.7117 1.30132 22.7793 0.554688ZM30.4922 12.9316C28.0445 12.9349 25.7072 13.7447 23.8711 15.2422C22.9344 16.0084 22.1756 16.9133 21.623 17.915C21.0557 18.9405 20.71 20.0736 20.6094 21.2412C20.5042 22.4379 20.6627 23.6435 21.0732 24.7725C21.4926 25.9218 22.1714 26.998 23.0947 27.9355C24.9849 29.8575 27.6303 30.9399 30.4951 30.9346C33.3589 30.9295 36.0028 29.8383 37.8916 27.9111C38.8147 26.9703 39.4929 25.8936 39.9111 24.7432C40.322 23.6139 40.4807 22.408 40.376 21.2109C40.2743 20.0442 39.928 18.9111 39.3604 17.8867C38.8089 16.887 38.0497 15.9858 37.1143 15.2236C35.277 13.7324 32.94 12.9287 30.4922 12.9316ZM78.9492 16.1016C83.9065 16.1016 86.6727 18.7523 86.6729 23.4668V24.0195H75.7061C75.7536 25.9023 77.0416 27.0957 78.9492 27.0957C80.4745 27.0957 81.5961 26.4041 82.0723 25.2363L85.4014 27.1553C84.0307 28.8823 81.8089 29.8613 78.9492 29.8613C74.1788 29.8613 71.2247 27.1916 71.2246 22.9717C71.2246 18.7775 74.1311 16.1016 78.9492 16.1016ZM53.4746 13.2441V18.083C54.4764 17.0048 55.9297 16.4131 57.957 16.4131C62.3206 16.4131 65.3007 19.1066 65.3008 23.1396C65.3008 27.0932 62.3433 29.8594 58.0283 29.8594C56.0494 29.8593 54.5951 29.3599 53.4746 28.2373V29.4297H49.4922V12.2168L53.4746 13.2441ZM118.92 29.4297H114.938V28.2373C113.817 29.3599 112.363 29.8593 110.383 29.8594C106.07 29.8594 103.11 27.0932 103.11 23.1396C103.11 19.1066 106.095 16.4131 110.455 16.4131C112.48 16.4131 113.936 17.0048 114.938 18.083V13.2441L118.92 12.2168V29.4297ZM127.627 16.0938C132.587 16.0938 135.353 18.7443 135.353 23.459V24.0127H124.385C124.432 25.8954 125.718 27.0868 127.627 27.0869C129.152 27.0869 130.273 26.3963 130.75 25.2285L134.079 27.1475C132.709 28.8741 130.487 29.8525 127.627 29.8525C122.858 29.8524 119.901 27.1828 119.901 22.9639C119.902 18.769 122.811 16.0939 127.627 16.0938ZM70.2412 29.4297H66.2832V13.2441H70.2412V29.4297ZM96.6426 16.2461C98.8411 16.2462 100.505 17.005 101.364 18.2979C102.08 19.3668 102.127 20.6558 102.127 22.3516V29.4297H98.1426V23.209C98.1426 20.6313 97.6241 19.4385 95.3594 19.4385C93.0687 19.4385 91.6349 20.8014 91.6348 23.0898V29.4297H87.6562V17.543H91.6348V18.5078C93.0467 17.0052 94.736 16.2461 96.6426 16.2461ZM144.203 16.1279C144.49 16.128 144.846 16.1741 145.323 16.2217V19.6094C144.942 19.56 144.514 19.5605 144.061 19.5605C141.747 19.5605 140.318 21.0864 140.317 23.6836V29.4297H136.336V17.543H140.317V18.2773C141.509 16.8427 142.772 16.1279 144.203 16.1279ZM30.7061 15.916C32.3654 15.9172 33.8866 16.5008 35.0176 17.458C36.169 18.4328 36.9337 19.8076 37.0215 21.3662C37.1093 22.9689 36.4657 24.4594 35.335 25.5625C34.1833 26.6851 32.5421 27.3905 30.707 27.3906C28.8708 27.3906 27.228 26.6851 26.0752 25.5625C24.9455 24.4594 24.3018 22.9689 24.3906 21.3662C24.4774 19.8076 25.2421 18.4328 26.3936 17.458C27.5246 16.5007 29.0465 15.9171 30.7061 15.916ZM57.2422 19.5127C54.9537 19.5128 53.4746 20.9407 53.4746 23.1631C53.4748 25.3792 54.9539 26.8319 57.2422 26.832C59.5308 26.832 61.0087 25.4276 61.0088 23.1885C61.0088 20.9176 59.5546 19.5127 57.2422 19.5127ZM111.171 19.5127C108.857 19.5127 107.4 20.9176 107.4 23.1885C107.4 25.4276 108.88 26.832 111.171 26.832C113.458 26.8319 114.938 25.3792 114.938 23.1631C114.938 20.9407 113.458 19.5128 111.171 19.5127ZM79.0449 18.7773C77.1851 18.7774 75.97 19.7748 75.8242 21.3496H82.2637C82.121 19.7747 80.9027 18.7773 79.0449 18.7773ZM127.721 18.7695C125.863 18.7697 124.645 19.7679 124.503 21.3428H130.941C130.798 19.7678 129.581 18.7695 127.721 18.7695Z" fill="#B4E717"/>
</svg>
