<svg width="113" height="34" viewBox="0 0 113 34" fill="none" xmlns="http://www.w3.org/2000/svg">
<g clip-path="url(#clip0_32006_1138)">
<path fill-rule="evenodd" clip-rule="evenodd" d="M18.7421 17.2742V6.24561H3.60156L6.00512 10.4084H10.8136H14.578V16.9293V32.2596L18.7421 28.0968V21.4396H27.069V28.0968L31.2331 32.2476V16.9293V10.4084H34.9975H39.8059L42.2095 6.24561H27.069V17.2742H18.7421Z" fill="#B4E717"/>
<path fill-rule="evenodd" clip-rule="evenodd" d="M2.40355 4.16278H20.8272V15.1927H24.9914V4.16278H43.415L45.8199 0H0L2.40355 4.16278Z" fill="#B4E717"/>
<path d="M53.4985 27.5055L51.9328 30.318C50.1266 29.4055 48.6828 28.668 47.6016 28.1055C48.9891 26.8117 49.761 25.9023 49.9172 25.3773C49.9422 25.2836 49.9547 25.1742 49.9547 25.0492C49.9547 24.4555 49.6953 23.5867 49.1766 22.443C48.6578 21.2992 48.311 20.5148 48.136 20.0898C47.9672 19.6586 47.8828 19.3273 47.8828 19.0961C47.8828 18.8648 47.9203 18.6648 47.9953 18.4961C48.1703 18.1086 48.5828 17.7555 49.2328 17.4367C49.8828 17.1117 50.8703 16.7055 52.1953 16.218C52.3828 16.6555 52.5203 16.9836 52.6078 17.2023C51.7703 17.4773 51.311 17.8211 51.2297 18.2336C51.211 18.3211 51.2016 18.4148 51.2016 18.5148C51.2016 18.8711 51.3203 19.293 51.5578 19.7805C53.7641 17.618 54.9703 16.4305 55.1766 16.218C55.7328 16.5867 56.2047 16.9398 56.5922 17.2773C56.986 17.6086 57.4578 17.9117 58.0078 18.1867L59.8828 16.218C60.6328 16.6242 61.386 17.0305 62.1422 17.4367C62.8985 17.8367 63.686 18.1805 64.5047 18.468C63.4985 19.1555 62.9672 20.3211 62.911 21.9648L62.8078 25.4523C62.8078 25.5211 62.8078 25.5898 62.8078 25.6586C62.8078 26.6711 63.1672 27.2867 63.886 27.5055L62.3953 30.318C61.4891 29.9867 60.861 29.4742 60.511 28.7805C60.1672 28.0805 59.9953 27.1148 59.9953 25.8836C59.9953 25.7961 59.9953 25.7086 59.9953 25.6211L60.0141 23.2586C60.0141 22.6898 60.1172 22.193 60.3235 21.768C60.5297 21.343 60.7985 20.9148 61.1297 20.4836C59.8735 19.5648 58.9328 19.068 58.3078 18.993C58.0703 19.3492 57.9485 19.7711 57.9422 20.2586C57.9422 20.7461 57.9297 21.3148 57.9047 21.9648L57.8016 25.4523C57.8016 25.5211 57.8016 25.5898 57.8016 25.6586C57.8016 26.7898 58.0985 27.4523 58.6922 27.6461L56.4985 30.318C56.161 29.893 55.7797 29.4898 55.3547 29.1086C54.9297 28.7273 54.5297 28.3773 54.1547 28.0586C54.3422 27.8398 54.5266 27.4961 54.7078 27.0273C54.8891 26.5586 54.9828 26.0898 54.9891 25.6211L55.3172 19.818C54.7735 19.4117 54.3516 19.2086 54.0516 19.2086C53.9766 19.2086 53.9078 19.2211 53.8453 19.2461C53.5516 19.3773 52.9547 19.8773 52.0547 20.7461L52.1766 20.9617C52.6453 21.8367 52.8797 22.5617 52.8797 23.1367C52.8797 23.293 52.861 23.4398 52.8235 23.5773C52.6547 24.2086 52.061 25.1867 51.0422 26.5117C51.6297 26.9367 52.4485 27.268 53.4985 27.5055ZM76.2422 17.9992L74.6485 19.8555C73.6735 19.1805 72.7203 18.7773 71.7891 18.6461C71.7328 19.1836 71.6953 19.7961 71.6766 20.4836H75.5485V22.6961H71.7235C71.7422 23.4086 71.8141 24.2367 71.9391 25.1805L69.7828 25.968C70.9641 27.0305 72.6078 27.5617 74.7141 27.5617C74.9516 27.5617 75.1953 27.5555 75.4453 27.543L73.3922 30.318C70.736 30.0305 68.6922 29.093 67.261 27.5055C65.836 25.918 65.1235 23.5773 65.1235 20.4836L72.3985 16.218C73.2797 16.8242 74.561 17.418 76.2422 17.9992ZM69.061 25.1992L69.7547 24.9648C69.5672 23.5961 69.4735 22.4117 69.4735 21.4117C69.4735 20.4117 69.4891 19.6117 69.5203 19.0117C69.1453 19.1992 68.8391 19.418 68.6016 19.668C68.3703 19.918 68.2016 20.1617 68.0953 20.3992C67.9953 20.6305 67.9453 20.9617 67.9453 21.393C67.9453 21.818 67.9516 22.1398 67.9641 22.3586C68.0078 23.3461 68.3735 24.293 69.061 25.1992ZM78.3891 25.9023C78.4391 25.3211 78.4641 24.768 78.4641 24.243C78.4641 23.718 78.4422 23.2211 78.3985 22.7523C78.311 21.7773 77.9828 21.0086 77.4141 20.4461C78.8766 20.3773 80.2797 20.0773 81.6235 19.5461C80.261 18.8648 78.6297 18.5242 76.7297 18.5242C76.6297 18.5242 76.5297 18.5242 76.4297 18.5242L79.5141 16.218C82.3953 16.6617 84.5328 17.6836 85.9266 19.2836C87.3266 20.8836 88.0797 22.9898 88.186 25.6023L82.6641 30.318C80.8828 29.418 78.7703 28.6711 76.3266 28.0773L78.3891 25.9023ZM82.0641 19.7898C81.8703 20.1461 81.7172 20.4898 81.6047 20.8211C81.4922 21.1461 81.436 21.4586 81.436 21.7586C81.436 22.0586 81.4391 22.4398 81.4453 22.9023C81.4578 23.3586 81.4797 23.7898 81.511 24.1961C81.5422 24.6023 81.6516 25.0805 81.8391 25.6305C81.7078 25.618 81.5797 25.6117 81.4547 25.6117C80.8235 25.6117 80.2235 25.7398 79.6547 25.9961C81.1547 27.0898 82.3203 27.6367 83.1516 27.6367C83.4953 27.6367 83.7828 27.5398 84.0141 27.3461C84.7203 26.7523 85.0735 25.8961 85.0735 24.7773C85.0735 23.7836 84.8141 22.8523 84.2953 21.9836C83.7766 21.1086 83.0328 20.3773 82.0641 19.7898ZM98.0953 16.3961C97.5141 17.4211 97.1235 18.1211 96.9235 18.4961C97.061 20.0648 97.1891 21.3617 97.3078 22.3867C97.4266 23.4117 97.486 24.1055 97.486 24.468C97.486 25.5242 97.2828 26.3492 96.8766 26.943C96.2953 27.3492 95.7047 27.8492 95.1047 28.443C94.511 29.0367 93.911 29.6617 93.3047 30.318C92.211 29.8055 90.9391 29.2023 89.4891 28.5086C88.9641 28.2961 88.7016 27.918 88.7016 27.3742C88.7016 27.2305 88.7266 27.0086 88.7766 26.7086C88.8328 26.4023 88.8985 26.0305 88.9735 25.593C89.0547 25.1492 89.1328 24.7055 89.2078 24.2617C89.8891 25.1555 90.6172 25.868 91.3922 26.3992C92.1672 26.9242 92.9672 27.3461 93.7922 27.6648C93.9047 27.7086 94.0422 27.7305 94.2047 27.7305C94.3735 27.7305 94.5485 27.6211 94.7297 27.4023C94.9172 27.1836 95.011 26.893 95.011 26.5305C95.011 26.1617 94.9797 25.7023 94.9172 25.1523C94.861 24.6023 94.761 23.9023 94.6172 23.0523C94.4735 22.2023 94.3391 21.3461 94.2141 20.4836C94.7078 20.0898 95.2266 19.5992 95.7703 19.0117C95.3453 19.0555 94.8266 19.0773 94.2141 19.0773C93.6078 19.0773 93.0016 19.018 92.3953 18.8992C91.7953 18.7742 91.3141 18.7117 90.9516 18.7117C90.2328 18.7117 89.6016 18.8773 89.0578 19.2086C89.3578 18.0523 89.8078 16.9711 90.4078 15.9648C92.2391 16.2648 94.3141 16.4148 96.6328 16.4148C97.1078 16.4148 97.5953 16.4086 98.0953 16.3961ZM104.93 19.1148C104.293 18.9523 103.674 18.8711 103.074 18.8711C101.599 18.8711 100.255 19.3711 99.0422 20.3711C99.0485 20.3086 99.0266 20.1461 98.9766 19.8836C98.9328 19.6148 98.9172 19.4492 98.9297 19.3867C100.574 18.0367 102.361 16.9805 104.293 16.218C106.818 16.968 109.139 17.9992 111.258 19.3117C111.121 19.5367 110.949 19.7336 110.743 19.9023C110.536 20.0711 110.364 20.2648 110.227 20.4836C110.183 20.6023 110.161 20.7711 110.161 20.9898V21.4961L110.227 26.5211C110.246 26.9273 110.321 27.1805 110.452 27.2805L111.399 28.0586L109.749 30.318L107.602 28.4992C107.739 27.518 107.808 26.2336 107.808 24.6461H104.302C104.064 26.8586 103.386 28.7336 102.268 30.2711C101.155 31.8086 100.152 33.0117 99.2578 33.8805C98.9953 33.693 98.7578 33.5367 98.5453 33.4117C99.2703 32.6555 99.811 31.7898 100.168 30.8148C100.53 29.8398 100.839 28.8117 101.096 27.7305C101.352 26.643 101.48 25.5805 101.48 24.543C101.48 23.4992 101.252 22.5211 100.796 21.6086C102.314 20.8523 103.693 20.0211 104.93 19.1148ZM107.771 22.443C107.758 21.6992 107.752 21.243 107.752 21.0742C107.752 20.8992 107.755 20.7023 107.761 20.4836C107.143 20.0461 106.493 19.6867 105.811 19.4055C105.368 19.7367 105.03 20.118 104.799 20.5492C104.568 20.9742 104.43 21.6055 104.386 22.443H107.771Z" fill="#B4E717"/>
<path d="M72.2969 11.6084V4.47401H74.8505C75.6831 4.47401 76.3159 4.67187 76.7489 5.06761C77.1857 5.45961 77.4041 5.97667 77.4041 6.61881C77.4041 7.25348 77.1857 7.76681 76.7489 8.15881C76.3159 8.55081 75.6831 8.74682 74.8505 8.74682H73.3609V11.6084H72.2969ZM76.2337 11.6084L74.2569 8.32682H75.4049L77.6169 11.6084H76.2337ZM73.3609 8.01881H74.7553C75.2631 8.01881 75.6495 7.89747 75.9145 7.65481C76.1796 7.40841 76.3121 7.09108 76.3121 6.70281C76.3121 6.30334 76.1871 5.98601 75.9369 5.75081C75.6905 5.51188 75.3284 5.39241 74.8505 5.39241H73.3609V8.01881ZM83.1495 11.754C82.5409 11.754 81.9996 11.6159 81.5255 11.3396C81.0513 11.0633 80.678 10.6508 80.4055 10.102C80.1367 9.55322 80.0023 8.86814 80.0023 8.04681C80.0023 7.21054 80.1367 6.51988 80.4055 5.97481C80.678 5.42601 81.0513 5.01721 81.5255 4.74841C81.9996 4.47962 82.5409 4.34521 83.1495 4.34521C83.7617 4.34521 84.3049 4.48147 84.7791 4.75401C85.2569 5.02654 85.6303 5.43908 85.8991 5.99161C86.1716 6.54041 86.3079 7.22547 86.3079 8.04681C86.3079 8.87561 86.1716 9.56628 85.8991 10.1188C85.6303 10.6676 85.2569 11.0783 84.7791 11.3508C84.3049 11.6196 83.7617 11.754 83.1495 11.754ZM83.1495 10.7796C83.7841 10.7796 84.2844 10.5463 84.6503 10.0796C85.0199 9.61295 85.2047 8.93161 85.2047 8.03561C85.2047 7.16201 85.0199 6.48814 84.6503 6.01401C84.2844 5.53614 83.7841 5.29721 83.1495 5.29721C82.526 5.29721 82.0295 5.53614 81.6599 6.01401C81.2903 6.49187 81.1055 7.16947 81.1055 8.04681C81.1055 8.93534 81.2903 9.61295 81.6599 10.0796C82.0295 10.5463 82.526 10.7796 83.1495 10.7796ZM91.7862 11.754C91.1776 11.754 90.6363 11.6159 90.1622 11.3396C89.688 11.0633 89.3147 10.6508 89.0422 10.102C88.7734 9.55322 88.639 8.86814 88.639 8.04681C88.639 7.21054 88.7734 6.51988 89.0422 5.97481C89.3147 5.42601 89.688 5.01721 90.1622 4.74841C90.6363 4.47962 91.1776 4.34521 91.7862 4.34521C92.3984 4.34521 92.9416 4.48147 93.4158 4.75401C93.8936 5.02654 94.267 5.43908 94.5358 5.99161C94.8083 6.54041 94.9446 7.22547 94.9446 8.04681C94.9446 8.87561 94.8083 9.56628 94.5358 10.1188C94.267 10.6676 93.8936 11.0783 93.4158 11.3508C92.9416 11.6196 92.3984 11.754 91.7862 11.754ZM91.7862 10.7796C92.4208 10.7796 92.9211 10.5463 93.287 10.0796C93.6566 9.61295 93.8414 8.93161 93.8414 8.03561C93.8414 7.16201 93.6566 6.48814 93.287 6.01401C92.9211 5.53614 92.4208 5.29721 91.7862 5.29721C91.1627 5.29721 90.6662 5.53614 90.2966 6.01401C89.927 6.49187 89.7422 7.16947 89.7422 8.04681C89.7422 8.93534 89.927 9.61295 90.2966 10.0796C90.6662 10.5463 91.1627 10.7796 91.7862 10.7796ZM96.7884 5.39241V4.47401H102.411V5.39241H99.8908L100.132 5.14601V11.6084H99.0676V5.14601L99.3028 5.39241H96.7884Z" fill="#B4E717"/>
</g>
<defs>
<clipPath id="clip0_32006_1138">
<rect width="113" height="34" fill="white"/>
</clipPath>
</defs>
</svg>
