<svg width="92" height="40" viewBox="0 0 92 40" fill="none" xmlns="http://www.w3.org/2000/svg">
<path fill-rule="evenodd" clip-rule="evenodd" d="M45.633 37.951C25.5065 40.8268 8.00501 35.1618 6.57578 25.2553C5.14654 15.377 20.3144 5.03424 40.4409 2.12877C57.9424 -0.369613 73.4311 3.55232 78.127 11.1058C73.6059 2.56454 56.3959 -1.96777 36.8823 0.821459C15.035 3.9589 -1.44593 15.0861 0.100516 25.6906C1.61715 36.2658 20.5771 42.3087 42.4244 39.1708C51.3211 37.9218 59.313 35.3072 65.5549 31.9659C60.042 34.7265 53.1874 36.846 45.633 37.951ZM76.2603 27.2012C75.5312 27.2012 75.0644 26.6783 75.0644 26.0101C75.0644 25.052 75.8814 24.2962 76.7852 24.2962C77.5142 24.2962 78.0108 24.819 78.0108 25.4873C78.0103 26.4167 77.1651 27.2012 76.2603 27.2012Z" fill="white"/>
<path fill-rule="evenodd" clip-rule="evenodd" d="M30.0029 27.4638H27.5233L27.7275 26.2149C27.3773 26.709 26.2689 27.6968 24.869 27.6968C23.2063 27.6968 22.3894 26.8831 22.3894 25.5466C22.3894 25.3147 22.4187 25.0535 22.4768 24.7918L23.4978 19.0096H25.9774L25.0731 24.0074C25.015 24.269 25.015 24.5005 25.015 24.7043C25.015 25.6342 25.3939 26.2149 26.1815 26.2149C27.2025 26.2149 27.8442 25.5466 28.165 23.8619L29.0107 19.0096H31.4902L30.0029 27.4638ZM37.6452 21.1603H37.1496C37.1789 20.3466 36.4787 19.6778 35.7199 19.6778C34.8453 19.6778 34.1739 20.2012 34.1739 20.8694C34.1739 21.5085 34.9615 21.7696 35.7785 22.0902C36.7409 22.4379 37.7326 22.9607 37.7326 24.3269C37.7326 26.1862 36.1862 27.6968 33.7364 27.6968C32.9488 27.6968 31.7823 27.4638 31.2861 26.9989L31.8697 25.3142H32.3072C32.4825 26.1857 33.1534 26.7951 34.1451 26.7951C35.1662 26.7951 35.7492 26.069 35.7492 25.5753C35.7492 25.0525 35.2535 24.7617 34.6119 24.5C33.5909 24.035 32.2784 23.5998 32.2784 22.0892C32.2784 20.2877 33.8243 18.7766 35.8664 18.7766C36.9162 18.7766 37.8498 19.0675 38.3459 19.5903L37.6452 21.1603ZM41.4666 17.6731C40.7664 17.6731 40.2708 17.1498 40.2708 16.482C40.2708 15.5813 41.1165 14.826 41.9627 14.826C42.6624 14.826 43.1586 15.3196 43.1586 15.9884C43.158 16.8886 42.3416 17.6731 41.4666 17.6731ZM40.9705 27.4638H38.4909L39.9783 19.0096H42.4578L40.9705 27.4638ZM51.2965 22.3216L50.3628 27.4638H47.8833L48.7583 22.6709C48.7881 22.3221 48.8164 21.9729 48.8164 21.6831C48.8164 20.8397 48.4956 20.2887 47.6797 20.2887C46.6 20.2887 45.9291 21.3922 45.7245 22.6709L44.8495 27.4638H42.3699L43.8866 19.0096H46.3656L46.1327 20.3169C46.4242 19.8519 47.5913 18.7771 49.1377 18.7771C50.7993 18.7771 51.4122 19.5908 51.4122 21.0143C51.4127 21.3922 51.3546 21.8275 51.2965 22.3216ZM58.0349 21.1009C58.0349 21.4793 57.947 21.9146 57.8889 22.3216H55.2053C55.468 20.9273 56.0803 19.5908 57.1306 19.5908C57.801 19.5908 58.0349 20.259 58.0349 21.1009ZM60.3685 21.741C60.3685 19.8816 59.5799 18.7771 57.2761 18.7771C54.2716 18.7771 52.2882 21.1009 52.2882 24.1518C52.2882 26.2728 53.4557 27.7255 56.0222 27.7255C57.072 27.7255 57.801 27.4638 58.7927 26.941L59.3758 25.924L59.201 25.7499C58.6179 26.1862 57.6843 26.5636 56.8967 26.5636C55.6711 26.5636 54.9132 25.924 54.9132 24.4426C54.9132 24.0939 54.9714 23.7165 55.0295 23.3094H60.2215C60.3094 22.7287 60.3685 22.2059 60.3685 21.741ZM66.96 21.1603H66.4649C66.4649 20.3466 65.7939 19.6778 65.0351 19.6778C64.1601 19.6778 63.4887 20.2012 63.4887 20.8694C63.4887 21.5085 64.2773 21.7696 65.0932 22.0902C66.0268 22.4379 67.0479 22.9607 67.0479 24.3269C67.0479 26.1862 65.5014 27.6968 63.0517 27.6968C62.2347 27.6968 61.098 27.4638 60.6014 26.9989L61.1561 25.3142H61.6229C61.7977 26.1857 62.4687 26.7951 63.4306 26.7951C64.4814 26.7951 65.0644 26.069 65.0644 25.5753C65.0644 25.0525 64.5395 24.7617 63.9267 24.5C62.9057 24.035 61.5643 23.5998 61.5643 22.0892C61.5643 20.2877 63.1098 18.7766 65.1806 18.7766C66.2304 18.7766 67.1641 19.0675 67.6602 19.5903L66.96 21.1603ZM74.0187 21.1603H73.5236C73.5524 20.3466 72.8815 19.6778 72.0939 19.6778C71.2482 19.6778 70.5475 20.2012 70.5475 20.8694C70.5475 21.5085 71.3351 21.7696 72.152 22.0902C73.1149 22.4379 74.1066 22.9607 74.1066 24.3269C74.1066 26.1862 72.5602 27.6968 70.1104 27.6968C69.3228 27.6968 68.1558 27.4638 67.6602 26.9989L68.2432 25.3142H68.6802C68.856 26.1857 69.5269 26.7951 70.5187 26.7951C71.5685 26.7951 72.1232 26.069 72.1232 25.5753C72.1232 25.0525 71.6271 24.7617 70.9855 24.5C69.9644 24.035 68.6519 23.5998 68.6519 22.0892C68.6519 20.2877 70.1983 18.7766 72.2399 18.7766C73.2897 18.7766 74.2234 19.0675 74.7483 19.5903L74.0187 21.1603ZM82.186 17.6731C81.4569 17.6731 80.9901 17.1498 80.9901 16.482C80.9901 15.5813 81.807 14.826 82.6528 14.826C83.3818 14.826 83.8486 15.3196 83.8486 15.9884C83.8486 16.8886 83.0317 17.6731 82.186 17.6731ZM81.661 27.4638H79.2108L80.6976 19.0096H83.1772L81.661 27.4638ZM89.3033 21.1009C89.3033 21.4793 89.2452 21.9146 89.1871 22.3216H86.5035C86.7662 20.9273 87.3492 19.5908 88.4288 19.5908C89.0992 19.5908 89.3033 20.259 89.3033 21.1009ZM91.6657 21.741C91.6657 19.8816 90.8781 18.7771 88.5743 18.7771C85.5698 18.7771 83.5864 21.1009 83.5864 24.1518C83.5864 26.2728 84.7241 27.7255 87.3204 27.7255C88.3409 27.7255 89.0992 27.4638 90.091 26.941L90.674 25.924L90.4992 25.7499C89.9161 26.1862 88.9825 26.5636 88.1949 26.5636C86.9693 26.5636 86.2115 25.924 86.2115 24.4426C86.2115 24.0939 86.2403 23.7165 86.3277 23.3094H91.4904C91.6076 22.7287 91.6657 22.2059 91.6657 21.741ZM18.8605 18.7771C17.6647 18.7771 16.7023 19.387 16.1769 20.2303L17.2565 14.0415H14.7769L12.4141 27.4638H14.8931L14.9805 27.0864C15.418 27.4638 16.0309 27.6968 16.7892 27.6968C19.9685 27.6968 21.7185 24.6167 21.7185 21.9442C21.7483 19.9974 20.6692 18.7771 18.8605 18.7771ZM16.5856 26.8831C15.7106 26.8831 15.4478 26.0987 15.4478 25.1114C15.4478 22.9612 16.1769 19.94 17.9274 19.94C18.8024 19.94 19.0944 20.6661 19.1232 21.6257C19.1232 23.7165 18.1603 26.8831 16.5856 26.8831Z" fill="white"/>
</svg>
