<svg width="116" height="32" viewBox="0 0 116 32" fill="none" xmlns="http://www.w3.org/2000/svg">
<path d="M35.1475 0C38.8082 5.70456e-05 41.3706 0.920067 43.3838 2.94238C45.0578 4.45609 45.6586 6.43154 45.7471 9.15039C46.4232 8.97951 47.1003 8.79875 47.7764 8.45898C48.5085 8.45891 49.4234 8.27539 50.5215 8.27539C52.5353 8.27541 54.3653 8.8272 55.2803 9.74707C56.5613 10.4824 56.9277 11.7692 56.9277 12.873C56.9277 13.7929 56.7455 14.7117 56.0127 15.2637C55.2805 15.815 54.5487 16.3674 53.6338 16.5508H53.4512C54.732 16.7354 55.8304 17.1031 56.5625 18.0215C57.2947 18.7586 57.4775 19.678 57.4775 20.7812C57.4775 22.2524 56.9283 23.3555 55.8301 24.2754C54.5484 25.5632 52.5352 26.1143 49.6064 26.1143C47.044 26.1143 44.8475 25.5633 43.5664 24.6436C42.4682 23.7238 41.7355 22.4371 41.7354 21.1494C41.7354 21.0853 41.7384 21.0208 41.7412 20.957C41.7388 20.9605 41.7368 20.9643 41.7344 20.9678C40.2693 22.6217 37.5234 25.3809 33.8623 25.3809C32.2153 25.3808 32.2148 23.9101 32.2148 23.3574C32.2148 21.7028 32.7649 19.4961 32.9482 18.3916L33.4971 16.7373C29.8355 23.1739 25.6255 25.3807 23.2461 25.3809C22.3306 25.3809 20.5002 24.8292 20.5 22.4385C20.5 20.4148 21.5977 18.2078 21.9639 17.1045L24.1611 12.1387C24.1637 12.1285 24.1673 12.1185 24.1699 12.1084C24.3537 11.3883 24.7047 10.6785 24.71 10.668C24.71 10.668 24.7097 10.1164 24.1611 10.1162C23.4289 10.1162 22.5135 11.2198 21.7812 11.9551C21.2326 12.323 20.6834 13.0582 20.3174 13.0586C20.3174 13.0586 19.7688 13.0582 19.7686 12.6904C19.7686 12.6904 20.1341 11.9546 21.2324 10.4834C23.9777 8.09246 26.3578 7.54108 27.8223 7.54102C29.2867 7.54102 30.0195 8.46019 30.0195 9.74805C30.0195 10.1156 30.0191 11.2196 29.4697 12.1387L26.541 19.3105C26.3589 20.4103 26.3584 20.9633 26.3584 20.9668C26.3584 20.9668 26.358 21.6138 26.8105 21.6943L26.9072 21.7021C27.2742 21.7019 28.3719 21.1496 29.8359 19.6787C30.7518 18.7598 34.2288 15.2652 35.5098 9.74805L35.876 9.0127C36.0593 8.27678 36.7921 8.09277 37.1582 8.09277H40.6357L40.8174 8.10059C41.1851 8.13849 41.1855 8.30055 41.1855 8.46094L38.4395 17.2881C38.2566 18.2082 37.5244 20.7823 37.5244 21.7021C37.5244 21.7049 37.5289 21.8857 38.0732 21.8857C38.0732 21.8857 39.5385 21.3342 41.1855 18.9434C42.0681 17.8026 42.7769 16.051 43.1924 13.8691L42.6494 13.792L43.1992 8.82715H43.3799C43.0436 7.16512 42.2644 5.68153 41.1855 4.59766C39.5384 2.94189 37.3419 2.20606 34.4131 2.20605C30.0205 2.20605 26.3594 3.67772 23.0645 6.62012C20.1356 9.56255 18.1219 12.8732 17.3896 17.1035C17.207 18.0227 17.207 18.9428 17.207 20.0459C17.2071 23.1722 17.94 25.3786 19.7705 27.2178C21.7837 29.0568 24.1633 29.792 27.2754 29.792C29.2885 29.7919 31.1188 29.4258 32.4004 29.2412C33.8648 29.0572 36.0617 27.7703 36.7939 27.2178C38.2583 26.2993 39.356 26.8501 37.3428 28.5059C36.0617 29.4257 33.8648 30.7121 32.2178 31.2646C30.2045 31.632 28.3734 32 26.1768 32C22.516 31.9999 19.5872 30.897 17.208 28.874C16.1139 27.6828 15.2018 26.4 14.5615 24.9131C14.4676 24.9534 14.3731 24.987 14.2783 25.0107C13.5461 25.3787 12.8134 25.5635 11.8984 25.5635H0V23.7236H1.09863C1.28123 23.356 1.64718 23.1722 1.83008 23.1719C1.83025 22.9878 2.01367 22.6198 2.01367 22.4365V11.9541C2.01351 11.7704 1.83008 11.7701 1.83008 11.4023C1.64735 11.2184 1.2814 10.851 1.09863 10.8506C0.549783 10.6666 0.366106 10.666 0 10.666V8.82617H14.0947L15.4141 12.4043C16.6203 9.65911 18.4622 7.13625 21.0527 4.78125C25.2625 1.65504 30.0221 0 35.1475 0ZM107.085 8.27734C107.817 8.27738 108.732 8.46094 109.281 8.46094C110.014 8.8287 110.746 9.01236 111.111 9.19629L111.478 8.82812H112.943L115.139 14.7139L113.125 15.2656C112.576 13.7944 111.661 12.875 110.929 11.9551C110.013 10.8519 108.915 10.4834 107.45 10.4834C106.535 10.4834 105.62 10.8517 104.705 12.1387C103.608 13.0579 103.425 14.8976 103.425 17.2881C103.425 18.3913 103.608 19.6788 103.974 20.4141C104.157 21.3339 104.705 21.885 105.071 22.4375C105.62 22.9882 105.986 23.1731 106.535 23.3564C107.268 23.7243 107.45 23.7236 108 23.7236C108.732 23.7236 109.465 23.7242 110.015 23.1729C110.747 22.9883 111.111 22.6208 111.661 22.2529C112.577 21.3343 113.125 20.414 113.492 19.6787L115.505 20.7832C114.773 21.8864 114.04 23.3576 112.576 24.2773C111.477 25.3811 109.464 26.1161 107.269 26.1162C104.705 26.1162 102.326 25.3812 101.044 23.7256C99.2134 21.8864 98.2979 19.6792 98.2979 17.2881C98.2979 14.7138 99.2128 12.3231 100.678 10.668C102.142 9.19614 104.339 8.27734 107.085 8.27734ZM67.7314 10.667C66.9992 10.667 66.2659 10.8508 65.9004 11.2188C65.717 11.4027 65.5342 11.9551 65.5342 12.6904V15.2656H71.5752V12.6904C71.5752 11.9545 71.3911 11.4027 71.0244 11.2188C70.842 10.8511 70.1098 10.667 69.3779 10.667V8.82812H78.1631V10.666C77.4309 10.666 76.6978 10.8508 76.5156 11.2188C76.1491 11.7704 75.9659 12.1377 75.9658 12.6895V22.4375C75.9659 22.6203 76.1494 22.9883 76.1494 23.1729C76.5158 23.1729 76.6976 23.3561 76.8809 23.7236H78.1631V25.5635H69.377V23.7236H70.6582C70.8415 23.3559 71.024 23.1729 71.3906 23.1729C71.3906 22.991 71.5691 22.4501 71.5732 22.4375V17.8398H65.5322V21.7021C65.5322 21.7072 65.5334 22.2537 65.7158 22.4375C65.7158 22.6203 65.7161 22.9883 65.8994 23.1729C65.9053 23.1758 66.2663 23.3589 66.4482 23.7236H67.7295V25.5635H58.7617V23.7236H60.042L60.5908 23.1729C60.9549 22.9901 61.1381 22.4451 61.1406 22.4375V12.6904C61.1406 12.1385 60.9575 11.7707 60.5908 11.2188C60.4087 11.2188 60.4084 10.8508 60.042 10.8506C59.6766 10.6666 59.4935 10.667 58.7617 10.667V8.82812H67.7314V10.667ZM97.0186 13.793L95.3701 14.7119C94.8213 13.7927 94.0885 12.8736 92.9902 12.1377C91.892 11.4025 90.6106 10.8506 88.7803 10.8506H88.2314C87.3159 10.8506 86.5838 11.2184 86.4004 11.4023C86.4004 11.9543 86.2178 12.1383 86.2178 13.0576V15.2646H86.9492C88.0482 15.2646 88.5984 15.0805 88.9639 14.8965C89.5131 14.3446 89.8779 13.6085 89.8779 12.6895H91.709V20.4141H89.8779C89.8779 19.4955 89.5139 18.7596 88.9639 18.207C88.5984 18.0224 88.0475 17.8389 86.9492 17.8389H86.2178V21.334C86.2178 22.2531 86.4007 22.9883 86.584 23.1729C86.9489 23.3562 87.1325 23.3564 87.6826 23.3564C89.3297 23.3564 90.7938 23.1728 92.2588 22.4375C93.7224 21.7022 94.8217 20.7824 95.9199 18.9434L97.75 19.6787L94.8213 25.5635H79.2627V23.7236H80.7266L81.2754 23.1729C81.6391 22.9903 81.8222 22.4464 81.8252 22.4375V12.6904L81.6416 11.9551C81.6416 11.9551 81.6419 11.7711 81.2754 11.4033C81.2754 11.2194 81.0932 10.8507 80.7266 10.8506C80.5431 10.6668 79.9947 10.667 79.2627 10.667V8.82812L94.6387 8.82715L97.0186 13.793ZM49.4229 10.4814C48.8741 10.4814 48.3248 10.6657 47.7754 10.8496C47.2259 11.2176 46.86 11.7691 46.3105 11.9531C45.8774 12.4973 45.6371 12.9773 45.4746 13.3926C45.4492 13.5239 45.4247 13.6586 45.3945 13.7949C45.2716 15.2734 44.4905 16.8335 43.4385 18.4775C43.5924 18.422 43.7568 18.3896 43.9316 18.3896C44.6637 18.3897 45.3956 18.7584 45.5791 19.3096C45.7618 19.6775 46.1279 20.0457 46.1279 20.4131V21.1484C45.762 21.3331 45.7617 21.7012 45.7617 21.7012C45.7617 21.884 45.762 22.252 46.1279 22.4365C46.1281 22.6194 46.3109 22.9874 46.4941 23.1719C46.8602 23.3552 47.0438 23.3548 47.2266 23.7227C47.7754 23.7227 48.3252 23.9072 48.874 23.9072C50.1549 23.7226 51.2531 23.3544 51.6191 22.6191C52.3512 22.2517 52.5342 21.3329 52.5342 20.4131C52.5342 19.6773 52.3516 19.3099 52.1689 18.7588C51.8028 18.3902 51.4365 18.2061 50.8877 18.0215H47.5928L47.5918 15.6309H49.4229C49.9717 15.6309 50.5216 15.2631 50.8877 15.0791C51.4364 15.0791 51.6195 14.8956 52.1689 14.3438C52.3516 14.1596 52.3509 13.6072 52.5342 12.8721C52.534 12.6881 52.3517 12.3201 52.3516 12.1367C52.3516 11.9534 52.1678 11.7693 51.8018 11.4014C51.4357 10.8501 50.7043 10.6654 49.4229 10.4814ZM6.40723 22.252C6.40745 22.6193 6.77365 23.1719 7.13965 23.1719C7.68877 23.3551 7.8717 23.3545 8.60352 23.3545C9.33502 23.3545 9.88487 23.3552 10.251 23.1719C10.7998 22.9879 11.3494 22.6199 11.5322 22.4365C11.8983 21.7012 12.0811 21.1484 12.0811 20.4131C12.0811 19.4945 11.8986 18.7596 11.166 18.207C10.6172 18.0225 9.51906 17.8389 8.4209 17.8389H6.40723V22.252ZM7.87207 10.8496C7.50608 10.8496 7.13947 10.8492 6.95605 11.2168L6.77344 11.4014C6.40734 11.7687 6.40723 11.9527 6.40723 12.1367V15.2627H8.60352C10.2513 15.2627 11.8988 15.6307 12.9971 15.998C13.4214 15.998 13.8183 16.081 14.167 16.2246C14.296 15.6466 14.4474 15.078 14.6221 14.5186L14.2783 14.7109C13.5461 13.4237 12.8134 12.3201 11.8984 11.9521C11.3488 11.2172 9.88492 10.8497 8.4209 10.8496H7.87207ZM70.3008 3.18359H70.5156C70.6131 3.1836 70.7282 3.19017 70.8584 3.20312C70.9885 3.21609 71.1209 3.24543 71.2559 3.29102C71.509 3.37004 71.7417 3.51974 71.9541 3.73828C72.1677 3.95683 72.2744 4.29376 72.2744 4.75C72.2744 5.17569 72.1794 5.4966 71.9863 5.71387C71.7944 5.9305 71.5837 6.08466 71.3535 6.1748C71.1973 6.23548 71.0336 6.27581 70.8672 6.2959C70.7129 6.31256 70.5962 6.32129 70.5166 6.32129H70.3018V6.91504H69.7822L69.7812 6.32129H69.5605C69.4668 6.32126 69.3508 6.31265 69.2158 6.29785C69.0732 6.28139 68.9325 6.24928 68.7969 6.20215C68.5489 6.11507 68.3207 5.96256 68.1152 5.74414C67.9099 5.52558 67.8066 5.19393 67.8066 4.74902C67.8067 4.30025 67.9122 3.96648 68.1221 3.74609C68.3306 3.52585 68.5618 3.37595 68.8135 3.29688C68.9536 3.25181 69.0875 3.22087 69.2178 3.20605C69.348 3.19124 69.4624 3.18359 69.5605 3.18359H69.7803V2.58398H70.3008V3.18359ZM79.9189 2.69141C80.4133 2.69145 80.8435 2.85375 81.2139 3.17773C81.583 3.50183 81.7675 4.03905 81.7676 4.78906C81.7676 5.43291 81.6079 5.94301 81.29 6.31836C80.9721 6.69368 80.5146 6.88082 79.9189 6.88086V6.88574C79.3233 6.88204 78.8664 6.69193 78.5479 6.31543C78.2293 5.93821 78.0703 5.42928 78.0703 4.78906C78.0703 4.03905 78.2576 3.50183 78.6299 3.17773C78.984 2.86091 79.4438 2.6875 79.9189 2.69141ZM49.957 5.99219L52.0215 2.80957H52.5469V6.76758H52.0215V3.56152L49.957 6.76758H49.4375V2.80957H49.957V5.99219ZM59.3213 4.46094H61.2725V2.80957H61.792V6.76758H61.2725V4.90723H59.3213V6.76758H58.8018V2.80957H59.3213V4.46094ZM79.7266 3.14941C79.6572 3.15712 79.5885 3.17266 79.5225 3.19531C79.2959 3.25952 79.0892 3.40869 78.9033 3.64453C78.7164 3.88035 78.6231 4.26204 78.623 4.78906C78.623 4.8792 78.6289 4.98544 78.6406 5.10645C78.6517 5.22658 78.6748 5.35038 78.708 5.47852C78.7722 5.71984 78.8954 5.94028 79.0762 6.13965C79.2583 6.33906 79.538 6.43945 79.9189 6.43945C80.3677 6.43941 80.6959 6.28521 80.9033 5.97656C81.1107 5.6679 81.2139 5.27115 81.2139 4.78906C81.2138 4.33292 81.1419 3.99048 80.998 3.7627C80.8561 3.53504 80.6962 3.37587 80.5234 3.28516C80.416 3.22592 80.2995 3.18522 80.1787 3.16406C80.0926 3.14947 80.0053 3.14093 79.918 3.13867C79.8576 3.13868 79.7943 3.14204 79.7266 3.14941ZM70.3008 5.90137L70.4482 5.90234C70.5191 5.90234 70.5986 5.89863 70.6855 5.89062C70.7769 5.88259 70.868 5.86767 70.957 5.8457C71.1488 5.79326 71.3245 5.68769 71.4824 5.5293C71.6405 5.37063 71.7207 5.10983 71.7207 4.74805C71.7206 4.39044 71.6397 4.13262 71.4795 3.97461C71.3341 3.82485 71.1517 3.71501 70.9512 3.65723C70.8611 3.63442 70.7725 3.61971 70.6855 3.6123C70.5987 3.60492 70.5191 3.60059 70.4482 3.60059H70.3008V5.90137ZM69.6348 3.60156C69.2311 3.60156 68.9413 3.67432 68.7666 3.81934C68.5919 3.96442 68.4769 4.12401 68.4238 4.29688C68.3996 4.37512 68.3825 4.45574 68.373 4.53711C68.3592 4.67593 68.3589 4.8161 68.3711 4.95508C68.3773 5.02841 68.3903 5.10473 68.4131 5.18359C68.4662 5.36447 68.5796 5.52993 68.7549 5.67871C68.9302 5.8275 69.2236 5.90137 69.6348 5.90137H69.7812V3.60156H69.6348Z" fill="#B4E717"/>
</svg>
