<svg width="1536" height="122" viewBox="0 0 1536 122" fill="none" xmlns="http://www.w3.org/2000/svg">
<g clip-path="url(#clip0_32155_1936)">
<path d="M1342.62 91.9895H1414.07L1536 122H1450.72M1342.62 91.9895L1264.67 70.3589H1141.73M1342.62 91.9895L1450.72 122M1342.62 91.9895H1199.72M1450.72 122H1280.17M1141.73 70.3589L1199.72 91.9895M1141.73 70.3589L1018.77 70.3584M1141.73 70.3589L1013.61 22.5737M1199.72 91.9895L1280.17 122M1199.72 91.9895H1056.82M1280.17 122H1109.61M1056.82 91.9895H985.373M1056.82 91.9895L1018.77 70.3584M1056.82 91.9895L1109.61 122M985.373 91.9895L957.297 70.3589M985.373 91.9895H913.935M985.373 91.9895L1024.35 122M1018.77 70.3584L957.297 70.3589M1018.77 70.3584L990.03 54.0245L936.083 54.024M957.297 70.3589L936.083 54.024M957.297 70.3589H895.812M1109.61 122H1024.35M913.935 91.9895L939.066 122M913.935 91.9895L895.812 70.3589M913.935 91.9895H771.041M1024.35 122H939.066M936.083 54.024L882.136 54.0245M936.083 54.024L878.366 9.57612H844.905M895.812 70.3589L882.136 54.0245M895.812 70.3589L834.337 70.3584M882.136 54.0245L844.905 9.57612M882.136 54.0245H828.188M844.905 9.57612H811.449M844.905 9.57612L836.888 0M811.449 9.57612H777.993M811.449 9.57612L807.845 0M811.449 9.57612L828.188 54.0245M836.888 0H807.845M836.888 0H865.943M777.993 9.57612L778.415 4.44924L778.79 0M777.993 9.57612L777.481 15.5401L775.312 41.2492L771.041 91.9895M777.993 9.57612H711.065M807.845 0H778.79M828.188 54.0245H720.288M828.188 54.0245L834.337 70.3584M778.79 0H749.753M771.041 91.9895H628.137M771.041 91.9895L768.508 121.999M711.065 9.57612H677.609L612.394 54.024M711.065 9.57612L720.698 0M711.065 9.57612L697.975 22.5737L689.52 30.995L666.341 54.0245M612.394 54.024L588.424 70.3589M612.394 54.024L558.448 54.0245L526.951 70.3589H403.993M612.394 54.024L666.341 54.0245M720.698 0H749.753M720.698 0H691.644M666.341 54.0245H720.288M666.341 54.0245L649.909 70.3589M588.424 70.3589L556.699 91.9895M588.424 70.3589L526.951 70.3584L485.246 91.9895M588.424 70.3589H649.909M403.993 70.3589H281.051L199.451 91.9895M403.993 70.3589L256.836 122M403.993 70.3589L540.174 22.5743H579.616L596.429 15.5407H1030.95L1053.07 22.5743H1092.51L1122.85 30.9957H1166.2L1207.87 41.2498M556.699 91.9895H485.246M556.699 91.9895L512.673 122M556.699 91.9895H628.137M485.246 91.9895L427.394 122M485.246 91.9895H199.451M649.909 70.3589L628.137 91.9895M649.909 70.3589L834.337 70.3584M512.673 122H597.949M512.673 122H427.394M628.137 91.9895L597.949 122M427.394 122H86.2781M199.451 91.9895H128.014L1 122H86.2781M199.451 91.9895L86.2781 122M720.288 54.0245L683.228 122M720.288 54.0245L737.432 22.5737L741.281 15.5401L744.52 9.57607L749.753 0M834.337 70.3584L853.787 121.999M1013.61 22.5737H974.15L945.278 9.57607M1013.61 22.5737H1053.07L1079.52 30.995H1122.85L1159.82 41.2492H1207.87L1259.77 54.024M1013.61 22.5737L978.751 9.57607M171.558 121.998L438.883 41.2478H535.003L559.504 30.9936H992.848L1015.63 41.2478H1111.75L1365.45 121.998M128.014 91.989L219.565 70.3579H281.052L342.659 54.0236H504.501M504.501 54.0236H558.449L583.072 41.2486M504.501 54.0236L535.003 41.2486H583.072M504.501 54.0236L342.116 121.999M583.072 41.2486L619.078 22.5731H934.711L967.563 41.2486M583.072 41.2486H967.563M967.563 41.2486L990.03 54.0236H1043.98M967.563 41.2486H1015.63L1043.98 54.0236M1043.98 54.0236H1205.82L1264.67 70.3579H1326.15L1414.07 91.989M1043.98 54.0236L1194.89 121.999M939.066 122L853.787 121.999M853.787 121.999H768.508M865.943 0L871.716 4.44924H902.803M865.943 0H894.98M691.644 0L685.13 4.44924H654.026M691.644 0H662.606M597.949 122L768.508 121.999M219.564 70.3598L288.71 54.0255H342.658L390.816 41.2505H438.883L472.838 30.9963H559.504L579.616 22.575H619.078L644.147 9.57739H677.609L685.13 4.45056H871.716L878.366 9.57739H911.822L934.711 22.575H974.15L992.848 30.9963H1079.52L1111.75 41.2505H1159.82L1205.82 54.0255H1259.77L1326.15 70.3598M288.711 54.024L342.749 41.2492M342.749 41.2492H390.816L429.505 30.995M342.749 41.2492L386.172 30.995M429.505 30.995H472.838L500.717 22.5737M429.505 30.995H386.172M429.505 30.995L461.259 22.5737M386.172 30.995L421.815 22.5737M500.717 22.5737H540.175L560.213 15.5401M500.717 22.5737H461.259M500.717 22.5737L524.012 15.5401M461.259 22.5737H421.815M461.259 22.5737L487.795 15.5401M560.213 15.5401H596.429L610.691 9.57607M560.213 15.5401H524.012M560.213 15.5401L577.219 9.57607M524.012 15.5401H487.795M524.012 15.5401L543.763 9.57607M610.691 9.57607H644.147L654.026 4.44924M610.691 9.57607H577.219M610.691 9.57607L622.938 4.44924H654.026M577.219 9.57607H543.763M577.219 9.57607L591.828 4.44924M654.026 4.44924L662.606 0M662.606 0H633.551M633.551 0L622.933 4.44924H591.828M633.551 0H604.508M421.815 22.5737L451.593 15.5401M487.795 15.5401H451.593M487.795 15.5401L510.305 9.57607M543.763 9.57607H510.305M543.763 9.57607L560.725 4.44924M591.828 4.44924L604.508 0M591.828 4.44924H560.725M451.593 15.5401L476.848 9.57607M510.305 9.57607H476.848M510.305 9.57607L529.635 4.44924M560.725 4.44924H529.635M560.725 4.44924L575.454 0M604.508 0H575.454M575.454 0H546.416M476.848 9.57607L498.53 4.44924M529.635 4.44924L546.416 0M529.635 4.44924H498.53M982.127 0H1011.17M982.127 0H953.073M982.127 0L996.105 4.44924M1011.17 0H1040.22L1058.3 4.44924M1011.17 0L1027.19 4.44924H1058.3M1058.3 4.44924L1079.12 9.57607M1079.12 9.57607H1045.67M1079.12 9.57607L1103.38 15.5401M902.803 4.44924L911.822 9.57607H945.278M902.803 4.44924L894.98 0M902.803 4.44924H933.913M894.98 0H924.035M945.278 9.57607L933.913 4.44924M945.278 9.57607H978.751M933.913 4.44924L924.035 0M933.913 4.44924H965.001M978.751 9.57607H1012.21M978.751 9.57607L965.001 4.44924M924.035 0H953.073M953.073 0L965.001 4.44924M996.105 4.44924L1012.21 9.57607M996.105 4.44924H965.001M996.105 4.44924H1027.2L1045.67 9.57607M1012.21 9.57607H1045.67M1012.21 9.57607L1030.95 15.5401H1067.17M1045.67 9.57607L1067.17 15.5401M1067.17 15.5401H1103.38M1067.17 15.5401L1092.51 22.5737H1131.97M1103.38 15.5401L1131.97 22.5737M1131.97 22.5737L1166.2 30.995M498.53 4.44924L517.361 0H546.416" stroke="url(#paint0_linear_32155_1936)" stroke-opacity="0.4" stroke-linecap="round" stroke-linejoin="round"/>
<path d="M909.761 87.3195L876.172 47.7441" stroke="url(#paint1_linear_32155_1936)" stroke-width="1.5" stroke-linecap="round"/>
<path d="M696.836 95.7726L716.762 59.6553" stroke="url(#paint2_linear_32155_1936)" stroke-width="1.5" stroke-linecap="round"/>
<path d="M475.945 30.0693L500.995 22.769" stroke="url(#paint3_linear_32155_1936)" stroke-width="1.5" stroke-linecap="round"/>
<path d="M1075.99 46.2071L1027.03 28.1484" stroke="url(#paint4_linear_32155_1936)" stroke-width="1.5" stroke-linecap="round"/>
</g>
<defs>
<linearGradient id="paint0_linear_32155_1936" x1="768.502" y1="0" x2="768.502" y2="122" gradientUnits="userSpaceOnUse">
<stop stop-color="#E5E5E5"/>
<stop offset="0.48" stop-color="#E5E5E5"/>
<stop offset="1" stop-color="#E5E5E5" stop-opacity="0"/>
</linearGradient>
<linearGradient id="paint1_linear_32155_1936" x1="910.023" y1="87.2193" x2="892.342" y2="41.492" gradientUnits="userSpaceOnUse">
<stop stop-color="#E5E5E5" stop-opacity="0"/>
<stop offset="1" stop-color="#041427" stop-opacity="0.6"/>
</linearGradient>
<linearGradient id="paint2_linear_32155_1936" x1="697.109" y1="95.8413" x2="706.831" y2="57.159" gradientUnits="userSpaceOnUse">
<stop stop-color="#E5E5E5" stop-opacity="0"/>
<stop offset="1" stop-color="#041427" stop-opacity="0.6"/>
</linearGradient>
<linearGradient id="paint3_linear_32155_1936" x1="476.081" y1="30.282" x2="497.169" y2="16.7895" gradientUnits="userSpaceOnUse">
<stop stop-color="#E5E5E5" stop-opacity="0"/>
<stop offset="1" stop-color="#041427" stop-opacity="0.6"/>
</linearGradient>
<linearGradient id="paint4_linear_32155_1936" x1="1076.15" y1="46.0078" x2="1037.75" y2="14.9107" gradientUnits="userSpaceOnUse">
<stop stop-color="#E5E5E5" stop-opacity="0"/>
<stop offset="1" stop-color="#041427" stop-opacity="0.6"/>
</linearGradient>
<clipPath id="clip0_32155_1936">
<rect width="1536" height="122" fill="white"/>
</clipPath>
</defs>
</svg>
