<svg width="142" height="142" viewBox="0 0 142 142" fill="none" xmlns="http://www.w3.org/2000/svg">
<path d="M73.2731 13.0481L74.6188 1.92923L81.6382 2.79061L81.4805 4.09311L76.0493 3.42661L75.6187 6.98464L80.5735 7.59268L80.4197 8.86341L75.4649 8.25537L75.0189 11.9405L80.4501 12.607L80.2925 13.9095L73.2731 13.0481Z" fill="white"/>
<path d="M84.0529 14.403L89.1397 10.1636L87.6346 3.79101L89.3593 4.38455L90.5039 9.27939L94.246 6.06625L95.9405 6.64938L90.8893 10.8334L92.3891 17.2717L90.6643 16.6782L89.51 11.7123L85.7625 14.9913L84.0529 14.403Z" fill="white"/>
<path d="M96.9779 19.2294L102.848 9.69096L106.091 11.7166C106.851 12.1912 107.397 12.7082 107.729 13.2677C108.061 13.8272 108.214 14.3938 108.186 14.9677C108.159 15.5415 107.977 16.101 107.642 16.6461C107.323 17.1639 106.912 17.5673 106.408 17.8565C105.919 18.1422 105.35 18.2642 104.699 18.2225C104.054 18.1718 103.347 17.9062 102.578 17.426L100.691 16.2479L98.335 20.0769L96.9779 19.2294ZM101.387 15.1169L103.22 16.2611C103.934 16.7075 104.536 16.8694 105.025 16.747C105.528 16.6212 105.939 16.2994 106.257 15.7816C106.599 15.2274 106.707 14.7044 106.584 14.2125C106.47 13.7263 106.056 13.26 105.341 12.8136L103.509 11.6695L101.387 15.1169Z" fill="white"/>
<path d="M107.19 26.0363L114.766 17.7871L115.936 18.878L109.216 26.1962L112.961 29.687L112.106 30.6179L107.19 26.0363Z" fill="white"/>
<path d="M117.351 37.2371C116.748 36.3441 116.415 35.4216 116.352 34.4695C116.303 33.5203 116.504 32.6071 116.954 31.7298C117.419 30.8554 118.127 30.0926 119.077 29.4417C120.019 28.7967 120.974 28.4202 121.944 28.3122C122.928 28.2069 123.849 28.3517 124.707 28.7464C125.572 29.1499 126.305 29.7981 126.908 30.6911C127.522 31.6018 127.857 32.5362 127.912 33.4943C127.966 34.4523 127.758 35.3642 127.287 36.2298C126.831 37.0982 126.132 37.8549 125.19 38.4998C124.24 39.1508 123.276 39.5333 122.297 39.6474C121.334 39.7643 120.42 39.621 119.556 39.2174C118.7 38.8079 117.965 38.1478 117.351 37.2371ZM118.534 36.4457C118.964 37.0823 119.485 37.5398 120.098 37.8183C120.71 38.0969 121.372 38.1805 122.082 38.0692C122.797 37.9668 123.529 37.6594 124.277 37.1471C125.025 36.6347 125.578 36.0621 125.936 35.4292C126.3 34.8051 126.462 34.1579 126.421 33.4875C126.389 32.8112 126.158 32.1547 125.729 31.5181C125.299 30.8815 124.778 30.424 124.165 30.1454C123.562 29.8609 122.902 29.7698 122.186 29.8723C121.47 29.9747 120.738 30.2821 119.99 30.7944C119.242 31.3068 118.689 31.8794 118.331 32.5123C117.974 33.1453 117.811 33.7999 117.842 34.4762C117.874 35.1526 118.105 35.8091 118.534 36.4457Z" fill="white"/>
<path d="M123.186 46.4912L133.692 42.6085L134.989 46.1715C135.292 47.0034 135.4 47.7368 135.314 48.3715C135.227 49.0062 134.994 49.5358 134.615 49.9602C134.25 50.3909 133.772 50.7153 133.182 50.9335C132.621 51.1405 132.054 51.2025 131.479 51.1194C130.917 51.0427 130.393 50.7873 129.905 50.3533C129.428 49.9156 129.036 49.2758 128.73 48.4339L127.996 46.4193L123.734 47.9946L123.186 46.4912ZM125.201 52.0238L129.042 48.0286L129.644 49.6823L125.836 53.7677L125.201 52.0238ZM129.137 45.9978L129.848 47.9522C130.118 48.6939 130.498 49.1736 130.985 49.3913C131.483 49.6052 132.018 49.6068 132.588 49.396C133.168 49.1816 133.566 48.8411 133.782 48.3746C133.998 47.9081 133.968 47.294 133.69 46.5322L132.979 44.5778L129.137 45.9978Z" fill="white"/>
<path d="M127.172 58.3476L138.26 56.7646L139.244 63.7677L137.946 63.9531L137.184 58.5344L133.636 59.041L134.331 63.9843L133.064 64.1653L132.368 59.2219L128.694 59.7466L129.456 65.1653L128.157 65.3507L127.172 58.3476Z" fill="white"/>
<path d="M127.387 84.6284L137.822 88.6959L137.145 90.4584L128.734 91.2498L134.432 97.5232L133.749 99.3006L123.314 95.2331L123.887 93.7395L131.714 96.7901L126.593 91.0678L127.035 89.9177L134.625 89.1668L126.813 86.122L127.387 84.6284Z" fill="white"/>
<path d="M116.846 105.724C117.509 104.875 118.282 104.276 119.164 103.927C120.048 103.593 120.972 103.51 121.938 103.677C122.906 103.86 123.841 104.309 124.744 105.025C125.638 105.734 126.282 106.538 126.676 107.436C127.072 108.35 127.213 109.278 127.098 110.222C126.977 111.174 126.584 112.074 125.921 112.923C125.244 113.789 124.461 114.392 123.571 114.735C122.68 115.077 121.755 115.152 120.793 114.962C119.834 114.786 118.907 114.344 118.013 113.634C117.111 112.918 116.458 112.108 116.055 111.203C115.654 110.313 115.515 109.392 115.636 108.44C115.766 107.495 116.169 106.589 116.846 105.724ZM117.952 106.621C117.479 107.226 117.203 107.865 117.124 108.538C117.045 109.21 117.165 109.87 117.484 110.519C117.797 111.175 118.308 111.785 119.018 112.349C119.729 112.912 120.437 113.27 121.144 113.422C121.844 113.583 122.505 113.542 123.128 113.301C123.758 113.066 124.31 112.646 124.783 112.041C125.256 111.436 125.532 110.797 125.611 110.124C125.698 109.458 125.586 108.797 125.273 108.141C124.96 107.484 124.449 106.874 123.738 106.311C123.028 105.747 122.32 105.389 121.613 105.237C120.906 105.085 120.237 105.126 119.607 105.361C118.976 105.596 118.425 106.016 117.952 106.621Z" fill="white"/>
<path d="M109.82 114.088L116.65 122.964L113.661 125.298C112.963 125.843 112.3 126.171 111.673 126.282C111.045 126.393 110.473 126.332 109.957 126.099C109.439 125.881 108.989 125.522 108.605 125.024C108.241 124.55 108.012 124.025 107.918 123.449C107.822 122.887 107.907 122.307 108.173 121.707C108.444 121.116 108.933 120.545 109.64 119.993L111.33 118.674L108.558 115.073L109.82 114.088ZM105.179 117.712L110.118 120.168L108.73 121.251L103.716 118.854L105.179 117.712ZM112.071 119.638L110.432 120.918C109.81 121.403 109.468 121.913 109.408 122.447C109.355 122.99 109.513 123.502 109.884 123.984C110.261 124.474 110.704 124.752 111.211 124.816C111.718 124.88 112.291 124.663 112.93 124.164L114.569 122.884L112.071 119.638Z" fill="white"/>
<path d="M99.8015 121.484L104.651 131.58L98.2942 134.679L97.7261 133.496L102.645 131.098L101.093 127.868L96.6057 130.055L96.0514 128.901L100.539 126.714L98.9313 123.368L94.0126 125.766L93.4445 124.583L99.8015 121.484Z" fill="white"/>
<path d="M79.3735 128.421C79.6799 128.378 79.9465 128.438 80.1736 128.6C80.3915 128.774 80.5195 128.998 80.5575 129.273C80.597 129.558 80.5349 129.809 80.3711 130.026C80.1982 130.255 79.9586 130.391 79.6523 130.434C79.3459 130.477 79.0838 130.412 78.8659 130.237C78.6494 130.074 78.5214 129.85 78.4819 129.564C78.4439 129.29 78.506 129.039 78.6684 128.811C78.8321 128.594 79.0672 128.464 79.3735 128.421Z" fill="white"/>
<path d="M65.2495 128.989L63.3334 140.024L56.3688 138.796L56.5932 137.504L61.9822 138.453L62.5953 134.922L57.6791 134.056L57.898 132.795L62.8143 133.661L63.4493 130.004L58.0603 129.054L58.2848 127.762L65.2495 128.989Z" fill="white"/>
<path d="M54.6351 126.984L49.3369 130.953L50.5101 137.397L48.8188 136.714L47.9291 131.765L44.0268 134.779L42.3651 134.108L47.6248 130.192L46.4604 123.683L48.1517 124.366L49.0474 129.386L52.9586 126.307L54.6351 126.984Z" fill="white"/>
<path d="M41.9658 121.386L35.6078 130.607L32.4748 128.414C31.7407 127.9 31.2225 127.356 30.9201 126.779C30.6178 126.203 30.4953 125.629 30.5526 125.058C30.61 124.486 30.8203 123.937 31.1837 123.41C31.5288 122.909 31.9603 122.528 32.4782 122.265C32.9813 122.005 33.5566 121.913 34.2041 121.989C34.8455 122.073 35.5377 122.375 36.2805 122.895L38.1027 124.17L40.6549 120.469L41.9658 121.386ZM37.3488 125.264L35.5791 124.025C34.8887 123.542 34.2964 123.349 33.8021 123.445C33.293 123.545 32.8659 123.845 32.5208 124.345C32.1514 124.881 32.0154 125.398 32.1127 125.895C32.2013 126.387 32.5907 126.874 33.2811 127.358L35.0508 128.596L37.3488 125.264Z" fill="white"/>
<path d="M32.0765 114.011L23.9438 121.712L22.8523 120.542L30.0671 113.71L26.5743 109.967L27.4921 109.098L32.0765 114.011Z" fill="white"/>
<path d="M22.6998 102.228C23.2549 103.151 23.5391 104.09 23.5525 105.044C23.5514 105.994 23.3029 106.895 22.8071 107.747C22.2968 108.596 21.5499 109.32 20.5665 109.92C19.5921 110.515 18.618 110.84 17.6441 110.897C16.6556 110.95 15.7431 110.758 14.9065 110.318C14.0644 109.87 13.3659 109.184 12.8108 108.261C12.2447 107.319 11.9595 106.369 11.9552 105.409C11.9508 104.45 12.2066 103.55 12.7224 102.711C13.2237 101.868 13.9615 101.149 14.9358 100.555C15.9193 99.9546 16.9025 99.6234 17.8855 99.5609C18.8539 99.4949 19.7591 99.6861 20.6012 100.134C21.4341 100.588 22.1337 101.286 22.6998 102.228ZM21.4759 102.956C21.0802 102.297 20.5837 101.813 19.9864 101.503C19.3891 101.193 18.7331 101.074 18.0182 101.148C17.2979 101.213 16.5507 101.481 15.7767 101.953C15.0027 102.425 14.4204 102.968 14.0298 103.581C13.6338 104.185 13.4384 104.823 13.4438 105.494C13.4401 106.171 13.6361 106.839 14.0318 107.497C14.4275 108.155 14.924 108.64 15.5213 108.95C16.1095 109.266 16.7637 109.391 17.4841 109.327C18.2044 109.262 18.9516 108.994 19.7256 108.522C20.4996 108.049 21.0819 107.507 21.4724 106.894C21.863 106.28 22.0602 105.635 22.0639 104.958C22.0676 104.281 21.8716 103.614 21.4759 102.956Z" fill="white"/>
<path d="M17.4609 92.6739L6.76417 95.9936L5.65493 92.3675C5.39595 91.5209 5.3264 90.783 5.44627 90.1539C5.56614 89.5247 5.82648 89.0084 6.22728 88.6048C6.61477 88.1941 7.10904 87.8955 7.71009 87.709C8.28058 87.5319 8.85089 87.5001 9.42101 87.6136C9.97782 87.72 10.4882 88.0027 10.9521 88.4619C11.4058 88.9241 11.7638 89.5837 12.0259 90.4405L12.653 92.4907L16.9928 91.1438L17.4609 92.6739ZM15.7385 87.0434L11.6928 90.8286L11.178 89.1456L15.1956 85.2686L15.7385 87.0434ZM11.4917 92.8511L10.8832 90.8621C10.6523 90.1073 10.2989 89.6083 9.82295 89.3651C9.33682 89.1251 8.80341 89.0952 8.22273 89.2754C7.63186 89.4588 7.21629 89.7776 6.97601 90.2319C6.73573 90.6862 6.73415 91.301 6.97129 92.0762L7.57974 94.0652L11.4917 92.8511Z" fill="white"/>
<path d="M14.1714 80.5887L3.01531 81.5793L2.3986 74.5343L3.70546 74.4182L4.18264 79.8694L7.7526 79.5524L7.31727 74.5794L8.59226 74.4662L9.02758 79.4392L12.725 79.1109L12.2479 73.6597L13.5547 73.5437L14.1714 80.5887Z" fill="white"/>
<path d="M15.3962 54.2181L5.27311 49.426L6.07138 47.7151L14.515 47.5168L9.27122 40.8568L10.0763 39.1314L20.1993 43.9234L19.5228 45.3734L11.9305 41.7794L16.6376 47.8489L16.1167 48.9654L8.49484 49.1809L16.0727 52.7681L15.3962 54.2181Z" fill="white"/>
<path d="M27.2392 33.8464C26.5181 34.6468 25.7055 35.1902 24.8015 35.4765C23.8968 35.7478 22.9685 35.7662 22.0167 35.5319C21.0641 35.2825 20.1628 34.7691 19.3125 33.9918C18.4702 33.2217 17.8837 32.3748 17.553 31.451C17.2216 30.5121 17.1461 29.576 17.3266 28.6426C17.5142 27.7014 17.9686 26.8305 18.6897 26.0301C19.4251 25.2138 20.2487 24.6661 21.1606 24.387C22.0724 24.1078 23.0011 24.0969 23.9465 24.3543C24.8912 24.5965 25.7847 25.1027 26.627 25.8728C27.4773 26.6501 28.0717 27.5042 28.4102 28.4352C28.748 29.351 28.8231 30.2796 28.6355 31.2209C28.44 32.155 27.9746 33.0301 27.2392 33.8464ZM26.1989 32.8737C26.713 32.3031 27.0329 31.6851 27.1586 31.0196C27.2844 30.3541 27.2106 29.687 26.9375 29.0181C26.6714 28.3413 26.2038 27.6971 25.5347 27.0853C24.8655 26.4735 24.1837 26.067 23.4893 25.8657C22.8021 25.6565 22.1397 25.6507 21.5022 25.8483C20.8569 26.0387 20.2772 26.4192 19.7632 26.9898C19.2491 27.5604 18.9292 28.1785 18.8035 28.8439C18.6699 29.5022 18.7361 30.1697 19.0021 30.8465C19.2681 31.5233 19.7357 32.1675 20.4049 32.7793C21.074 33.3911 21.7558 33.7976 22.4502 33.9989C23.1446 34.2002 23.8145 34.2056 24.4598 34.0152C25.1052 33.8248 25.6849 33.4443 26.1989 32.8737Z" fill="white"/>
<path d="M34.7201 25.8858L28.523 16.5564L31.6673 14.4368C32.4014 13.942 33.0855 13.6609 33.7195 13.5937C34.3535 13.5265 34.9198 13.6271 35.4183 13.8957C35.9198 14.1494 36.3446 14.5383 36.6928 15.0625C37.0233 15.5601 37.2153 16.0996 37.2686 16.6811C37.3249 17.2478 37.1998 17.8209 36.8933 18.4006C36.581 18.9713 36.0533 19.5071 35.3103 20.0079L33.5326 21.2064L36.0468 24.9914L34.7201 25.8858ZM39.6024 22.5946L34.8458 19.8001L36.3051 18.8164L41.1413 21.5571L39.6024 22.5946ZM32.8597 20.1935L34.5845 19.0308C35.239 18.5896 35.6148 18.1047 35.7119 17.5762C35.803 17.0388 35.6804 16.5168 35.344 16.0104C35.0017 15.495 34.5799 15.1877 34.0785 15.0883C33.5771 14.9889 32.9903 15.1658 32.3181 15.619L30.5934 16.7816L32.8597 20.1935Z" fill="white"/>
<path d="M45.197 19.1155L41.057 8.70881L47.6146 6.06086L48.0995 7.27994L43.0256 9.3288L44.3504 12.659L48.9793 10.7898L49.4524 11.9792L44.8235 13.8483L46.1957 17.2974L51.2696 15.2485L51.7546 16.4676L45.197 19.1155Z" fill="white"/>
<path d="M63.2034 13.4802C62.8949 13.5018 62.6329 13.4238 62.4175 13.2464C62.2121 13.0576 62.0999 12.8249 62.0808 12.5482C62.0611 12.2609 62.1404 12.0148 62.3187 11.8098C62.507 11.5935 62.7554 11.4746 63.064 11.453C63.3726 11.4314 63.6296 11.515 63.835 11.7039C64.0397 11.882 64.152 12.1148 64.1717 12.4021C64.1908 12.6788 64.1115 12.9249 63.9338 13.1405C63.7555 13.3454 63.512 13.4586 63.2034 13.4802Z" fill="white"/>
<rect x="36.0117" y="36" width="70" height="70" rx="35" fill="white" fill-opacity="0.1"/>
<rect x="51.0195" y="51" width="40" height="40" rx="20" fill="#B4E717"/>
<path d="M76.7221 65.1667H65.6451C65.3904 65.1667 65.1836 65.3735 65.1836 65.6283C65.1836 65.8831 65.3904 66.0898 65.6451 66.0898H75.6077L65.3188 76.3789C65.1386 76.5591 65.1386 76.8513 65.3188 77.0315C65.4091 77.1217 65.527 77.1667 65.6451 77.1667C65.7633 77.1667 65.8814 77.1217 65.9714 77.0315L76.2605 66.7424V76.7052C76.2605 76.96 76.4673 77.1667 76.7221 77.1667C76.9768 77.1667 77.1836 76.96 77.1836 76.7052V65.6283C77.1836 65.3735 76.9768 65.1667 76.7221 65.1667Z" fill="#051229"/>
</svg>
