<svg width="349" height="215" viewBox="0 0 349 215" fill="none" xmlns="http://www.w3.org/2000/svg">
<path d="M0 24.3206C0 11.0658 10.7452 0.32059 24 0.32059H87.25H120.964C130.925 0.32059 139 8.39574 139 18.357C139 28.3182 147.075 36.3933 157.036 36.3933H179H192.803C202.853 36.3933 211 28.2464 211 18.1967C211 8.07678 219.257 -0.0989079 229.376 0.000992432L261.75 0.32059H325C338.255 0.32059 349 11.0658 349 24.3206V190.82C349 204.074 338.255 214.82 325 214.82H24C10.7452 214.82 0 204.074 0 190.82V24.3206Z" fill="#3D3F7F"/>
</svg>
