<svg width="139" height="118" viewBox="0 0 139 118" fill="none" xmlns="http://www.w3.org/2000/svg">
<path d="M65.4251 1.55555C67.4866 -0.518379 70.827 -0.518656 72.8883 1.55555L109.707 38.6259C103.905 55.5558 87.9519 67.7237 69.1596 67.7237C50.3646 67.7234 34.4089 55.5511 28.6094 38.6173L14.4945 52.8253C24.691 72.7622 45.3419 86.4009 69.1596 86.4012C92.9683 86.4012 113.615 72.7661 123.819 52.8339L136.754 65.857C138.815 67.9322 138.815 71.2941 136.754 73.3695L94.0148 116.393C92.149 118.277 89.1149 118.277 87.2433 116.393L72.5369 101.59C70.6711 99.7066 67.6367 99.7068 65.7651 101.59L51.0589 116.393C49.1928 118.277 46.1588 118.278 44.2871 116.393L1.54544 73.3695C-0.515218 71.2944 -0.515075 67.9322 1.54544 65.857L65.4251 1.55555Z" fill="#F8F8FE"/>
</svg>
