<svg width="169" height="42" viewBox="0 0 169 42" fill="none" xmlns="http://www.w3.org/2000/svg">
<path d="M22.8488 1.40116C23.5688 0.676875 24.7354 0.676778 25.4552 1.40116L38.3136 14.3474C36.2875 20.2599 30.716 24.5093 24.153 24.5093C17.5892 24.5092 12.0168 20.2582 9.99143 14.3444L5.06201 19.3063C8.62299 26.269 15.835 31.0321 24.153 31.0322C32.4679 31.0322 39.6786 26.2703 43.242 19.3093L47.7593 23.8574C48.4794 24.5821 48.4794 25.7562 47.7593 26.4811L32.8334 41.5065C32.1818 42.1643 31.1222 42.1642 30.4685 41.5065L25.3325 36.3366C24.6809 35.6788 23.6212 35.6789 22.9675 36.3366L17.8316 41.5065C17.1799 42.1643 16.1203 42.1644 15.4667 41.5065L0.539723 26.4811C-0.179933 25.7563 -0.179883 24.5821 0.539723 23.8574L22.8488 1.40116Z" fill="#8173E0"/>
<path d="M28.6007 41.9986L24.786 38.1587C24.4426 37.813 23.8846 37.813 23.5412 38.1587L19.7266 41.9986H28.6007Z" fill="#8173E0"/>
<g clip-path="url(#clip0_32154_607)">
<path d="M31.3555 15.2754C29.6325 17.2865 27.1077 18.5322 24.335 18.5322C21.5612 18.5321 19.0356 17.2851 17.3125 15.2725L24.333 8.16016L31.3555 15.2754Z" stroke="#041427" stroke-width="12.5998"/>
</g>
<path d="M62.4997 33.5H57.7748L66.3775 9.06396H71.8422L80.4569 33.5H75.7319L69.2053 14.0753H69.0144L62.4997 33.5ZM62.6548 23.9189H75.541V27.4745H62.6548V23.9189ZM84.9163 15.173L88.6152 21.9382L92.3736 15.173H96.9435L91.4191 24.3365L97.0389 33.5H92.4929L88.6152 26.9018L84.7732 33.5H80.1914L85.7754 24.3365L80.3346 15.173H84.9163ZM98.1844 33.5V15.173H102.504V33.5H98.1844ZM100.356 12.5719C99.6718 12.5719 99.0832 12.3452 98.59 11.8918C98.0969 11.4304 97.8503 10.8776 97.8503 10.2333C97.8503 9.58099 98.0969 9.02816 98.59 8.57476C99.0832 8.1134 99.6718 7.88272 100.356 7.88272C101.048 7.88272 101.637 8.1134 102.122 8.57476C102.615 9.02816 102.862 9.58099 102.862 10.2333C102.862 10.8776 102.615 11.4304 102.122 11.8918C101.637 12.3452 101.048 12.5719 100.356 12.5719ZM119.33 20.0172L115.393 20.4468C115.281 20.049 115.087 19.6752 114.808 19.3252C114.538 18.9752 114.172 18.6928 113.71 18.478C113.249 18.2633 112.684 18.1559 112.016 18.1559C111.117 18.1559 110.362 18.3508 109.749 18.7405C109.145 19.1303 108.846 19.6354 108.854 20.2559C108.846 20.7888 109.041 21.2223 109.439 21.5564C109.845 21.8905 110.513 22.1649 111.443 22.3797L114.57 23.0479C116.304 23.4217 117.592 24.0143 118.435 24.8257C119.286 25.637 119.716 26.699 119.724 28.0114C119.716 29.1648 119.378 30.183 118.71 31.0659C118.05 31.9409 117.131 32.625 115.954 33.1182C114.776 33.6114 113.424 33.8579 111.897 33.8579C109.654 33.8579 107.848 33.3886 106.48 32.45C105.112 31.5034 104.296 30.187 104.034 28.5006L108.246 28.095C108.437 28.9222 108.842 29.5466 109.463 29.9682C110.083 30.3898 110.891 30.6006 111.885 30.6006C112.911 30.6006 113.734 30.3898 114.355 29.9682C114.983 29.5466 115.297 29.0256 115.297 28.4052C115.297 27.8802 115.094 27.4467 114.689 27.1046C114.291 26.7626 113.671 26.5001 112.827 26.3171L109.701 25.6609C107.943 25.295 106.643 24.6785 105.8 23.8115C104.957 22.9365 104.539 21.8308 104.547 20.4945C104.539 19.365 104.845 18.3866 105.466 17.5593C106.094 16.7241 106.965 16.0798 108.079 15.6264C109.2 15.165 110.493 14.9343 111.956 14.9343C114.104 14.9343 115.794 15.3917 117.027 16.3065C118.268 17.2212 119.036 18.4582 119.33 20.0172ZM129.18 33.8579C127.39 33.8579 125.839 33.4642 124.526 32.6767C123.214 31.8892 122.196 30.7875 121.472 29.3716C120.756 27.9558 120.398 26.3012 120.398 24.4081C120.398 22.5149 120.756 20.8564 121.472 19.4326C122.196 18.0087 123.214 16.9031 124.526 16.1156C125.839 15.3281 127.39 14.9343 129.18 14.9343C130.97 14.9343 132.521 15.3281 133.833 16.1156C135.146 16.9031 136.16 18.0087 136.876 19.4326C137.6 20.8564 137.962 22.5149 137.962 24.4081C137.962 26.3012 137.6 27.9558 136.876 29.3716C136.16 30.7875 135.146 31.8892 133.833 32.6767C132.521 33.4642 130.97 33.8579 129.18 33.8579ZM129.204 30.3978C130.174 30.3978 130.985 30.1313 131.638 29.5983C132.29 29.0574 132.775 28.3336 133.093 27.4268C133.42 26.52 133.583 25.5098 133.583 24.3961C133.583 23.2746 133.42 22.2604 133.093 21.3536C132.775 20.4388 132.29 19.711 131.638 19.1701C130.985 18.6292 130.174 18.3587 129.204 18.3587C128.209 18.3587 127.382 18.6292 126.722 19.1701C126.07 19.711 125.58 20.4388 125.254 21.3536C124.936 22.2604 124.777 23.2746 124.777 24.3961C124.777 25.5098 124.936 26.52 125.254 27.4268C125.58 28.3336 126.07 29.0574 126.722 29.5983C127.382 30.1313 128.209 30.3978 129.204 30.3978ZM139.528 33.5V15.173H143.716V18.2275H143.906C144.241 17.1695 144.813 16.3542 145.625 15.7815C146.444 15.2008 147.379 14.9105 148.429 14.9105C148.667 14.9105 148.934 14.9224 149.228 14.9463C149.53 14.9622 149.781 14.99 149.98 15.0298V19.003C149.797 18.9394 149.506 18.8837 149.109 18.836C148.719 18.7803 148.341 18.7525 147.975 18.7525C147.188 18.7525 146.48 18.9235 145.851 19.2655C145.231 19.5996 144.742 20.0649 144.384 20.6615C144.026 21.2581 143.847 21.9462 143.847 22.7257V33.5H139.528ZM153.992 40.3726C153.403 40.3726 152.858 40.3249 152.357 40.2295C151.864 40.142 151.47 40.0386 151.176 39.9192L152.178 36.5545C152.807 36.7375 153.367 36.825 153.86 36.817C154.354 36.809 154.787 36.6539 155.161 36.3517C155.543 36.0574 155.865 35.5642 156.127 34.8721L156.497 33.8818L149.851 15.173H154.433L158.657 29.0137H158.848L163.084 15.173H167.677L160.339 35.7193C159.997 36.6897 159.544 37.521 158.979 38.213C158.414 38.913 157.722 39.4459 156.903 39.8118C156.092 40.1857 155.121 40.3726 153.992 40.3726Z" fill="#041427"/>
<defs>
<clipPath id="clip0_32154_607">
<rect width="31.0496" height="25.7138" fill="white" transform="translate(8.62109)"/>
</clipPath>
</defs>
</svg>
