<svg width="169" height="42" viewBox="0 0 169 42" fill="none" xmlns="http://www.w3.org/2000/svg">
<path d="M22.8488 1.40116C23.5688 0.676875 24.7354 0.676778 25.4552 1.40116L38.3136 14.3474C36.2875 20.2599 30.716 24.5093 24.153 24.5093C17.5892 24.5092 12.0168 20.2582 9.99143 14.3444L5.06201 19.3063C8.62299 26.269 15.835 31.0321 24.153 31.0322C32.4679 31.0322 39.6786 26.2703 43.242 19.3093L47.7593 23.8574C48.4794 24.5821 48.4794 25.7562 47.7593 26.4811L32.8334 41.5065C32.1818 42.1643 31.1222 42.1642 30.4685 41.5065L25.3325 36.3366C24.6809 35.6788 23.6212 35.6789 22.9675 36.3366L17.8316 41.5065C17.1799 42.1643 16.1203 42.1644 15.4667 41.5065L0.539723 26.4811C-0.179933 25.7563 -0.179883 24.5821 0.539723 23.8574L22.8488 1.40116Z" fill="#1D1EE3"/>
<path d="M28.6007 41.9986L24.786 38.1587C24.4426 37.813 23.8846 37.813 23.5412 38.1587L19.7266 41.9986H28.6007Z" fill="#1D1EE3"/>
<g clip-path="url(#clip0_32006_1271)">
<path d="M31.3555 15.2754C29.6325 17.2865 27.1077 18.5322 24.335 18.5322C21.5612 18.5321 19.0356 17.2851 17.3125 15.2725L24.333 8.16016L31.3555 15.2754Z" stroke="#051229" stroke-width="12.5998"/>
</g>
<path d="M62.4997 33.4995H57.7748L66.3775 9.06347H71.8422L80.4569 33.4995H75.7319L69.2053 14.0748H69.0144L62.4997 33.4995ZM62.6548 23.9184H75.541V27.474H62.6548V23.9184ZM84.9163 15.1725L88.6152 21.9377L92.3736 15.1725H96.9435L91.4191 24.336L97.0389 33.4995H92.4929L88.6152 26.9013L84.7732 33.4995H80.1914L85.7754 24.336L80.3346 15.1725H84.9163ZM98.1844 33.4995V15.1725H102.504V33.4995H98.1844ZM100.356 12.5714C99.6718 12.5714 99.0832 12.3447 98.59 11.8913C98.0969 11.4299 97.8503 10.8771 97.8503 10.2328C97.8503 9.58051 98.0969 9.02767 98.59 8.57427C99.0832 8.11291 99.6718 7.88223 100.356 7.88223C101.048 7.88223 101.637 8.11291 102.122 8.57427C102.615 9.02767 102.862 9.58051 102.862 10.2328C102.862 10.8771 102.615 11.4299 102.122 11.8913C101.637 12.3447 101.048 12.5714 100.356 12.5714ZM119.33 20.0167L115.393 20.4463C115.281 20.0486 115.087 19.6747 114.808 19.3247C114.538 18.9747 114.172 18.6923 113.71 18.4775C113.249 18.2628 112.684 18.1554 112.016 18.1554C111.117 18.1554 110.362 18.3503 109.749 18.74C109.145 19.1298 108.846 19.6349 108.854 20.2554C108.846 20.7883 109.041 21.2218 109.439 21.5559C109.845 21.89 110.513 22.1644 111.443 22.3792L114.57 23.0474C116.304 23.4212 117.592 24.0138 118.435 24.8252C119.286 25.6365 119.716 26.6985 119.724 28.0109C119.716 29.1643 119.378 30.1825 118.71 31.0655C118.05 31.9404 117.131 32.6245 115.954 33.1177C114.776 33.6109 113.424 33.8575 111.897 33.8575C109.654 33.8575 107.848 33.3881 106.48 32.4495C105.112 31.5029 104.296 30.1865 104.034 28.5001L108.246 28.0945C108.437 28.9217 108.842 29.5462 109.463 29.9677C110.083 30.3893 110.891 30.6001 111.885 30.6001C112.911 30.6001 113.734 30.3893 114.355 29.9677C114.983 29.5462 115.297 29.0251 115.297 28.4047C115.297 27.8797 115.094 27.4462 114.689 27.1041C114.291 26.7621 113.671 26.4996 112.827 26.3167L109.701 25.6604C107.943 25.2945 106.643 24.678 105.8 23.811C104.957 22.936 104.539 21.8303 104.547 20.494C104.539 19.3645 104.845 18.3861 105.466 17.5588C106.094 16.7236 106.965 16.0793 108.079 15.6259C109.2 15.1645 110.493 14.9338 111.956 14.9338C114.104 14.9338 115.794 15.3912 117.027 16.306C118.268 17.2207 119.036 18.4577 119.33 20.0167ZM129.18 33.8575C127.39 33.8575 125.839 33.4637 124.526 32.6762C123.214 31.8887 122.196 30.787 121.472 29.3712C120.756 27.9553 120.398 26.3007 120.398 24.4076C120.398 22.5144 120.756 20.8559 121.472 19.4321C122.196 18.0082 123.214 16.9026 124.526 16.1151C125.839 15.3276 127.39 14.9338 129.18 14.9338C130.97 14.9338 132.521 15.3276 133.833 16.1151C135.146 16.9026 136.16 18.0082 136.876 19.4321C137.6 20.8559 137.962 22.5144 137.962 24.4076C137.962 26.3007 137.6 27.9553 136.876 29.3712C136.16 30.787 135.146 31.8887 133.833 32.6762C132.521 33.4637 130.97 33.8575 129.18 33.8575ZM129.204 30.3973C130.174 30.3973 130.985 30.1308 131.638 29.5979C132.29 29.057 132.775 28.3331 133.093 27.4263C133.42 26.5195 133.583 25.5093 133.583 24.3957C133.583 23.2741 133.42 22.2599 133.093 21.3531C132.775 20.4383 132.29 19.7105 131.638 19.1696C130.985 18.6287 130.174 18.3582 129.204 18.3582C128.209 18.3582 127.382 18.6287 126.722 19.1696C126.07 19.7105 125.58 20.4383 125.254 21.3531C124.936 22.2599 124.777 23.2741 124.777 24.3957C124.777 25.5093 124.936 26.5195 125.254 27.4263C125.58 28.3331 126.07 29.057 126.722 29.5979C127.382 30.1308 128.209 30.3973 129.204 30.3973ZM139.528 33.4995V15.1725H143.716V18.227H143.906C144.241 17.169 144.813 16.3537 145.625 15.781C146.444 15.2003 147.379 14.91 148.429 14.91C148.667 14.91 148.934 14.9219 149.228 14.9458C149.53 14.9617 149.781 14.9895 149.98 15.0293V19.0025C149.797 18.9389 149.506 18.8832 149.109 18.8355C148.719 18.7798 148.341 18.752 147.975 18.752C147.188 18.752 146.48 18.923 145.851 19.265C145.231 19.5991 144.742 20.0645 144.384 20.661C144.026 21.2576 143.847 21.9457 143.847 22.7252V33.4995H139.528ZM153.992 40.3721C153.403 40.3721 152.858 40.3244 152.357 40.229C151.864 40.1415 151.47 40.0381 151.176 39.9187L152.178 36.554C152.807 36.737 153.367 36.8245 153.86 36.8165C154.354 36.8086 154.787 36.6534 155.161 36.3512C155.543 36.0569 155.865 35.5637 156.127 34.8717L156.497 33.8813L149.851 15.1725H154.433L158.657 29.0132H158.848L163.084 15.1725H167.677L160.339 35.7188C159.997 36.6892 159.544 37.5205 158.979 38.2125C158.414 38.9125 157.722 39.4455 156.903 39.8114C156.092 40.1852 155.121 40.3721 153.992 40.3721Z" fill="#051229"/>
<defs>
<clipPath id="clip0_32006_1271">
<rect width="31.0496" height="25.7138" fill="white" transform="translate(8.62109)"/>
</clipPath>
</defs>
</svg>
