<svg width="41" height="36" viewBox="0 0 41 36" fill="none" xmlns="http://www.w3.org/2000/svg">
<path d="M19.3957 1.20172C20.0069 0.580914 20.9972 0.580831 21.6082 1.20172L32.5234 12.2983C30.8035 17.366 26.074 21.0083 20.5028 21.0083C14.9309 21.0082 10.2008 17.3646 8.48145 12.2957L4.297 16.5487C7.31982 22.5165 13.4419 26.5991 20.5028 26.5992C27.5611 26.5992 33.682 22.5177 36.707 16.5512L40.5416 20.4496C41.1528 21.0707 41.1528 22.0771 40.5416 22.6983L27.8714 35.577C27.3182 36.1409 26.4187 36.1408 25.8639 35.577L21.5041 31.1458C20.9509 30.582 20.0514 30.5821 19.4965 31.1458L15.1368 35.577C14.5836 36.1409 13.6841 36.141 13.1292 35.577L0.458156 22.6983C-0.15274 22.0772 -0.152697 21.0707 0.458156 20.4496L19.3957 1.20172Z" fill="#3D3F7F"/>
<path d="M24.2909 35.9974L21.0527 32.7061C20.7611 32.4098 20.2875 32.4098 19.9959 32.7061L16.7578 35.9974H24.2909Z" fill="#3D3F7F"/>
<g clip-path="url(#clip0_32155_2701)">
<path d="M25.0596 13.1025C23.7889 14.2813 22.109 14.9844 20.2969 14.9844L20.0127 14.9785C18.3087 14.9091 16.7365 14.2186 15.5322 13.1006L20.2959 8.27539L25.0596 13.1025Z" stroke="#3D3F7F" stroke-width="12.5998"/>
</g>
<defs>
<clipPath id="clip0_32155_2701">
<rect width="26.3572" height="22.0399" fill="white" transform="translate(7.29688)"/>
</clipPath>
</defs>
</svg>
