<svg width="449" height="44" viewBox="0 0 449 44" fill="none" xmlns="http://www.w3.org/2000/svg">
<path d="M23.6533 1.46852C24.3986 0.709762 25.6063 0.709661 26.3515 1.46852L39.6627 15.0309C37.5652 21.2248 31.7975 25.6765 25.0035 25.6765C18.2085 25.6764 12.44 21.2231 10.3432 15.0278L5.24025 20.2259C8.92661 27.5199 16.3926 32.5097 25.0035 32.5098C33.6111 32.5098 41.0757 27.5213 44.7646 20.229L49.4409 24.9936C50.1864 25.7528 50.1864 26.9828 49.4409 27.7421L33.9895 43.4827C33.3149 44.1719 32.218 44.1718 31.5413 43.4827L26.2245 38.0667C25.5499 37.3777 24.4529 37.3778 23.7762 38.0667L18.4595 43.4827C17.7848 44.1719 16.6879 44.172 16.0112 43.4827L0.558727 27.7421C-0.186268 26.9829 -0.186216 25.7528 0.558727 24.9936L23.6533 1.46852Z" fill="black"/>
<path d="M29.5968 43.9979L25.6478 39.9752C25.2923 39.6131 24.7146 39.6131 24.3591 39.9752L20.4102 43.9979H29.5968Z" fill="black"/>
<g clip-path="url(#clip0_32155_3210)">
<path d="M31.4775 16.2686C29.9462 17.6319 27.9553 18.4404 25.8125 18.4404C23.6688 18.4403 21.6771 17.6312 20.1455 16.2666L25.8105 10.5273L31.4775 16.2686Z" stroke="white" stroke-width="16"/>
</g>
<path d="M61.648 34L70.612 7.72H78.964L88.18 34H82.924L75.112 11.212L76.948 12.004H72.448L74.32 11.212L66.76 34H61.648ZM67.912 27.016L69.532 22.696H80.188L81.772 27.016H67.912ZM88.0272 34L94.3992 23.56L94.2912 24.388L88.2792 14.452H93.7152L97.6392 21.328H98.1792L101.887 14.452H106.999L101.311 24.352L101.419 23.632L108.151 34H102.715L98.0712 26.62H97.5312L93.1392 34H88.0272ZM110.896 34V14.452H115.9V34H110.896ZM108.16 18.196V14.452H115.9V18.196H108.16ZM112.732 12.112C111.748 12.112 111.016 11.86 110.536 11.356C110.08 10.828 109.852 10.18 109.852 9.412C109.852 8.596 110.08 7.936 110.536 7.432C111.016 6.928 111.748 6.676 112.732 6.676C113.716 6.676 114.436 6.928 114.892 7.432C115.348 7.936 115.576 8.596 115.576 9.412C115.576 10.18 115.348 10.828 114.892 11.356C114.436 11.86 113.716 12.112 112.732 12.112ZM127.33 34.612C124.642 34.612 122.53 34.048 120.994 32.92C119.482 31.768 118.69 30.184 118.618 28.168H123.118C123.19 28.84 123.562 29.452 124.234 30.004C124.906 30.556 125.962 30.832 127.402 30.832C128.602 30.832 129.55 30.616 130.246 30.184C130.966 29.752 131.326 29.164 131.326 28.42C131.326 27.772 131.05 27.256 130.498 26.872C129.97 26.488 129.058 26.236 127.762 26.116L126.034 25.936C123.85 25.696 122.17 25.072 120.994 24.064C119.818 23.056 119.23 21.712 119.23 20.032C119.23 18.688 119.566 17.56 120.238 16.648C120.91 15.736 121.834 15.052 123.01 14.596C124.21 14.116 125.578 13.876 127.114 13.876C129.514 13.876 131.458 14.404 132.946 15.46C134.434 16.516 135.214 18.064 135.286 20.104H130.786C130.738 19.432 130.402 18.856 129.778 18.376C129.154 17.896 128.254 17.656 127.078 17.656C126.022 17.656 125.206 17.86 124.63 18.268C124.054 18.676 123.766 19.204 123.766 19.852C123.766 20.476 123.994 20.956 124.45 21.292C124.93 21.628 125.698 21.856 126.754 21.976L128.482 22.156C130.786 22.396 132.586 23.032 133.882 24.064C135.202 25.096 135.862 26.488 135.862 28.24C135.862 29.536 135.502 30.664 134.782 31.624C134.086 32.56 133.102 33.292 131.83 33.82C130.558 34.348 129.058 34.612 127.33 34.612ZM147.963 34.684C146.235 34.684 144.711 34.408 143.391 33.856C142.071 33.304 140.955 32.56 140.043 31.624C139.131 30.664 138.435 29.584 137.955 28.384C137.499 27.184 137.271 25.936 137.271 24.64V23.884C137.271 22.54 137.511 21.268 137.991 20.068C138.495 18.844 139.203 17.764 140.115 16.828C141.051 15.868 142.179 15.124 143.499 14.596C144.819 14.044 146.307 13.768 147.963 13.768C149.619 13.768 151.107 14.044 152.427 14.596C153.747 15.124 154.863 15.868 155.775 16.828C156.711 17.764 157.419 18.844 157.899 20.068C158.379 21.268 158.619 22.54 158.619 23.884V24.64C158.619 25.936 158.379 27.184 157.899 28.384C157.443 29.584 156.759 30.664 155.847 31.624C154.935 32.56 153.819 33.304 152.499 33.856C151.179 34.408 149.667 34.684 147.963 34.684ZM147.963 30.4C149.187 30.4 150.219 30.136 151.059 29.608C151.899 29.056 152.535 28.324 152.967 27.412C153.399 26.476 153.615 25.42 153.615 24.244C153.615 23.044 153.387 21.988 152.931 21.076C152.499 20.14 151.851 19.408 150.987 18.88C150.147 18.328 149.139 18.052 147.963 18.052C146.787 18.052 145.767 18.328 144.903 18.88C144.063 19.408 143.415 20.14 142.959 21.076C142.503 21.988 142.275 23.044 142.275 24.244C142.275 25.42 142.491 26.476 142.923 27.412C143.379 28.324 144.027 29.056 144.867 29.608C145.707 30.136 146.739 30.4 147.963 30.4ZM161.572 34V14.452H165.532V22.732H165.424C165.424 19.924 166.024 17.8 167.224 16.36C168.424 14.92 170.188 14.2 172.516 14.2H173.236V18.556H171.868C170.188 18.556 168.88 19.012 167.944 19.924C167.032 20.812 166.576 22.108 166.576 23.812V34H161.572ZM175.177 41.704V37.42H178.849C179.545 37.42 180.121 37.324 180.577 37.132C181.057 36.964 181.453 36.676 181.765 36.268C182.077 35.884 182.317 35.344 182.485 34.648L187.741 14.452H192.529L186.733 35.728C186.349 37.192 185.809 38.356 185.113 39.22C184.417 40.108 183.517 40.744 182.413 41.128C181.333 41.512 179.989 41.704 178.381 41.704H175.177ZM181.261 33.568V29.608H185.437V33.568H181.261ZM179.569 33.568L173.233 14.452H178.273L184.285 33.568H179.569Z" fill="white"/>
<defs>
<clipPath id="clip0_32155_3210">
<rect width="32.1429" height="26.9376" fill="white" transform="translate(8.92969)"/>
</clipPath>
</defs>
</svg>
