<svg width="147" height="35" viewBox="0 0 147 35" fill="none" xmlns="http://www.w3.org/2000/svg">
<path d="M18.9227 1.16852C19.5189 0.564961 20.485 0.564881 21.0812 1.16852L31.7301 11.9567C30.0522 16.8837 25.438 20.4248 20.0028 20.4248C14.5668 20.4247 9.95196 16.8823 8.27459 11.9543L4.1922 16.0891C7.14128 21.8911 13.1141 25.8603 20.0028 25.8604C26.8889 25.8604 32.8605 21.8923 35.8117 16.0916L39.5527 19.8816C40.1491 20.4855 40.1491 21.4639 39.5527 22.0679L27.1916 34.5887C26.6519 35.1369 25.7744 35.1368 25.2331 34.5887L20.9796 30.2806C20.4399 29.7325 19.5623 29.7326 19.021 30.2806L14.7676 34.5887C14.2279 35.1369 13.3503 35.137 12.809 34.5887L0.446982 22.0679C-0.149015 21.464 -0.148973 20.4855 0.446982 19.8816L18.9227 1.16852Z" fill="#006D77"/>
<path d="M23.7009 34.9974L20.5417 31.7976C20.2572 31.5095 19.7951 31.5095 19.5107 31.7976L16.3516 34.9974H23.7009Z" fill="#006D77"/>
<g clip-path="url(#clip0_33801_333)">
<path d="M24.5479 12.7295C23.3605 13.7739 21.8235 14.3916 20.1709 14.3916C18.5179 14.3914 16.9805 13.7736 15.793 12.7285L20.1699 8.29395L24.5479 12.7295Z" stroke="#051229" stroke-width="12.5998"/>
</g>
<path d="M53.7518 28.5H49.5331L57.2142 6.68182H62.0934L69.7852 28.5H65.5664L59.739 11.1562H59.5686L53.7518 28.5ZM53.8903 19.9453H65.396V23.12H53.8903V19.9453ZM73.5419 12.1364L76.8445 18.1768L80.2003 12.1364H84.2806L79.348 20.3182L84.3658 28.5H80.3068L76.8445 22.6087L73.4141 28.5H69.3232L74.309 20.3182L69.451 12.1364H73.5419ZM85.1635 28.5V12.1364H89.0201V28.5H85.1635ZM87.1025 9.81392C86.4917 9.81392 85.9661 9.61151 85.5258 9.20668C85.0854 8.79474 84.8652 8.30114 84.8652 7.72585C84.8652 7.14347 85.0854 6.64986 85.5258 6.24503C85.9661 5.8331 86.4917 5.62713 87.1025 5.62713C87.7204 5.62713 88.2459 5.8331 88.6792 6.24503C89.1195 6.64986 89.3397 7.14347 89.3397 7.72585C89.3397 8.30114 89.1195 8.79474 88.6792 9.20668C88.2459 9.61151 87.7204 9.81392 87.1025 9.81392ZM103.819 16.4616L100.303 16.8452C100.204 16.4901 100.03 16.1562 99.7814 15.8438C99.54 15.5312 99.2132 15.2791 98.8013 15.0874C98.3894 14.8956 97.8851 14.7997 97.2885 14.7997C96.486 14.7997 95.8113 14.9737 95.2644 15.3217C94.7246 15.6697 94.4583 16.1207 94.4654 16.6747C94.4583 17.1506 94.6323 17.5376 94.9874 17.8359C95.3496 18.1342 95.9462 18.3793 96.7772 18.571L99.5684 19.1676C101.117 19.5014 102.267 20.0305 103.02 20.755C103.78 21.4794 104.164 22.4276 104.171 23.5994C104.164 24.6293 103.862 25.5384 103.265 26.3267C102.676 27.108 101.855 27.7187 100.804 28.1591C99.753 28.5994 98.5456 28.8196 97.182 28.8196C95.1792 28.8196 93.5669 28.4006 92.3453 27.5625C91.1238 26.7173 90.3958 25.5419 90.1614 24.0362L93.9221 23.674C94.0925 24.4126 94.4547 24.9702 95.0087 25.3466C95.5627 25.723 96.2836 25.9112 97.1713 25.9112C98.0875 25.9112 98.8226 25.723 99.3766 25.3466C99.9377 24.9702 100.218 24.505 100.218 23.951C100.218 23.4822 100.037 23.0952 99.6749 22.7898C99.3198 22.4844 98.7658 22.25 98.013 22.0866L95.2218 21.5007C93.6522 21.174 92.4909 20.6236 91.7381 19.8494C90.9853 19.0682 90.6124 18.081 90.6195 16.8878C90.6124 15.8793 90.8858 15.0057 91.4398 14.267C92.0009 13.5213 92.7786 12.946 93.7729 12.5412C94.7743 12.1293 95.9284 11.9233 97.2353 11.9233C99.1529 11.9233 100.662 12.3317 101.763 13.1484C102.871 13.9652 103.556 15.0696 103.819 16.4616ZM112.388 28.8196C110.79 28.8196 109.406 28.468 108.234 27.7649C107.062 27.0618 106.153 26.0781 105.506 24.8139C104.867 23.5497 104.548 22.0724 104.548 20.3821C104.548 18.6918 104.867 17.2109 105.506 15.9396C106.153 14.6683 107.062 13.6811 108.234 12.978C109.406 12.2749 110.79 11.9233 112.388 11.9233C113.986 11.9233 115.371 12.2749 116.543 12.978C117.715 13.6811 118.621 14.6683 119.26 15.9396C119.906 17.2109 120.229 18.6918 120.229 20.3821C120.229 22.0724 119.906 23.5497 119.26 24.8139C118.621 26.0781 117.715 27.0618 116.543 27.7649C115.371 28.468 113.986 28.8196 112.388 28.8196ZM112.41 25.7301C113.276 25.7301 114.001 25.4922 114.583 25.0163C115.165 24.5334 115.599 23.8871 115.883 23.0774C116.174 22.2678 116.32 21.3658 116.32 20.3714C116.32 19.37 116.174 18.4645 115.883 17.6548C115.599 16.8381 115.165 16.1882 114.583 15.7053C114.001 15.2223 113.276 14.9808 112.41 14.9808C111.522 14.9808 110.783 15.2223 110.194 15.7053C109.611 16.1882 109.175 16.8381 108.884 17.6548C108.599 18.4645 108.457 19.37 108.457 20.3714C108.457 21.3658 108.599 22.2678 108.884 23.0774C109.175 23.8871 109.611 24.5334 110.194 25.0163C110.783 25.4922 111.522 25.7301 112.41 25.7301ZM121.403 28.5V12.1364H125.142V14.8636H125.312C125.611 13.919 126.122 13.1911 126.847 12.6797C127.578 12.1612 128.413 11.902 129.35 11.902C129.563 11.902 129.801 11.9126 130.064 11.9339C130.334 11.9482 130.558 11.973 130.735 12.0085V15.5561C130.572 15.4993 130.312 15.4496 129.957 15.407C129.609 15.3572 129.272 15.3324 128.945 15.3324C128.242 15.3324 127.61 15.4851 127.049 15.7905C126.495 16.0888 126.058 16.5043 125.739 17.0369C125.419 17.5696 125.259 18.1839 125.259 18.88V28.5H121.403ZM134.092 34.6364C133.567 34.6364 133.08 34.5938 132.633 34.5085C132.192 34.4304 131.841 34.3381 131.578 34.2315L132.473 31.2273C133.034 31.3906 133.535 31.4688 133.975 31.4616C134.415 31.4545 134.803 31.3161 135.136 31.0462C135.477 30.7834 135.765 30.343 135.999 29.7251L136.33 28.8409L130.396 12.1364H134.486L138.258 24.4943H138.428L142.21 12.1364H146.312L139.76 30.4815C139.455 31.348 139.05 32.0902 138.545 32.7081C138.041 33.3331 137.423 33.8089 136.692 34.1357C135.967 34.4695 135.101 34.6364 134.092 34.6364Z" fill="#051229"/>
<defs>
<clipPath id="clip0_33801_333">
<rect width="25.7143" height="21.4276" fill="white" transform="translate(7.125)"/>
</clipPath>
</defs>
</svg>
